<svg id="Capa_1" enable-background="new 0 0 512 512" height="512" viewBox="0 0 512 512" width="512" xmlns="http://www.w3.org/2000/svg"><g><path d="m264.016 304.613h-248.5c-.285 0-.516-.231-.516-.516v-208.42c0-.285.231-.516.516-.516h416.839c.285 0 .516.231.516.516v92.798c0 4.142 3.358 7.5 7.5 7.5s7.5-3.358 7.5-7.5v-92.798c0-8.556-6.96-15.516-15.516-15.516h-416.839c-8.556 0-15.516 6.961-15.516 15.516v208.419c0 8.556 6.96 15.516 15.516 15.516h248.5c4.142 0 7.5-3.358 7.5-7.5s-3.358-7.499-7.5-7.499z"/><path d="m224.051 287.548c4.142 0 7.5-3.358 7.5-7.5v-11.374c19.851-3.388 31.44-19.525 33.972-34.589 3.186-18.952-6.737-35.434-25.281-41.988-2.854-1.009-5.781-2.071-8.691-3.184v-44.327c7.931 1.449 12.689 5.527 13.056 5.851 3.047 2.769 7.761 2.564 10.556-.467 2.808-3.045 2.617-7.79-.428-10.598-.5-.46-9.114-8.213-23.184-9.957v-9.691c0-4.142-3.358-7.5-7.5-7.5s-7.5 3.358-7.5 7.5v10.281c-1.611.32-3.259.723-4.948 1.232-12.156 3.662-21.242 14.08-23.712 27.188-2.244 11.909 1.542 23.37 9.879 29.909 4.694 3.682 10.589 7.053 18.78 10.646v55.242c-7.847-.382-12.815-1.956-21.353-7.542-3.466-2.268-8.115-1.296-10.382 2.17-2.268 3.466-1.296 8.115 2.17 10.382 11.489 7.516 19.214 9.543 29.564 9.987v10.827c.002 4.144 3.36 7.502 7.502 7.502zm-17.023-111.015c-3.915-3.071-5.6-8.944-4.396-15.329 1.12-5.944 5.202-13.165 13.298-15.604.209-.063.414-.114.622-.173v36.971c-3.625-1.848-6.893-3.801-9.524-5.865zm28.216 29.707c17.298 6.115 16.228 20.956 15.487 25.359-1.513 9-8.042 18.594-19.18 21.695v-48.379c1.198.436 2.424.877 3.693 1.325z"/><path d="m102.606 116.855c-1.161-2.803-3.896-4.63-6.929-4.63h-56.113c-4.142 0-7.5 3.358-7.5 7.5v56.113c0 3.034 1.827 5.768 4.63 6.929 2.775 1.154 6.022.53 8.173-1.626l56.113-56.113c2.145-2.144 2.787-5.37 1.626-8.173zm-55.542 40.877v-30.506h30.506z"/><path d="m352.193 112.226c-3.034 0-5.768 1.827-6.929 4.63s-.519 6.028 1.626 8.173l56.113 56.113c2.151 2.156 5.399 2.78 8.173 1.626 2.803-1.161 4.63-3.896 4.63-6.929v-56.113c0-4.142-3.358-7.5-7.5-7.5zm48.614 45.506-30.507-30.506h30.507z"/><path d="m44.868 218.632c-2.145-2.146-5.371-2.786-8.173-1.626-2.803 1.161-4.63 3.896-4.63 6.929v56.113c0 4.142 3.358 7.5 7.5 7.5h56.113c3.034 0 5.768-1.827 6.929-4.63s.519-6.028-1.626-8.173zm2.196 53.916v-30.506l30.506 30.506z"/><path d="m400.291 208.419c-61.597 0-111.71 50.113-111.71 111.709 0 61.597 50.113 111.71 111.71 111.71s111.709-50.113 111.709-111.71c0-61.596-50.113-111.709-111.709-111.709zm0 208.42c-53.326 0-96.71-43.384-96.71-96.71s43.384-96.709 96.71-96.709 96.709 43.384 96.709 96.709c0 53.326-43.384 96.71-96.709 96.71z"/><path d="m420.079 256.516h-24.049c-12.976 0-23.532 10.557-23.532 23.532v8.016c0 12.976 10.557 23.532 23.532 23.532h24.048c3.009 0 5.885-.574 8.532-1.608v18.156c0 4.705-3.828 8.532-8.532 8.532h-40.081c-9.125 0-16.548-7.423-16.548-16.548v-32.064c0-4.142-3.358-7.5-7.5-7.5s-7.5 3.358-7.5 7.5v32.064c0 14.812 10.262 27.265 24.048 30.64v17.457c0 8.556 6.96 15.516 15.516 15.516h32.064c8.556 0 15.516-6.96 15.516-15.516v-22.411c4.909-4.316 8.016-10.635 8.016-17.67v-48.097c.002-12.974-10.555-23.531-23.53-23.531zm0 40.081h-24.049c-4.705 0-8.532-3.828-8.532-8.532v-8.016c0-4.705 3.828-8.532 8.532-8.532h24.048c4.705 0 8.532 3.828 8.532 8.532v8.016c.001 4.704-3.827 8.532-8.531 8.532zm.516 71.629c0 .285-.231.516-.516.516h-32.064c-.285 0-.516-.231-.516-.516v-16.548h32.581c.173 0 .344-.009.516-.013v16.561z"/></g></svg>