<svg id="Capa_1" enable-background="new 0 0 512 512" height="512" viewBox="0 0 512 512" width="512" xmlns="http://www.w3.org/2000/svg"><g><path d="m320.129 384.774h-32.581v-81.194h8.532c17.396 0 31.548-14.152 31.548-31.548v-107.935c9.994-6.734 16.032-17.934 16.032-30.231v-.279c0-16.212-10.887-30.645-26.474-35.098l-23.451-6.7c-3.644-1.041-6.188-4.415-6.188-8.204v-12.162c5.027-6.635 8.016-14.895 8.016-23.843v-16.032c.001-17.396-14.151-31.548-31.547-31.548h-16.032c-17.396 0-31.548 14.152-31.548 31.548v16.032c0 8.947 2.989 17.207 8.016 23.843v12.161c0 3.789-2.544 7.163-6.188 8.204l-23.45 6.7c-15.588 4.453-26.475 18.886-26.475 35.098v.279c0 12.297 6.038 23.497 16.032 30.231v19.758c0 4.142 3.358 7.5 7.5 7.5s7.5-3.358 7.5-7.5v-24.048c0-2.841-1.605-5.438-4.146-6.708-7.332-3.666-11.886-11.036-11.886-19.233v-.279c0-9.55 6.413-18.052 15.595-20.675l23.45-6.7c10.049-2.871 17.068-12.175 17.068-22.626v-.08c5.039 2.33 10.642 3.641 16.548 3.641s11.51-1.31 16.548-3.641v.08c0 10.451 7.019 19.756 17.067 22.626l23.45 6.7c9.182 2.624 15.595 11.125 15.595 20.675v.279c0 8.197-4.555 15.567-11.886 19.233-2.541 1.271-4.146 3.867-4.146 6.708v112.226c0 9.125-7.423 16.548-16.548 16.548h-80.161c-9.125 0-16.548-7.423-16.548-16.548v-56.113c0-4.142-3.358-7.5-7.5-7.5s-7.5 3.358-7.5 7.5v56.113c0 17.396 14.152 31.548 31.548 31.548h8.532v81.194h-32.581c-17.396 0-31.548 14.152-31.548 31.548v88.178c0 4.142 3.358 7.5 7.5 7.5h176.354c4.142 0 7.5-3.358 7.5-7.5v-88.177c.001-17.396-14.151-31.549-31.547-31.549zm-88.693-337.193v-16.033c0-9.125 7.423-16.548 16.548-16.548h16.032c9.125 0 16.548 7.423 16.548 16.548v16.032c0 13.545-11.02 24.564-24.564 24.564s-24.564-11.019-24.564-24.563zm41.112 256v49.129h-33.097v-49.129zm-33.096 64.128h33.097v17.065h-33.097zm-64.129 129.291v-17.064h112.742c4.142 0 7.5-3.358 7.5-7.5s-3.358-7.5-7.5-7.5h-112.742v-48.613c0-9.125 7.423-16.548 16.548-16.548h128.258c9.125 0 16.548 7.423 16.548 16.548v48.613h-16.548c-4.142 0-7.5 3.358-7.5 7.5s3.358 7.5 7.5 7.5h16.548v17.064z"/></g></svg>