<svg id="Capa_1" enable-background="new 0 0 512 512" height="512" viewBox="0 0 512 512" width="512" xmlns="http://www.w3.org/2000/svg"><g><path d="m477.343 361.281-64.241-8.03c-22.912-2.864-44.824-9.893-65.126-20.89l-135.359-73.319c-13.114-7.104-21.261-20.782-21.261-35.697v-147.708c0-12.976-10.557-23.532-23.532-23.532h-32.065c-19.252 0-35.337 13.822-38.852 32.064h-73.375c-12.975 0-23.532 10.557-23.532 23.533v320.645c0 17.396 14.152 31.548 31.548 31.548h448.903c17.396 0 31.548-14.152 31.548-31.548v-27.807c.001-19.912-14.898-36.79-34.656-39.259zm-220.749-61.359-8.441 14.835-29.099-15.761 8.441-14.836zm13.192 7.146 29.099 15.762-8.441 14.835-29.099-15.761zm42.29 22.907 24.721 13.39-1.457 2.055c-4.836 6.823-14.029 8.964-21.382 4.981l-10.323-5.591zm-106.604-57.744 8.831 4.784-8.441 14.836-8.52-4.615c-6.545-3.545-12.396-8.007-17.435-13.174l13.468-10.673c3.564 3.431 7.619 6.416 12.097 8.842zm-46.181-59.804v-33.097h17.064v33.097zm17.064-48.096h-17.064v-33.097h17.064zm.153 63.096c.634 8.66 3.271 16.916 7.567 24.192l-13.472 10.676c-6.556-10.326-10.486-22.291-11.189-34.868zm-40.75-160.322h32.065c4.705 0 8.532 3.828 8.532 8.532v40.597h-17.064v-8.532c0-12.976-10.557-23.532-23.532-23.532h-23.395c3.177-9.889 12.463-17.065 23.394-17.065zm64.645 345.726h-185.403v-129.29h14.818c10.261 0 20.336 2.791 29.135 8.07l125.632 75.379c9.757 5.854 15.818 16.56 15.818 27.938zm-185.403 15.516v-.516h230.91l-17.064 17.064h-197.298c-9.125 0-16.548-7.423-16.548-16.548zm465.452 16.548h-230.394l21.206-21.206c7.668-7.668 17.863-11.891 28.707-11.891h140.4c4.142 0 7.5-3.358 7.5-7.5s-3.358-7.5-7.5-7.5h-140.4c-14.729 0-28.578 5.695-39.048 16.032h-45.519v-17.903c0-16.617-8.852-32.251-23.101-40.8l-125.632-75.379c-11.13-6.678-23.874-10.208-36.853-10.208h-14.818v-160.838c0-4.705 3.828-8.532 8.532-8.532h112.226c4.705 0 8.532 3.828 8.532 8.532v115.649c0 32.204 17.59 61.736 45.907 77.074l116.617 63.166c14.02 7.594 31.543 3.511 40.764-9.496l2.665-3.76c19.258 9.164 39.729 15.141 60.998 17.8l64.241 8.03c11.005 1.375 19.559 9.957 21.207 20.633h-24.254c-4.142 0-7.5 3.358-7.5 7.5s3.358 7.5 7.5 7.5h24.565v16.548c0 9.126-7.423 16.549-16.548 16.549z"/></g></svg>