<svg id="Capa_1" enable-background="new 0 0 512 512" height="512" viewBox="0 0 512 512" width="512" xmlns="http://www.w3.org/2000/svg"><g><path d="m330.666 228.261c-22.426-39.677-45.132-70.897-51.134-78.969v-22.974c13.786-3.375 24.048-15.829 24.048-30.64s-10.262-27.265-24.048-30.64v-17.974h8.532c8.556 0 15.516-6.96 15.516-15.516v-16.548h32.581c4.142 0 7.5-3.358 7.5-7.5s-3.358-7.5-7.5-7.5h-160.322c-4.142 0-7.5 3.358-7.5 7.5s3.358 7.5 7.5 7.5h32.581v16.548c0 8.556 6.96 15.516 15.516 15.516h8.532v17.973c-13.786 3.375-24.048 15.829-24.048 30.64s10.262 27.265 24.048 30.64v22.974c-6.001 8.073-28.708 39.293-51.134 78.969-35.218 62.31-53.076 114.794-53.076 155.997 0 70.438 57.305 127.743 127.742 127.743s127.742-57.305 127.742-127.742c0-41.202-17.858-93.687-53.076-155.997zm-83.198-83.97v-17.065h17.064v17.065zm-24.049-112.743v-16.548h65.161v16.548c0 .285-.231.516-.516.516h-64.129c-.284 0-.516-.231-.516-.516zm41.113 15.516v32.581c0 .285-.231.516-.516.516h-16.032c-.285 0-.516-.231-.516-.516v-32.581zm-41.113 48.613c0-6.449 3.716-12.034 9.113-14.763.649 7.963 7.325 14.247 15.452 14.247h16.032c8.127 0 14.803-6.284 15.452-14.247 5.396 2.729 9.113 8.314 9.113 14.763 0 9.125-7.423 16.548-16.548 16.548h-32.064c-9.126.001-16.55-7.423-16.55-16.548zm73.995 393.443c18.395-22.898 30.215-60.963 30.215-104.862 0-21.2-2.655-45.943-7.892-73.543-.772-4.069-4.694-6.74-8.767-5.971-4.07.772-6.743 4.697-5.971 8.767 5.062 26.681 7.629 50.484 7.629 70.748.001 61.112-25.932 112.741-56.628 112.741-16.885 0-33.462-16.219-44.346-43.385-1.54-3.845-5.905-5.716-9.751-4.173-3.845 1.54-5.713 5.906-4.173 9.751 4.742 11.838 10.458 21.886 16.902 29.946-41.76-16.529-71.374-57.311-71.374-104.881 0-68.594 55.857-159.997 85.173-203.243-16.526 46.447-44.06 134.192-44.06 203.243 0 14.217 1.271 28.169 3.779 41.47.679 3.602 3.826 6.112 7.362 6.112.46 0 .928-.043 1.397-.131 4.071-.767 6.749-4.689 5.981-8.759-2.335-12.387-3.519-25.405-3.519-38.692 0-38.576 9.484-90.444 27.426-149.998 10.707-35.537 21.526-64.151 25.748-74.97h6.908c5.971 15.314 25.154 66.297 38.69 122.513.828 3.437 3.899 5.746 7.285 5.746.582 0 1.172-.068 1.762-.21 4.027-.97 6.505-5.02 5.536-9.047-9.105-37.816-20.724-73.295-29.306-97.496 29.275 43.156 85.322 134.753 85.322 203.463 0 47.551-29.593 88.32-71.328 104.861z"/></g></svg>