<svg id="Capa_1" enable-background="new 0 0 512 512" height="512" viewBox="0 0 512 512" width="512" xmlns="http://www.w3.org/2000/svg"><g><path d="m445.164 229.287c10.968-56.668-3.808-114.705-40.541-159.228s-90.903-70.059-148.623-70.059-111.891 25.536-148.624 70.059-51.509 102.56-40.541 159.228l29.171 150.717c14.804 76.484 82.091 131.996 159.994 131.996 77.532 0 144.541-54.988 159.77-130.908.235-.662.379-1.365.419-2.098zm-189.164 267.713c-70.732 0-131.826-50.402-145.267-119.846l-29.171-150.717c-10.114-52.256 3.512-105.774 37.384-146.832 33.874-41.058 83.827-64.605 137.054-64.605s103.18 23.547 137.053 64.605c33.872 41.057 47.499 94.575 37.384 146.832l-29.171 150.717c-13.44 69.444-74.534 119.846-145.266 119.846z"/><path d="m208.419 215.919c0 3.199.32 6.398.952 9.509.825 4.059 4.783 6.681 8.843 5.857 4.059-.824 6.682-4.783 5.857-8.843-.433-2.129-.652-4.325-.652-6.523 0-17.965 14.616-32.581 32.581-32.581s32.581 14.616 32.581 32.581-14.616 32.581-32.581 32.581c-5.115 0-10.008-1.149-14.543-3.416-3.706-1.852-8.21-.35-10.062 3.355s-.35 8.21 3.355 10.062c6.636 3.317 13.786 4.999 21.25 4.999 26.236 0 47.581-21.345 47.581-47.581s-21.345-47.58-47.581-47.58-47.581 21.345-47.581 47.58z"/><path d="m386.705 99.33c-2.409-3.369-7.094-4.146-10.463-1.736s-4.146 7.095-1.736 10.463c23.44 32.766 32.123 72.646 24.449 112.292l-29.168 150.709c-10.529 54.396-58.383 93.876-113.787 93.876-55.403 0-103.257-39.478-113.787-93.868l-29.168-150.716c-8.29-42.833 2.875-86.694 30.635-120.338 27.758-33.649 68.696-52.948 112.32-52.948 36.524 0 71.413 13.534 98.238 38.11 3.055 2.798 7.799 2.59 10.597-.464s2.59-7.798-.464-10.597c-29.599-27.115-68.086-42.049-108.371-42.049-48.118 0-93.274 21.287-123.89 58.402-30.619 37.109-42.936 85.489-33.791 132.733l29.168 150.718c11.893 61.431 65.94 106.018 128.513 106.018 62.574 0 116.622-44.59 128.513-106.026l29.168-150.709c8.465-43.731-1.116-87.722-26.976-123.87z"/><path d="m176.355 215.919c0 43.917 35.729 79.645 79.645 79.645s79.645-35.729 79.645-79.645-35.728-79.645-79.645-79.645-79.645 35.729-79.645 79.645zm144.29 0c0 35.646-29 64.645-64.645 64.645s-64.645-29-64.645-64.645 29-64.645 64.645-64.645 64.645 29 64.645 64.645z"/></g></svg>