<svg id="Capa_1" enable-background="new 0 0 512.028 512.028" height="512" viewBox="0 0 512.028 512.028" width="512" xmlns="http://www.w3.org/2000/svg"><g><path d="m499.381 332.167c-11.304-9.561-27.43-12.757-43.138-8.547-1.321.354-2.617.756-3.888 1.201 7.211-20.124 11.234-41.104 11.97-62.321 11.833-.362 23.659-5.579 32.874-14.793 11.499-11.498 16.794-27.062 14.167-41.632-.556-3.082-2.968-5.494-6.049-6.05-14.571-2.628-30.135 2.667-41.633 14.167-.975.975-1.895 1.984-2.778 3.014-1-5.365-2.204-10.717-3.632-16.045-4.134-15.429-9.932-30.125-17.227-43.902 10.104-6.222 17.768-16.669 21.149-29.288 4.208-15.707 1.013-31.833-8.548-43.138-2.023-2.391-5.317-3.274-8.264-2.214-13.932 5.01-24.763 17.378-28.972 33.085-.358 1.336-.656 2.675-.907 4.014-13.676-15.971-29.848-29.886-48.137-41.27 5.738-10.481 7.184-23.462 3.779-36.17-4.209-15.707-15.039-28.075-28.972-33.085-2.948-1.059-6.242-.177-8.264 2.214-9.561 11.304-12.756 27.431-8.547 43.138.393 1.468.85 2.904 1.356 4.311-9.063-3.207-18.357-5.792-27.838-7.728-4.059-.827-8.02 1.79-8.849 5.848s1.789 8.02 5.847 8.849c20.42 4.17 39.912 11.56 57.932 21.965 4.698 2.712 9.246 5.61 13.656 8.664-3.884.146-7.823.734-11.736 1.782-15.708 4.209-28.076 15.039-33.085 28.971-1.06 2.947-.177 6.242 2.214 8.264 8.025 6.787 18.479 10.366 29.489 10.366 4.499 0 9.092-.598 13.648-1.819 12.854-3.444 23.465-11.326 29.644-21.71 14.174 14.953 25.843 32.099 34.591 50.916-3.525-1.895-7.334-3.419-11.368-4.5-15.708-4.209-31.834-1.013-43.138 8.548-2.391 2.022-3.274 5.317-2.214 8.264 5.009 13.932 17.377 24.763 33.085 28.971 4.558 1.221 9.148 1.819 13.648 1.819 8.204 0 16.099-1.99 22.911-5.812 4.853 20.42 6.337 41.149 4.545 61.538-2.122-3.453-4.683-6.724-7.674-9.715-11.499-11.499-27.065-16.795-41.632-14.167-3.082.556-5.494 2.968-6.05 6.05-2.627 14.571 2.668 30.134 14.167 41.632 9.435 9.435 21.605 14.684 33.72 14.816-4.273 14.106-10.188 27.823-17.741 40.905-6.98 12.091-15.093 23.125-24.106 33.08-8.514-3.658-15.389-12.048-18.13-22.279-2.336-8.717-1.41-17.781 2.345-24.865 3.808 2.382 7.201 5.762 9.843 9.864 2.242 3.482 6.885 4.486 10.367 2.243s4.486-6.885 2.243-10.367c-5.55-8.614-13.531-15.129-22.475-18.345-2.948-1.06-6.241-.177-8.264 2.214-9.561 11.304-12.756 27.43-8.548 43.138 3.434 12.815 11.278 23.404 21.615 29.59-9.045 8.477-18.813 15.978-29.14 22.467-3.132 2.205-11.656 7.743-21.368 11.62 1.749-3.359 3.167-6.967 4.188-10.776 4.208-15.707 1.013-31.834-8.547-43.138-2.023-2.391-5.318-3.274-8.264-2.214-13.932 5.009-24.763 17.377-28.972 33.084-3.398 12.684-1.963 25.638 3.747 36.108-14.407 3.359-29.204 5.09-44.091 5.09-14.657 0-29.398-1.683-43.934-5.097 5.708-10.469 7.141-23.42 3.744-36.101-4.209-15.707-15.04-28.075-28.972-33.084-2.949-1.059-6.242-.177-8.264 2.214-9.561 11.304-12.756 27.43-8.547 43.138 1 3.734 2.386 7.271 4.087 10.573-4.838-2.281-9.627-4.754-14.341-7.475-13.191-7.616-25.138-16.569-35.781-26.582 10.196-6.21 17.927-16.72 21.329-29.416 4.208-15.708 1.013-31.834-8.548-43.138-2.022-2.391-5.318-3.274-8.264-2.214-13.932 5.009-24.762 17.377-28.971 33.084-1.005 3.75-1.572 7.522-1.745 11.248-11.634-16.79-20.464-35.242-26.281-54.586 11.896-.312 23.799-5.534 33.063-14.798 11.498-11.498 16.794-27.062 14.167-41.632-.556-3.082-2.968-5.494-6.05-6.05-14.569-2.628-30.134 2.668-41.632 14.167-2.722 2.722-5.084 5.678-7.088 8.789-1.89-22.194.028-44.835 6.037-66.896 3.58-9.329 13.153-17.548 24.616-20.62 9.205-2.466 18.719-1.663 26.131 2.004-4.585 6.882-12.424 12.335-21.628 14.802-4.001 1.072-6.375 5.185-5.304 9.186.898 3.351 3.928 5.561 7.24 5.561.643 0 1.296-.083 1.946-.258 16.26-4.357 29.162-15.28 34.51-29.219 1.164-3.033.243-6.47-2.281-8.515-11.602-9.397-28.234-12.406-44.497-8.049-3.103.831-6.08 1.905-8.909 3.19 2.217-4.669 4.631-9.288 7.259-13.841 7.515-13.016 16.471-24.982 26.607-35.741 6.213 10.176 16.711 17.892 29.391 21.29 4.558 1.221 9.148 1.819 13.648 1.819 11.009 0 21.465-3.58 29.489-10.366 2.391-2.022 3.274-5.317 2.214-8.264-5.009-13.932-17.377-24.763-33.085-28.971-3.73-.999-7.482-1.568-11.188-1.746 21.294-14.782 45.575-25.317 71.537-30.627 4.058-.83 6.675-4.793 5.845-8.851s-4.793-6.676-8.851-5.845c-9.723 1.989-19.223 4.671-28.451 7.974.55-1.5 1.055-3.026 1.476-4.596 4.208-15.707 1.013-31.833-8.547-43.138-2.022-2.391-5.318-3.274-8.264-2.214-13.933 5.01-24.763 17.378-28.972 33.085-3.435 12.821-1.922 25.911 3.944 36.439-18.048 11.298-34.32 25.324-48.185 41.636-.271-1.551-.609-3.102-1.023-4.65-4.209-15.707-15.04-28.075-28.972-33.085-2.948-1.06-6.243-.177-8.264 2.214-9.561 11.305-12.756 27.431-8.548 43.138 3.431 12.803 11.262 23.384 21.585 29.573-10.258 19.327-17.159 39.61-20.885 60.159-1.007-1.203-2.059-2.382-3.188-3.511-11.499-11.499-27.062-16.795-41.633-14.167-3.082.556-5.494 2.968-6.049 6.05-2.628 14.571 2.668 30.134 14.167 41.632 9.387 9.386 21.481 14.627 33.533 14.811.806 21.386 4.896 42.505 12.062 62.58-1.51-.556-3.056-1.053-4.64-1.477-15.708-4.209-31.833-1.013-43.138 8.547-2.391 2.022-3.274 5.317-2.214 8.264 5.009 13.932 17.377 24.763 33.085 28.971 4.557 1.221 9.148 1.819 13.648 1.819 8.151 0 15.98-1.994 22.762-5.769 11.141 17.856 25.086 34.181 41.652 48.231-1.546.271-3.093.604-4.636 1.017-15.708 4.209-28.076 15.04-33.085 28.972-1.06 2.947-.177 6.242 2.214 8.264 8.025 6.787 18.479 10.366 29.489 10.366 4.499 0 9.092-.598 13.648-1.819 12.809-3.432 23.388-11.273 29.575-21.604 26.266 13.941 54.297 21.673 82.357 23.671l-22.832 28.541c-2.587 3.234-2.063 7.954 1.171 10.542 1.383 1.106 3.037 1.644 4.68 1.644 2.2 0 4.38-.964 5.861-2.815l26.24-32.8 26.24 32.8c2.588 3.235 7.309 3.76 10.542 1.171 3.234-2.587 3.759-7.307 1.171-10.542l-22.884-28.604c28.602-2.122 56.564-10.102 81.988-23.459 6.2 10.259 16.749 18.039 29.498 21.455 4.557 1.221 9.148 1.819 13.648 1.819 11.009 0 21.465-3.58 29.489-10.366 2.391-2.022 3.274-5.317 2.214-8.264-5.009-13.932-17.377-24.763-33.085-28.972-1.421-.381-2.846-.68-4.27-.94 15.93-13.475 30.056-29.552 41.671-48.064 6.688 3.633 14.384 5.525 22.376 5.525 4.5 0 9.092-.598 13.648-1.819 15.708-4.209 28.076-15.039 33.085-28.971 1.067-2.949.184-6.245-2.207-8.267zm-25.091-107.37c6.381-6.381 14.692-10.111 22.704-10.402-.291 8.012-4.021 16.324-10.401 22.704-6.273 6.273-14.411 9.975-22.296 10.376-.038-.987-.091-1.974-.143-2.961.991-7.054 4.546-14.126 10.136-19.717zm-120.942-153.841c-.213-.112-.426-.226-.639-.337-6.501-4.311-11.59-11.504-13.855-19.957-2.336-8.716-1.41-17.779 2.343-24.863 6.793 4.258 12.126 11.644 14.461 20.36 2.329 8.689 1.415 17.723-2.31 24.797zm9.77 58.573c-8.717 2.335-17.779 1.409-24.863-2.344 4.258-6.793 11.644-12.126 20.36-14.462s17.779-1.41 24.863 2.344c-4.258 6.793-11.644 12.126-20.36 14.462zm48.364 70.489c-8.716-2.335-16.102-7.669-20.36-14.462 7.084-3.754 16.147-4.679 24.864-2.344 8.716 2.335 16.102 7.669 20.36 14.462-7.085 3.753-16.149 4.679-24.864 2.344zm21.061-55.768c-.479-.765-.968-1.523-1.457-2.282-2.757-6.653-3.256-14.653-1.184-22.384 2.335-8.716 7.668-16.102 14.461-20.36 3.753 7.084 4.679 16.147 2.344 24.863-2.301 8.588-7.515 15.877-14.164 20.163zm-14.422 140.995c-6.38-6.381-10.11-14.693-10.401-22.704 8.011.292 16.324 4.021 22.704 10.402s10.11 14.693 10.401 22.704c-8.011-.292-16.323-4.022-22.704-10.402zm-261.752-239.086c2.335-8.716 7.668-16.102 14.461-20.36 3.753 7.084 4.679 16.147 2.343 24.863-2.335 8.716-7.668 16.102-14.461 20.36-3.753-7.084-4.679-16.147-2.343-24.863zm-2.956 66.564c8.716 2.335 16.102 7.669 20.36 14.462-7.084 3.753-16.147 4.679-24.863 2.344s-16.102-7.669-20.36-14.462c7.083-3.753 16.144-4.679 24.863-2.344zm-88.093 11.364c-2.335-8.716-1.41-17.779 2.344-24.863 6.793 4.258 12.126 11.644 14.461 20.36 2.336 8.716 1.41 17.78-2.344 24.863-6.792-4.257-12.125-11.643-14.461-20.36zm-39.885 113.013c-6.38-6.381-10.11-14.692-10.401-22.704 8.012.291 16.323 4.021 22.704 10.402s10.11 14.693 10.402 22.704c-8.012-.292-16.325-4.022-22.705-10.402zm56.169 35.842c6.381-6.381 14.692-10.11 22.704-10.402-.291 8.012-4.021 16.323-10.401 22.704-6.381 6.381-14.692 10.111-22.704 10.402.29-8.011 4.02-16.323 10.401-22.704zm-34.205 81.972c-8.716-2.335-16.102-7.669-20.36-14.462 7.084-3.753 16.146-4.679 24.863-2.344 8.716 2.335 16.102 7.669 20.36 14.461-7.084 3.754-16.146 4.68-24.863 2.345zm68.909 27.819c-3.753-7.084-4.679-16.147-2.343-24.863s7.668-16.102 14.461-20.36c3.753 7.084 4.68 16.147 2.344 24.863s-7.669 16.102-14.462 20.36zm9.02 63.262c-8.717 2.335-17.78 1.41-24.863-2.343 4.258-6.793 11.644-12.126 20.36-14.461 8.716-2.336 17.779-1.411 24.863 2.344-4.258 6.792-11.643 12.125-20.36 14.46zm73.586-10.362c-6.792-4.258-12.125-11.644-14.461-20.36-2.336-8.717-1.41-17.78 2.343-24.864 6.793 4.258 12.126 11.644 14.461 20.36 2.337 8.717 1.411 17.78-2.343 24.864zm128.66-20.36c-2.335 8.716-7.668 16.102-14.461 20.36-3.753-7.083-4.68-16.147-2.344-24.863 2.335-8.716 7.668-16.102 14.461-20.36 3.754 7.084 4.68 16.147 2.344 24.863zm63.629 13.917c8.716 2.335 16.102 7.668 20.36 14.461-7.084 3.753-16.146 4.68-24.863 2.343-8.708-2.333-16.088-7.659-20.348-14.442.063-.039.125-.079.188-.118 7.055-3.667 16.027-4.558 24.663-2.244zm73.426-74.276c-8.619 2.31-17.573 1.425-24.621-2.224.358-.672.719-1.343 1.069-2.018 4.377-5.88 11.164-10.451 19.049-12.563 8.716-2.336 17.779-1.41 24.863 2.344-4.258 6.792-11.645 12.126-20.36 14.461z"/><path d="m192.593 182.837c0 2.046.144 4.058.396 6.038-5.308 4.452-8.421 11.025-8.421 18.035v72.217c0 14.825 10.273 27.289 24.072 30.665v41.552c0 12.985 10.564 23.548 23.548 23.548h56.169c12.984 0 23.548-10.564 23.548-23.548v-41.876c9.317-3.14 16.048-11.954 16.048-22.317v-104.314c0-26.258-21.362-47.62-47.621-47.62h-40.121c-26.256 0-47.618 21.362-47.618 47.62zm104.313 168.507c0 4.714-3.835 8.548-8.548 8.548h-56.169c-4.713 0-8.548-3.835-8.548-8.548v-8.548h40.645c8.56 0 15.524-6.964 15.524-15.524v-16.572h17.097v40.644zm-56.693-201.127h40.121c17.987 0 32.621 14.634 32.621 32.621s-14.634 32.621-32.621 32.621h-40.121c-17.987 0-32.621-14.634-32.621-32.621.001-17.988 14.634-32.621 32.621-32.621zm-23.548 73.985v14.804c0 12.985 10.564 23.548 23.548 23.548 4.142 0 7.5-3.358 7.5-7.5s-3.358-7.5-7.5-7.5c-4.713 0-8.548-3.835-8.548-8.548v-9.332c2.775.505 5.629.783 8.548.783h40.121c12.615 0 24.091-4.94 32.621-12.975v69.668c0 4.714-3.835 8.548-8.548 8.548h-48.145c-4.142 0-7.5 3.358-7.5 7.5s3.358 7.5 7.5 7.5h8.548v16.572c0 .289-.235.524-.524.524h-40.645v-17.096h.524c4.142 0 7.5-3.358 7.5-7.5s-3.358-7.5-7.5-7.5h-8.024c-9.138 0-16.572-7.434-16.572-16.573v-71.503c4.201 6.867 10.098 12.581 17.096 16.58z"/></g></svg>