<svg id="Capa_1" enable-background="new 0 0 512.001 512.001" height="512" viewBox="0 0 512.001 512.001" width="512" xmlns="http://www.w3.org/2000/svg"><g><path d="m503.338 229.618c6.015-6.338 9.076-14.648 8.618-23.399-.877-16.746-15.313-29.863-32.865-29.863h-39.236v-8.532c0-21.815-17.749-39.564-39.564-39.564h-52.379c-19.721 0-38.768 8.252-52.256 22.639l-26.868 28.659c-7.644 8.154-18.439 12.831-29.617 12.831h-159.526c-5.836 0-10.925 3.242-13.574 8.017h-58.571c-4.142 0-7.5 3.357-7.5 7.5 0 4.142 3.358 7.5 7.5 7.5h56.629v137.304h-56.629c-4.142 0-7.5 3.357-7.5 7.5 0 4.142 3.358 7.5 7.5 7.5h56.629v.516c0 8.556 6.96 15.517 15.516 15.517h96.194c8.556 0 15.516-6.961 15.516-15.517v-.516h8.005c15.859 0 31.812 1.438 47.413 4.275l39.819 7.239c16.486 2.998 33.341 4.518 50.097 4.518h118.354c17.552 0 31.988-13.118 32.865-29.863.441-8.423-2.378-16.438-7.955-22.68 9.128-5.22 15.402-14.556 15.971-25.417.441-8.423-2.378-16.439-7.955-22.68 9.128-5.219 15.402-14.555 15.971-25.417.436-8.32-2.31-16.243-7.752-22.451 2.624-1.506 5.04-3.392 7.15-5.616zm-78.483-61.795v8.532h-25.081v-33.097h.516c13.545 0 24.565 11.02 24.565 24.565zm-145.124 21.993 26.868-28.659c10.664-11.375 25.721-17.898 41.312-17.898h36.863v33.097h-36.812c-15.083 0-28.643 8.381-35.388 21.871l-20.79 41.58-26.22-39.119c5.236-2.822 10.04-6.471 14.167-10.872zm-28.618 16.25 32.957 49.17-49.836 99.673c-3.596-.451-7.201-.839-10.814-1.151v-146.371h15.751c4.041 0 8.043-.458 11.942-1.321zm-59.758 146.644v-96.71c0-4.142-3.358-7.5-7.5-7.5s-7.5 3.358-7.5 7.5v112.226c0 .285-.231.517-.516.517h-96.194c-.285 0-.516-.231-.516-.517v-160.322c0-.285.231-.517.516-.517h96.71v16.549c0 4.142 3.358 7.5 7.5 7.5s7.5-3.358 7.5-7.5v-16.549h17.064v145.488c-3.021-.099-6.042-.165-9.06-.165zm58.457 4.582 76.179-152.358c4.188-8.376 12.607-13.579 21.972-13.579h64.241l-10.605 21.211c-1.853 3.705-.351 8.209 3.354 10.062 1.077.539 2.221.793 3.348.793 2.751 0 5.4-1.52 6.714-4.147l13.959-27.919h18.576l-29.564 177.388h-77.706l58.702-117.404c1.853-3.705.351-8.21-3.354-10.062-3.703-1.852-8.209-.351-10.062 3.354l-61.891 123.78c-11.538-.569-23.061-1.882-34.4-3.943zm223.116-4.197c-.452 8.628-8.475 15.647-17.885 15.647h-21.85l5.516-33.097h17.695c4.585 0 8.849 1.832 12.006 5.16 3.154 3.324 4.759 7.689 4.518 12.29zm8.016-48.096c-.452 8.628-8.475 15.647-17.885 15.647h-21.85l5.516-33.097h17.695c4.585 0 8.849 1.833 12.006 5.16 3.154 3.324 4.759 7.688 4.518 12.29zm8.016-48.098c-.452 8.628-8.476 15.647-17.886 15.647h-21.85l5.516-33.097h17.695c4.584 0 8.849 1.833 12.006 5.16 3.156 3.325 4.76 7.69 4.519 12.29zm3.498-37.609c-3.158 3.327-7.422 5.16-12.006 5.16h-23.211l5.516-33.097h16.334c9.41 0 17.434 7.02 17.886 15.647.24 4.601-1.364 8.966-4.519 12.29z"/></g></svg>