<svg id="Capa_1" enable-background="new 0 0 512 512" height="512" viewBox="0 0 512 512" width="512" xmlns="http://www.w3.org/2000/svg"><g><path d="m328.145 416.839h-48.613v-65.162h24.564c12.976 0 23.532-10.557 23.532-23.532v-304.613c.001-12.975-10.556-23.532-23.531-23.532h-96.193c-12.976 0-23.532 10.557-23.532 23.532v304.613c0 12.976 10.557 23.532 23.532 23.532h24.564v65.162h-48.613c-21.816 0-39.564 17.749-39.564 39.564v48.097c0 4.143 3.358 7.5 7.5 7.5h208.419c4.142 0 7.5-3.357 7.5-7.5v-48.097c-.001-21.816-17.749-39.564-39.565-39.564zm-128.774-145.323h64.645c4.142 0 7.5-3.358 7.5-7.5s-3.358-7.5-7.5-7.5h-64.645v-209.452h113.258v209.452h-16.548c-4.142 0-7.5 3.358-7.5 7.5s3.358 7.5 7.5 7.5h16.548v33.097h-113.258zm8.532-256.516h96.193c4.705 0 8.532 3.828 8.532 8.532v8.532h-113.257v-8.532c0-4.704 3.828-8.532 8.532-8.532zm-8.532 313.145v-8.532h113.258v8.532c0 4.705-3.828 8.532-8.532 8.532h-96.193c-4.705 0-8.533-3.827-8.533-8.532zm48.097 23.532h17.064v65.162h-17.064zm105.241 145.323h-17.064v-8.532c0-12.976-10.557-23.532-23.532-23.532h-72.145c-4.142 0-7.5 3.358-7.5 7.5s3.358 7.5 7.5 7.5h72.145c4.705 0 8.532 3.827 8.532 8.532v8.532h-129.29v-8.532c0-4.705 3.828-8.532 8.532-8.532h8.016c4.142 0 7.5-3.358 7.5-7.5s-3.358-7.5-7.5-7.5h-8.016c-12.976 0-23.532 10.557-23.532 23.532v8.532h-17.064v-40.597c0-13.545 11.02-24.564 24.564-24.564h144.29c13.545 0 24.564 11.02 24.564 24.564z"/></g></svg>