<svg id="Capa_1" enable-background="new 0 0 512 512" height="512" viewBox="0 0 512 512" width="512" xmlns="http://www.w3.org/2000/svg"><g><path d="m479.936 161.045v-41.319c0-30.656-24.94-55.597-55.597-55.597h-96.71v-24.565c0-12.976-10.557-23.532-23.532-23.532h-96.193c-12.976 0-23.532 10.557-23.532 23.532v24.564h-96.71c-30.656 0-55.597 24.94-55.597 55.597v41.319c-18.241 3.517-32.065 19.592-32.065 38.843v144.291c0 19.251 13.824 35.326 32.064 38.842v73.384c0 21.816 17.749 39.564 39.564 39.564h32.064c43.917 0 79.646-35.729 79.646-79.646v-16.032c0-32.081-19.093-60.885-48.642-73.383-14.278-6.039-23.504-19.268-23.504-33.701v-1.819c0-19.797 16.106-35.903 35.903-35.903h217.808c19.797 0 35.903 16.106 35.903 35.903v1.819c0 14.434-9.226 27.662-23.504 33.701-29.549 12.498-48.642 41.302-48.642 73.383v16.032c0 43.917 35.729 79.646 79.646 79.646h32.064c21.816 0 39.564-17.749 39.564-39.564v-73.384c18.24-3.516 32.064-19.591 32.064-38.842v-144.291c.002-19.251-13.822-35.326-32.062-38.842zm-280.565-121.481c0-4.705 3.828-8.532 8.532-8.532h96.193c4.705 0 8.532 3.828 8.532 8.532v24.564h-113.257zm265.565 416.839c0 13.545-11.02 24.564-24.564 24.564h-32.064c-35.646 0-64.646-29-64.646-64.646v-16.031c0-26.041 15.499-49.423 39.484-59.568 19.841-8.392 32.661-27.043 32.661-47.516v-1.819c0-28.068-22.835-50.903-50.903-50.903h-217.808c-28.068 0-50.903 22.835-50.903 50.903v1.819c0 20.473 12.82 39.124 32.661 47.516 23.986 10.145 39.484 33.527 39.484 59.568v16.032c0 35.646-29 64.646-64.646 64.646h-32.063c-13.545 0-24.564-11.02-24.564-24.564v-112.226c0-4.143-3.358-7.5-7.5-7.5s-7.5 3.357-7.5 7.5v23.389c-9.888-3.178-17.065-12.46-17.065-23.389v-144.291c0-10.93 7.177-20.211 17.064-23.389v135.616c0 4.142 3.358 7.5 7.5 7.5s7.5-3.358 7.5-7.5v-192.388c0-22.385 18.211-40.597 40.597-40.597h336.678c22.385 0 40.597 18.212 40.597 40.597zm32.064-112.225c0 10.93-7.177 20.211-17.064 23.389v-191.069c9.887 3.178 17.064 12.459 17.064 23.389z"/><path d="m215.919 111.193h80.161c4.705 0 8.532 3.828 8.532 8.532 0 4.143 3.358 7.5 7.5 7.5s7.5-3.357 7.5-7.5c0-12.976-10.557-23.532-23.532-23.532h-80.161c-12.976 0-23.532 10.557-23.532 23.532v80.162c0 12.976 10.557 23.532 23.532 23.532h80.161c12.976 0 23.532-10.557 23.532-23.532v-48.097c0-4.142-3.358-7.5-7.5-7.5s-7.5 3.358-7.5 7.5v48.097c0 4.705-3.828 8.532-8.532 8.532h-80.161c-4.705 0-8.532-3.828-8.532-8.532v-80.162c0-4.704 3.828-8.532 8.532-8.532z"/></g></svg>