<svg id="Capa_1" enable-background="new 0 0 512 512" height="512" viewBox="0 0 512 512" width="512" xmlns="http://www.w3.org/2000/svg"><g><path d="m383.24 345.378-14.062-182.816c-1.134-14.737-10.277-27.509-23.863-33.331l-30.913-13.249c3.663-4.024 6.487-8.799 8.259-14.117 3.342-10.025 2.58-20.752-2.147-30.205l-23.012-46.023c-7.906-15.813-23.801-25.637-41.523-25.637-17.68 0-33.575 9.824-41.481 25.637l-23.012 46.023c-4.727 9.453-5.489 20.18-2.147 30.205 1.773 5.318 4.596 10.093 8.259 14.117l-30.913 13.249c-13.586 5.822-22.729 18.594-23.863 33.331l-14.062 182.816c-.547 7.112 3.797 13.655 10.564 15.91l37.031 12.343v122.853c0 8.556 6.96 15.516 15.516 15.516h128.258c8.556 0 15.516-6.96 15.516-15.516v-122.853l37.031-12.343c6.767-2.255 11.111-8.798 10.564-15.91zm-155.325-313.033c5.349-10.699 16.103-17.345 28.106-17.345 11.962 0 22.716 6.646 28.065 17.345l3.019 6.038c-9.729-4.129-20.267-6.319-31.105-6.319-10.841 0-21.377 2.188-31.102 6.314zm-23.013 46.023 6.914-13.828c12.022-11.268 27.672-17.476 44.184-17.476 16.5 0 32.159 6.205 44.179 17.468l6.918 13.836c6.058 12.115 1.129 26.899-10.985 32.957l-12.664 6.332c-6.3 3.15-10.822 8.893-12.406 15.756l-15.042 65.185-15.042-65.185c-1.584-6.863-6.105-12.606-12.406-15.756l-12.664-6.332c-12.115-6.057-17.043-20.842-10.986-32.957zm79.412 64.246 19.103 19.103-39.917 108.344v-37.254zm-35.814 90.193v37.254l-39.917-108.344 19.103-19.103zm-72.145 125.013-32.288-10.762c-.225-.075-.37-.292-.351-.529l1.789-23.26 30.849 10.283v24.268zm0-40.081-29.664-9.888 10.704-139.152 9.386 16.426c6.263 10.96 9.574 23.426 9.574 36.05zm151.79-61.223c-4.142 0-7.5 3.358-7.5 7.5v232.468c0 .285-.231.516-.516.516h-56.629v-40.597c0-4.142-3.358-7.5-7.5-7.5s-7.5 3.358-7.5 7.5v40.597h-56.629c-.285 0-.516-.231-.516-.516v-275.309c0-15.23-3.994-30.27-11.55-43.493l-16.098-28.171c2.389-2.754 5.397-4.997 8.888-6.493l39.396-16.872 7.3 3.65-24.707 24.707c-2.069 2.068-2.746 5.151-1.734 7.896l55.65 151.051v110.888c0 4.142 3.358 7.5 7.5 7.5s7.5-3.358 7.5-7.5v-110.888l55.65-151.051c1.011-2.745.334-5.828-1.734-7.896l-24.707-24.707 7.288-3.644 39.408 16.866c3.49 1.496 6.498 3.739 8.887 6.493l-16.098 28.171c-7.556 13.223-11.55 28.263-11.55 43.493v10.776c0 4.142 3.358 7.5 7.5 7.5s7.5-3.358 7.5-7.5v-10.776c0-12.624 3.311-25.09 9.574-36.05l9.386-16.426 10.704 139.152-29.664 9.888v-53.723c.001-4.142-3.357-7.5-7.499-7.5zm39.788 90.542-32.288 10.762v-24.269l30.849-10.283 1.789 23.261c.019.236-.125.454-.35.529z"/></g></svg>