<svg id="Capa_1" enable-background="new 0 0 511.978 511.978" height="512" viewBox="0 0 511.978 511.978" width="512" xmlns="http://www.w3.org/2000/svg"><g><path d="m505.058 339.009-40.921-40.921c10.512-15.489 8.92-36.797-4.795-50.512l-51.431-51.431c-8.182-8.183-20.089-11.15-30.977-8.119l-9.026-9.026c-15.528-15.527-40.795-15.528-56.323 0l-51.431 51.431c-1.534 1.533-2.919 3.175-4.165 4.899-1.246-1.724-2.631-3.365-4.165-4.899l-51.431-51.431c-15.528-15.527-40.795-15.528-56.323 0l-9.024 9.024c-10.889-3.031-22.796-.062-30.978 8.12l-51.431 51.431c-13.715 13.715-15.308 35.023-4.795 50.512l-40.922 40.922c-9.226 9.226-9.226 24.238 0 33.465l45.717 45.716c4.469 4.469 10.412 6.931 16.732 6.931s12.263-2.462 16.732-6.931l41.044-41.043c4.925 3.011 10.594 4.625 16.513 4.625 8.479 0 16.451-3.302 22.447-9.298l85.719-85.719c1.534-1.534 2.919-3.175 4.165-4.899 1.246 1.724 2.631 3.366 4.165 4.899l85.719 85.719c5.996 5.996 13.968 9.298 22.447 9.298 5.919 0 11.588-1.614 16.513-4.625l41.044 41.043c4.469 4.469 10.412 6.931 16.732 6.931s12.263-2.462 16.732-6.931l45.717-45.716c9.226-9.227 9.226-24.239 0-33.465zm-51.02-29.807 23.681 23.681-28.984 28.984c-1.636 1.636-3.812 2.537-6.126 2.537s-4.49-.901-6.126-2.537l-17.555-17.555zm-360.988 35.11-17.555 17.555c-1.636 1.636-3.812 2.537-6.126 2.537s-4.49-.901-6.126-2.537l-28.984-28.984 23.681-23.681zm-17.555 63.272c-1.636 1.636-3.812 2.538-6.126 2.538s-4.49-.901-6.126-2.538l-45.717-45.716c-3.377-3.378-3.377-8.874 0-12.252l6.126-6.126 28.984 28.984c4.613 4.613 10.673 6.92 16.732 6.92s12.119-2.307 16.732-6.92l17.555-17.555 12.252 12.251zm80.004-45.716c-3.163 3.162-7.368 4.904-11.84 4.904s-8.678-1.742-11.84-4.904l-68.575-68.575c-9.68-9.68-9.68-25.43 0-35.11l51.431-51.431c2.005-2.005 4.437-3.407 7.038-4.186-4.195 6.411-6.451 13.901-6.451 21.741 0 5.194.994 10.234 2.881 14.91l-14.074 14.074c-9.227 9.226-9.227 24.238 0 33.465 1.464 1.464 3.384 2.196 5.303 2.196s3.839-.732 5.303-2.196c2.929-2.929 2.929-7.678 0-10.606-3.377-3.378-3.377-8.874 0-12.252l11.851-11.851c.135.139.264.284.401.421l51.431 51.431c6.635 6.635 15.049 10.425 23.72 11.39zm85.718-85.719-17.144 17.144c-9.68 9.68-25.43 9.68-35.11 0l-51.431-51.431c-4.689-4.688-7.271-10.923-7.271-17.555 0-6.631 2.583-12.866 7.271-17.555l17.144-17.144c4.841-4.841 11.197-7.26 17.555-7.26 6.357 0 12.716 2.42 17.555 7.26l51.431 51.431c4.689 4.689 7.271 10.924 7.271 17.555.001 6.631-2.582 12.865-7.271 17.555zm29.543-35.11 51.431-51.431c4.841-4.841 11.197-7.26 17.555-7.26 6.357 0 12.716 2.42 17.555 7.26l17.144 17.144c4.689 4.689 7.271 10.923 7.271 17.555s-2.583 12.866-7.271 17.555l-51.431 51.432c-9.679 9.679-25.427 9.679-35.108.002l-17.146-17.146c-4.689-4.689-7.271-10.923-7.271-17.555 0-6.633 2.582-12.867 7.271-17.556zm85.719 120.829-46.579-46.579c8.671-.965 17.085-4.755 23.72-11.39l51.431-51.431c.138-.138.266-.282.401-.422l11.851 11.851c3.377 3.378 3.377 8.874 0 12.252-2.929 2.929-2.929 7.677 0 10.606 1.464 1.464 3.384 2.196 5.303 2.196s3.839-.732 5.303-2.196c9.227-9.227 9.227-24.239 0-33.465l-14.074-14.074c1.886-4.676 2.881-9.716 2.881-14.91 0-7.84-2.257-15.33-6.452-21.741 2.602.779 5.034 2.182 7.038 4.187l51.431 51.431c9.68 9.68 9.68 25.431 0 35.11l-68.575 68.575c-3.163 3.162-7.368 4.904-11.84 4.904s-8.676-1.742-11.839-4.904zm137.973 0-45.717 45.716c-1.636 1.636-3.812 2.538-6.126 2.538s-4.49-.901-6.126-2.538l-40.414-40.414 12.252-12.251 17.555 17.555c4.613 4.613 10.673 6.92 16.732 6.92s12.119-2.307 16.732-6.92l28.984-28.984 6.126 6.126c3.379 3.378 3.379 8.874.002 12.252z"/><path d="m395.34 408.27-26.792-7.267c-2.195-.595-4.539-.164-6.375 1.173-1.838 1.337-2.97 3.436-3.079 5.705l-2.215 46.084-38.61-25.246c-1.9-1.242-4.261-1.558-6.42-.856-2.16.701-3.885 2.343-4.693 4.464l-16.421 43.123-28.897-35.991c-1.423-1.773-3.574-2.804-5.848-2.804s-4.425 1.031-5.848 2.804l-28.897 35.991-16.421-43.123c-.808-2.121-2.533-3.763-4.693-4.464-2.161-.702-4.521-.386-6.42.856l-38.61 25.246-2.215-46.084c-.109-2.27-1.241-4.368-3.079-5.705-1.837-1.337-4.182-1.768-6.375-1.173l-26.792 7.267c-3.998 1.084-6.359 5.204-5.275 9.202s5.201 6.36 9.202 5.275l17.785-4.824 2.396 49.851c.129 2.686 1.687 5.098 4.082 6.32s5.263 1.068 7.514-.403l41.779-27.318 17.766 46.652c.957 2.513 3.185 4.321 5.841 4.739 2.654.419 5.333-.616 7.016-2.713l31.246-38.916 31.246 38.916c1.436 1.789 3.595 2.805 5.847 2.805.388 0 .779-.03 1.168-.092 2.656-.418 4.885-2.227 5.841-4.739l17.766-46.652 41.779 27.318c2.25 1.472 5.117 1.625 7.514.403 2.396-1.222 3.953-3.634 4.082-6.32l2.396-49.851 17.785 4.824c3.996 1.083 8.118-1.277 9.202-5.275 1.081-3.998-1.28-8.118-5.278-9.202z"/><path d="m16.926 224.743 12.812 10.286c3.229 2.594 7.95 2.077 10.543-1.152 2.593-3.23 2.077-7.95-1.153-10.544l-2.602-2.089 43.122-16.421c2.122-.809 3.764-2.534 4.464-4.693.701-2.159.386-4.521-.856-6.42l-25.246-38.61 46.084-2.215c2.27-.109 4.368-1.242 5.705-3.079 1.337-1.838 1.769-4.183 1.173-6.376l-12.079-44.545 44.543 12.084c2.194.596 4.539.164 6.376-1.173s2.97-3.435 3.079-5.705l2.216-46.083 38.607 25.247c1.9 1.242 4.262 1.557 6.421.856 2.16-.702 3.885-2.343 4.693-4.465l16.416-43.119 28.897 35.989c1.423 1.773 3.574 2.805 5.848 2.805s4.425-1.031 5.848-2.805l28.897-35.989 16.416 43.119c.808 2.122 2.534 3.764 4.693 4.465 2.161.701 4.521.386 6.421-.856l38.607-25.247 2.216 46.083c.109 2.27 1.242 4.368 3.079 5.705 1.837 1.336 4.182 1.768 6.376 1.173l44.543-12.084-12.082 44.544c-.595 2.193-.164 4.538 1.173 6.376 1.337 1.837 3.435 2.97 5.705 3.079l46.084 2.215-25.246 38.61c-1.242 1.9-1.557 4.261-.856 6.42s2.342 3.885 4.464 4.693l43.122 16.421-2.602 2.089c-3.23 2.594-3.746 7.314-1.153 10.544 1.481 1.846 3.657 2.805 5.853 2.805 1.647 0 3.306-.54 4.69-1.652l12.812-10.286c2.097-1.684 3.132-4.36 2.713-7.016s-2.227-4.884-4.74-5.841l-46.652-17.765 27.318-41.779c1.472-2.251 1.625-5.118.403-7.513-1.223-2.396-3.634-3.954-6.32-4.083l-49.851-2.396 13.064-48.165c.704-2.594-.035-5.366-1.935-7.267s-4.67-2.639-7.267-1.935l-48.164 13.067-2.397-49.85c-.129-2.687-1.687-5.098-4.083-6.32-2.396-1.223-5.263-1.068-7.514.403l-41.775 27.319-17.76-46.649c-.957-2.513-3.185-4.321-5.841-4.74-2.654-.418-5.332.616-7.016 2.713l-31.247 38.916-31.247-38.916c-1.684-2.097-4.362-3.131-7.016-2.713-2.656.418-4.885 2.227-5.841 4.74l-17.76 46.649-41.771-27.319c-2.252-1.472-5.118-1.625-7.514-.403-2.396 1.223-3.954 3.634-4.083 6.32l-2.397 49.85-48.163-13.068c-2.594-.704-5.366.035-7.267 1.935-1.9 1.9-2.639 4.673-1.935 7.267l13.064 48.165-49.851 2.396c-2.686.129-5.098 1.687-6.32 4.083s-1.068 5.262.403 7.513l27.318 41.779-46.652 17.765c-2.513.957-4.321 3.186-4.74 5.841-.418 2.656.617 5.333 2.713 7.017z"/></g></svg>