<svg id="Capa_1" enable-background="new 0 0 512 512" height="512" viewBox="0 0 512 512" width="512" xmlns="http://www.w3.org/2000/svg"><g><path d="m304.097 416.839h-24.564v-48.613c0-8.556-6.96-15.516-15.516-15.516h-.517v-161.355h.516c8.556 0 15.516-6.96 15.516-15.516v-37.671c15.113-21.39 32.064-55.02 32.064-82.571.001-30.657-24.94-55.597-55.596-55.597s-55.597 24.94-55.597 55.597c0 12.453 3.407 26.912 10.126 42.976 1.598 3.822 5.992 5.624 9.813 4.025 3.821-1.598 5.624-5.992 4.025-9.813-5.864-14.021-8.964-26.88-8.964-37.188 0-22.386 18.212-40.597 40.597-40.597s40.597 18.211 40.597 40.597c0 22.122-13.946 51.778-28.441 72.662h-24.311c-2.012-2.905-4.014-5.984-5.975-9.197-2.157-3.535-6.771-4.654-10.309-2.495-3.536 2.158-4.653 6.773-2.495 10.309 2.418 3.963 4.902 7.736 7.401 11.276v37.688c0 8.556 6.96 15.516 15.516 15.516h.516v161.354h-.516c-8.556 0-15.516 6.96-15.516 15.516v48.613h-24.564c-17.396 0-31.548 14.152-31.548 31.548v56.113c0 4.142 3.358 7.5 7.5 7.5h144.29c4.142 0 7.5-3.358 7.5-7.5v-56.113c0-17.396-14.152-31.548-31.548-31.548zm-56.629-241v-32.581h17.064v32.581c0 .285-.231.516-.516.516h-16.032c-.285 0-.516-.231-.516-.516zm0 192.387c0-.285.231-.516.516-.516h16.032c.285 0 .516.231.516.516v48.613h-17.064zm73.177 128.774h-17.064v-8.532c0-12.976-10.557-23.532-23.532-23.532h-16.032c-4.142 0-7.5 3.358-7.5 7.5s3.358 7.5 7.5 7.5h16.032c4.705 0 8.532 3.828 8.532 8.532v8.532h-65.161v-8.532c0-4.705 3.828-8.532 8.532-8.532 4.142 0 7.5-3.358 7.5-7.5s-3.358-7.5-7.5-7.5c-12.976 0-23.532 10.557-23.532 23.532v8.532h-17.064v-48.613c0-9.125 7.423-16.548 16.548-16.548h96.193c9.125 0 16.548 7.423 16.548 16.548z"/></g></svg>