<svg id="Capa_1" enable-background="new 0 0 512 512" height="512" viewBox="0 0 512 512" width="512" xmlns="http://www.w3.org/2000/svg"><g><path d="m456.403 16.032h-400.806c-30.657 0-55.597 24.941-55.597 55.597v368.742c0 30.656 24.94 55.597 55.597 55.597h400.807c30.656 0 55.597-24.94 55.597-55.597v-368.742c-.001-30.656-24.941-55.597-55.598-55.597zm-113.211 110.636c-4.562-44.081-41.925-78.571-87.192-78.571-11.482 0-22.649 2.188-33.192 6.504-3.833 1.569-5.669 5.949-4.1 9.782s5.95 5.67 9.782 4.099c8.73-3.574 17.986-5.386 27.509-5.386 37.533 0 68.509 28.606 72.275 65.161h-33.433c-3.516-18.24-19.591-32.064-38.842-32.064-5.836 0-11.375 1.28-16.367 3.558l-6.899-9.717c-2.398-3.378-7.08-4.171-10.458-1.773-3.377 2.398-4.171 7.08-1.773 10.457l6.909 9.73c-5.146 5.385-8.79 12.211-10.255 19.808h-33.43c1.668-16.321 8.753-31.503 20.385-43.366 2.9-2.958 2.853-7.706-.105-10.606-2.957-2.9-7.706-2.853-10.606.105-14.023 14.303-22.569 32.605-24.589 52.281-5.617-2.649-9.523-8.35-9.523-14.961v-80.677h193.419v80.677c.002 6.61-3.901 12.31-9.515 14.959zm-87.192-15.474c10.93 0 20.211 7.177 23.389 17.064h-46.779c3.179-9.887 12.46-17.064 23.39-17.064zm241 329.177c0 22.385-18.211 40.597-40.597 40.597h-400.806c-22.386 0-40.597-18.212-40.597-40.597v-368.742c0-22.385 18.211-40.597 40.597-40.597h88.694v80.677c0 17.396 14.152 31.548 31.548 31.548h160.322c17.396 0 31.548-14.153 31.548-31.548v-80.677h88.694c22.385 0 40.597 18.212 40.597 40.597z"/><path d="m144.289 168.339c-20.755 0-40.178 10.203-51.955 27.293-11.778 17.09-14.398 38.872-7.01 58.268l26.132 68.595c5.596 14.689 7.188 30.65 4.604 46.156l-3.9 23.4c-2.321 13.927 1.582 28.094 10.708 38.868s22.459 16.953 36.579 16.953c26.434 0 47.94-21.506 47.94-47.94v-168.495c0-34.793-28.305-63.098-63.098-63.098zm48.098 231.592c0 18.163-14.777 32.94-32.94 32.94-9.702 0-18.863-4.246-25.134-11.648s-8.953-17.137-7.358-26.707l3.9-23.4c3.021-18.128 1.16-36.788-5.382-53.961l-26.131-68.595c-5.716-15.006-3.769-31.195 5.343-44.417 9.112-13.221 23.547-20.804 39.604-20.804 26.521 0 48.098 21.577 48.098 48.098z"/><path d="m367.711 168.339c-34.792 0-63.098 28.306-63.098 63.098 0 4.142 3.358 7.5 7.5 7.5s7.5-3.358 7.5-7.5c0-26.521 21.577-48.098 48.098-48.098 16.057 0 30.493 7.583 39.604 20.804 9.112 13.222 11.059 29.411 5.343 44.417l-26.132 68.595c-6.542 17.174-8.403 35.833-5.382 53.961l3.9 23.4c1.595 9.57-1.087 19.304-7.358 26.707s-15.432 11.648-25.134 11.648c-18.163 0-32.94-14.777-32.94-32.94v-135.915c0-4.142-3.358-7.5-7.5-7.5s-7.5 3.358-7.5 7.5v135.915c0 26.434 21.506 47.94 47.94 47.94 14.12 0 27.453-6.179 36.579-16.953 9.127-10.773 13.03-24.94 10.708-38.868l-3.9-23.4c-2.584-15.506-.993-31.466 4.604-46.156l26.132-68.595c7.389-19.396 4.768-41.178-7.01-58.268-11.776-17.089-31.199-27.292-51.954-27.292z"/></g></svg>