<svg id="Capa_1" enable-background="new 0 0 512 512" height="512" viewBox="0 0 512 512" width="512" xmlns="http://www.w3.org/2000/svg"><g><path d="m280.048 64.129h-40.081c-26.236 0-47.581 21.345-47.581 47.581 0 2.043.144 4.052.395 6.028-5.302 4.449-8.411 11.017-8.411 18.02v72.146c0 14.812 10.262 27.265 24.048 30.64v41.505c0 7.003 3.079 13.298 7.95 17.612l-7.944 206.551c-.159 4.139 3.067 7.624 7.207 7.783.098.003.196.005.293.005 4.009 0 7.333-3.171 7.489-7.212l7.74-201.228c.265.009.531.02.798.02h56.113c.268 0 .533-.011.798-.02l7.74 201.228c.156 4.041 3.48 7.212 7.489 7.212.098 0 .196-.002.293-.005 4.139-.159 7.366-3.644 7.207-7.783l-7.944-206.551c4.871-4.314 7.95-10.609 7.95-17.612v-41.829c9.308-3.139 16.032-11.946 16.032-22.3v-104.21c0-26.236-21.345-47.581-47.581-47.581zm-40.08 15h40.081c17.965 0 32.581 14.616 32.581 32.581s-14.616 32.581-32.581 32.581h-40.081c-17.965 0-32.581-14.616-32.581-32.581s14.616-32.581 32.581-32.581zm-8.016 209.452c-4.705 0-8.532-3.828-8.532-8.532v-8.532h40.597c8.556 0 15.516-6.96 15.516-15.516v-16.548h17.064v40.597c0 4.705-3.828 8.532-8.532 8.532h-56.113zm72.145-64.129h-48.097c-4.142 0-7.5 3.358-7.5 7.5s3.358 7.5 7.5 7.5h8.532v16.548c0 .285-.231.516-.516.516h-40.597v-17.064h.516c4.142 0 7.5-3.358 7.5-7.5s-3.358-7.5-7.5-7.5h-8.016c-9.125 0-16.548-7.423-16.548-16.548v-71.406c4.197 6.848 10.081 12.549 17.064 16.541v14.785c0 12.976 10.557 23.532 23.532 23.532 4.142 0 7.5-3.358 7.5-7.5s-3.358-7.5-7.5-7.5c-4.705 0-8.532-3.828-8.532-8.532v-9.313c2.77.504 5.619.781 8.532.781h40.081c12.598 0 24.06-4.931 32.581-12.952v69.581c0 4.703-3.828 8.531-8.532 8.531z"/><path d="m256 47.064c4.142 0 7.5-3.358 7.5-7.5v-32.064c0-4.142-3.358-7.5-7.5-7.5s-7.5 3.358-7.5 7.5v32.064c0 4.143 3.358 7.5 7.5 7.5z"/><path d="m193.179 50.935c1.314 2.628 3.962 4.147 6.714 4.147 1.127 0 2.271-.255 3.348-.793 3.705-1.852 5.207-6.357 3.354-10.062l-8.016-16.032c-1.852-3.705-6.356-5.208-10.062-3.354-3.705 1.852-5.207 6.357-3.354 10.062z"/><path d="m308.759 54.289c1.077.539 2.221.793 3.348.793 2.751 0 5.4-1.52 6.714-4.147l8.016-16.032c1.853-3.705.351-8.21-3.354-10.062-3.705-1.854-8.209-.35-10.062 3.354l-8.016 16.032c-1.853 3.704-.351 8.21 3.354 10.062z"/><path d="m148.437 161.115-16.032 8.016c-3.705 1.852-5.207 6.357-3.354 10.062 1.314 2.628 3.962 4.147 6.714 4.147 1.127 0 2.271-.255 3.348-.793l16.032-8.016c3.705-1.852 5.207-6.357 3.354-10.062s-6.357-5.207-10.062-3.354z"/><path d="m155.145 121.034-16.032-8.016c-3.705-1.853-8.21-.351-10.062 3.354-1.853 3.705-.351 8.21 3.354 10.062l16.032 8.016c1.077.539 2.221.793 3.348.793 2.751 0 5.4-1.52 6.714-4.147 1.852-3.705.351-8.21-3.354-10.062z"/><path d="m360.215 135.243c1.127 0 2.271-.255 3.348-.793l16.032-8.016c3.705-1.852 5.207-6.357 3.354-10.062-1.852-3.705-6.357-5.207-10.062-3.354l-16.032 8.016c-3.705 1.852-5.207 6.357-3.354 10.062 1.314 2.628 3.963 4.147 6.714 4.147z"/><path d="m379.596 169.131-16.032-8.016c-3.705-1.854-8.21-.351-10.062 3.354-1.853 3.705-.351 8.21 3.354 10.062l16.032 8.016c1.077.539 2.221.793 3.348.793 2.751 0 5.4-1.52 6.714-4.147 1.852-3.705.351-8.21-3.354-10.062z"/></g></svg>