<svg id="Capa_1" enable-background="new 0 0 512 512" height="512" viewBox="0 0 512 512" width="512" xmlns="http://www.w3.org/2000/svg"><g><path d="m264.016 192.387c-2.043 0-4.052.144-6.028.395-4.449-5.302-11.017-8.412-18.02-8.412h-72.145c-14.812 0-27.265 10.262-30.64 24.049h-41.506c-12.976 0-23.532 10.556-23.532 23.532v56.113c0 12.976 10.557 23.532 23.532 23.532h41.83c3.139 9.308 11.946 16.032 22.3 16.032h104.209c26.236 0 47.581-21.345 47.581-47.581v-40.081c0-26.234-21.345-47.579-47.581-47.579zm-176.871 95.677v-56.113c0-4.705 3.828-8.532 8.532-8.532h8.532v40.597c0 8.556 6.96 15.516 15.516 15.516h16.549v17.064h-40.597c-4.704.001-8.532-3.827-8.532-8.532zm64.129 16.033v-48.097c0-4.142-3.358-7.5-7.5-7.5s-7.5 3.358-7.5 7.5v8.532h-16.549c-.285 0-.516-.231-.516-.516v-40.597h17.065v.516c0 4.142 3.358 7.5 7.5 7.5s7.5-3.358 7.5-7.5v-8.016c0-9.125 7.423-16.549 16.548-16.549h71.407c-6.848 4.197-12.549 10.082-16.541 17.065h-14.785c-12.976 0-23.532 10.557-23.532 23.532 0 4.142 3.358 7.5 7.5 7.5s7.5-3.358 7.5-7.5c0-4.705 3.828-8.532 8.532-8.532h9.314c-.504 2.77-.781 5.619-.781 8.532v40.081c0 12.598 4.931 24.06 12.952 32.581h-69.581c-4.705 0-8.533-3.827-8.533-8.532zm145.323-24.049c0 17.965-14.616 32.581-32.581 32.581s-32.581-14.616-32.581-32.581v-40.081c0-17.965 14.616-32.581 32.581-32.581s32.581 14.615 32.581 32.581z"/><path d="m504.5 152.306c-17.965 0-32.581-14.615-32.581-32.581 0-4.142-3.358-7.5-7.5-7.5h-416.838c-4.142 0-7.5 3.358-7.5 7.5 0 17.965-14.616 32.581-32.581 32.581-4.142 0-7.5 3.358-7.5 7.5v192.387c0 4.142 3.358 7.5 7.5 7.5 17.965 0 32.581 14.615 32.581 32.581 0 4.142 3.358 7.5 7.5 7.5h416.839c4.142 0 7.5-3.358 7.5-7.5 0-17.965 14.616-32.581 32.581-32.581 4.142 0 7.5-3.358 7.5-7.5v-192.387c-.001-4.142-3.359-7.5-7.501-7.5zm-7.5 192.978c-20.243 3.218-36.272 19.248-39.49 39.49h-105.833v-17.064h40.597c4.142 0 7.5-3.358 7.5-7.5s-3.358-7.5-7.5-7.5h-40.597v-8.532c0-4.142-3.358-7.5-7.5-7.5s-7.5 3.358-7.5 7.5v8.532h-260.071c-7.038-12.225-17.314-22.501-29.542-29.541v-134.338c12.228-7.04 22.504-17.316 29.542-29.541h27.087c4.142 0 7.5-3.358 7.5-7.5s-3.358-7.5-7.5-7.5h-31.571c-2.844 0-5.444 1.609-6.712 4.155-6.26 12.561-16.626 22.928-29.191 29.19-2.545 1.269-4.154 3.868-4.154 6.712v143.304c0 2.844 1.609 5.444 4.154 6.712 12.564 6.263 22.931 16.629 29.191 29.19 1.269 2.546 3.868 4.155 6.712 4.155h264.555v17.064h-282.187c-3.218-20.243-19.248-36.272-39.49-39.49v-178.566c20.243-3.218 36.272-19.248 39.49-39.49h282.187v17.064h-200.919c-4.142 0-7.5 3.358-7.5 7.5s3.358 7.5 7.5 7.5h200.919v8.532c0 4.142 3.358 7.5 7.5 7.5s7.5-3.358 7.5-7.5v-8.532h83.717c7.038 12.225 17.314 22.501 29.542 29.541v134.337c-12.228 7.04-22.504 17.316-29.542 29.541h-11.055c-4.142 0-7.5 3.358-7.5 7.5s3.358 7.5 7.5 7.5h15.539c2.844 0 5.444-1.609 6.712-4.155 6.26-12.561 16.626-22.928 29.191-29.19 2.545-1.269 4.154-3.868 4.154-6.712v-143.304c0-2.844-1.609-5.444-4.154-6.712-12.564-6.263-22.931-16.629-29.191-29.19-1.269-2.546-3.868-4.155-6.712-4.155h-88.201v-17.064h105.833c3.218 20.243 19.248 36.272 39.49 39.49z"/><path d="m344.177 192.387c-4.142 0-7.5 3.358-7.5 7.5v16.032c0 4.142 3.358 7.5 7.5 7.5s7.5-3.358 7.5-7.5v-16.032c0-4.142-3.358-7.5-7.5-7.5z"/><path d="m344.177 288.581c-4.142 0-7.5 3.358-7.5 7.5v16.032c0 4.142 3.358 7.5 7.5 7.5s7.5-3.358 7.5-7.5v-16.032c0-4.143-3.358-7.5-7.5-7.5z"/><path d="m344.177 240.484c-4.142 0-7.5 3.358-7.5 7.5v16.032c0 4.142 3.358 7.5 7.5 7.5s7.5-3.358 7.5-7.5v-16.032c0-4.142-3.358-7.5-7.5-7.5z"/><path d="m384.258 231.436h48.097c4.142 0 7.5-3.358 7.5-7.5s-3.358-7.5-7.5-7.5h-48.097c-4.142 0-7.5 3.358-7.5 7.5s3.358 7.5 7.5 7.5z"/><path d="m439.855 288.064c0-4.142-3.358-7.5-7.5-7.5h-48.097c-4.142 0-7.5 3.358-7.5 7.5s3.358 7.5 7.5 7.5h48.097c4.142 0 7.5-3.357 7.5-7.5z"/><path d="m384.258 263.5h48.097c4.142 0 7.5-3.358 7.5-7.5s-3.358-7.5-7.5-7.5h-48.097c-4.142 0-7.5 3.358-7.5 7.5s3.358 7.5 7.5 7.5z"/></g></svg>