<svg id="Capa_1" enable-background="new 0 0 512 512" height="512" viewBox="0 0 512 512" width="512" xmlns="http://www.w3.org/2000/svg"><g><path d="m455.887 227.943v-40.081c0-12.976-10.557-23.532-23.532-23.532h-41.505c-3.375-13.786-15.829-24.048-30.641-24.048h-56.113c-6.851 0-13.29 2.968-17.731 8.059-12.484.531-23.482 6.873-30.365 16.385-6.883-9.512-17.881-15.854-30.365-16.385-4.441-5.092-10.881-8.059-17.731-8.059h-56.113c-14.812 0-27.265 10.262-30.641 24.048h-41.505c-12.976 0-23.532 10.557-23.532 23.532v40.081c0 12.976 10.557 23.532 23.532 23.532h41.829c3.139 9.308 11.946 16.033 22.3 16.033h80.161c13.182 0 24.871-6.486 32.064-16.428 7.194 9.942 18.883 16.428 32.064 16.428h80.161c10.354 0 19.161-6.724 22.3-16.033h41.829c12.978.001 23.534-10.556 23.534-23.532zm-64.129-48.612h17.064v24.564c0 .285-.231.516-.516.516h-16.548zm-320.645 48.612v-40.081c0-4.705 3.828-8.532 8.532-8.532h8.532v24.564c0 8.556 6.96 15.516 15.516 15.516h16.548v17.064h-40.596c-4.705.002-8.532-3.826-8.532-8.531zm64.129 16.033v-32.064c0-4.142-3.358-7.5-7.5-7.5h-24.048c-.285 0-.516-.231-.516-.516v-24.564h17.064v.516c0 4.142 3.358 7.5 7.5 7.5s7.5-3.358 7.5-7.5v-8.016c0-9.125 7.424-16.548 16.549-16.548h49.734c-6.131 4.23-11.016 10.14-13.98 17.064h-11.706c-12.976 0-23.532 10.557-23.532 23.532 0 4.142 3.358 7.5 7.5 7.5s7.5-3.358 7.5-7.5c0-4.705 3.828-8.532 8.532-8.532h8.545c-.002.173-.013.343-.013.516v40.081c0 9.277 3.218 17.811 8.584 24.565h-49.181c-4.705-.002-8.532-3.829-8.532-8.534zm88.694 8.532c-13.545 0-24.564-11.02-24.564-24.565v-40.081c0-13.545 11.02-24.564 24.564-24.564s24.564 11.02 24.564 24.564v40.081c0 13.545-11.02 24.565-24.564 24.565zm39.564-24.565v-40.081c0-13.545 11.02-24.564 24.564-24.564s24.564 11.02 24.564 24.564v40.081c0 13.545-11.02 24.565-24.564 24.565s-24.564-11.02-24.564-24.565zm104.726 24.565h-49.181c5.366-6.754 8.584-15.288 8.584-24.565v-40.081c0-.173-.011-.344-.013-.516h8.545c4.705 0 8.532 3.828 8.532 8.532 0 4.142 3.358 7.5 7.5 7.5s7.5-3.358 7.5-7.5c0-12.976-10.557-23.532-23.532-23.532h-11.706c-2.963-6.924-7.849-12.834-13.98-17.064h49.734c9.125 0 16.549 7.423 16.549 16.548v72.145c0 4.706-3.827 8.533-8.532 8.533zm72.661-24.565c0 4.705-3.828 8.532-8.532 8.532h-40.597v-17.064h16.548c8.556 0 15.516-6.96 15.516-15.516v-24.564h8.532c4.705 0 8.532 3.828 8.532 8.532v40.08z"/><path d="m233.26 127.088c1.314 2.628 3.962 4.147 6.714 4.147 1.127 0 2.271-.255 3.348-.793 3.705-1.852 5.207-6.357 3.354-10.062l-8.016-16.032c-1.853-3.705-6.356-5.208-10.062-3.354-3.705 1.852-5.207 6.357-3.354 10.062z"/><path d="m268.678 130.442c1.077.539 2.221.793 3.348.793 2.751 0 5.4-1.52 6.714-4.147l8.016-16.032c1.853-3.705.351-8.21-3.354-10.062-3.705-1.854-8.21-.35-10.062 3.354l-8.016 16.032c-1.852 3.704-.351 8.21 3.354 10.062z"/><path d="m278.74 288.719c-1.852-3.705-6.356-5.208-10.062-3.354-3.705 1.852-5.207 6.357-3.354 10.062l8.016 16.032c1.314 2.628 3.962 4.147 6.714 4.147 1.127 0 2.271-.255 3.348-.793 3.705-1.852 5.207-6.357 3.354-10.062z"/><path d="m243.322 285.365c-3.705-1.854-8.21-.35-10.062 3.354l-8.016 16.032c-1.853 3.705-.351 8.21 3.354 10.062 1.077.539 2.221.793 3.348.793 2.751 0 5.4-1.52 6.714-4.147l8.016-16.032c1.852-3.705.351-8.21-3.354-10.062z"/><path d="m456.403 52.105h-400.806c-30.657 0-55.597 24.94-55.597 55.597v296.597c0 30.656 24.94 55.597 55.597 55.597h400.807c30.656 0 55.597-24.94 55.597-55.597v-296.597c-.001-30.657-24.941-55.597-55.598-55.597zm0 392.79h-400.806c-22.386 0-40.597-18.211-40.597-40.597v-40.597h417.355c4.142 0 7.5-3.358 7.5-7.5s-3.358-7.5-7.5-7.5h-417.355v-241c0-22.385 18.211-40.597 40.597-40.597h400.807c22.385 0 40.597 18.211 40.597 40.597v241h-32.581c-4.142 0-7.5 3.358-7.5 7.5s3.358 7.5 7.5 7.5h32.58v40.597c0 22.386-18.211 40.597-40.597 40.597z"/><path d="m456.403 396.798h-314.377c-3.139-9.308-11.946-16.032-22.3-16.032s-19.16 6.724-22.3 16.032h-41.829c-4.142 0-7.5 3.358-7.5 7.5s3.358 7.5 7.5 7.5h41.829c3.139 9.308 11.946 16.032 22.3 16.032s19.161-6.724 22.3-16.032h314.378c4.142 0 7.5-3.358 7.5-7.5s-3.359-7.5-7.501-7.5zm-336.677 16.033c-4.705 0-8.532-3.828-8.532-8.532s3.828-8.532 8.532-8.532c4.705 0 8.533 3.828 8.533 8.532s-3.828 8.532-8.533 8.532z"/></g></svg>