<svg id="Capa_1" enable-background="new 0 0 512 512" height="512" viewBox="0 0 512 512" width="512" xmlns="http://www.w3.org/2000/svg"><g><path d="m352.193 0h-192.386c-21.816 0-39.565 17.749-39.565 39.564v432.871c0 21.816 17.749 39.564 39.565 39.564h192.387c21.816 0 39.565-17.749 39.565-39.564v-432.871c-.001-21.815-17.749-39.564-39.566-39.564zm-144.806 15h97.226v8.532c0 4.705-3.828 8.532-8.532 8.532h-80.161c-4.705 0-8.532-3.828-8.532-8.532v-8.532zm169.371 457.436c0 13.545-11.02 24.564-24.565 24.564h-192.386c-13.545 0-24.565-11.02-24.565-24.564v-432.872c0-13.545 11.02-24.564 24.565-24.564h32.581v8.532c0 12.976 10.557 23.532 23.532 23.532h80.161c12.976 0 23.532-10.557 23.532-23.532v-8.532h32.581c13.545 0 24.565 11.02 24.565 24.564v432.872z"/><path d="m208.419 328.145c0 12.976 10.557 23.532 23.532 23.532h56.113c12.976 0 23.532-10.557 23.532-23.532v-41.829c9.308-3.139 16.032-11.946 16.032-22.3v-104.209c0-26.236-21.345-47.581-47.581-47.581h-40.081c-26.236 0-47.581 21.345-47.581 47.581 0 2.043.144 4.052.395 6.028-5.302 4.449-8.411 11.017-8.411 18.02v72.145c0 14.812 10.262 27.265 24.048 30.64v41.505zm79.645 8.532h-56.113c-4.705 0-8.532-3.828-8.532-8.532v-8.532h40.597c8.556 0 15.516-6.96 15.516-15.516v-16.548h17.064v40.597c.001 4.704-3.827 8.531-8.532 8.531zm-48.096-209.451h40.081c17.965 0 32.581 14.616 32.581 32.581s-14.616 32.581-32.581 32.581h-40.081c-17.965 0-32.581-14.616-32.581-32.581 0-17.966 14.616-32.581 32.581-32.581zm-40.597 128.774v-71.406c4.197 6.848 10.081 12.549 17.064 16.541v14.785c0 12.976 10.557 23.532 23.532 23.532 4.142 0 7.5-3.358 7.5-7.5s-3.358-7.5-7.5-7.5c-4.705 0-8.532-3.828-8.532-8.532v-9.313c2.77.504 5.619.781 8.532.781h40.081c12.598 0 24.06-4.931 32.581-12.952v69.581c0 4.705-3.828 8.532-8.532 8.532h-48.097c-4.142 0-7.5 3.358-7.5 7.5s3.358 7.5 7.5 7.5h8.532v16.548c0 .285-.231.516-.516.516h-40.597v-17.064h.516c4.142 0 7.5-3.358 7.5-7.5s-3.358-7.5-7.5-7.5h-8.016c-9.125-.001-16.548-7.424-16.548-16.549z"/><path d="m336.161 80.161h-160.322c-12.976 0-23.532 10.557-23.532 23.532v256.516c0 12.976 10.557 23.532 23.532 23.532h160.322c12.976 0 23.532-10.557 23.532-23.532v-208.418c0-4.142-3.358-7.5-7.5-7.5s-7.5 3.358-7.5 7.5v208.419c0 4.705-3.828 8.532-8.532 8.532h-160.322c-4.705 0-8.532-3.828-8.532-8.532v-256.517c0-4.705 3.828-8.532 8.532-8.532h160.322c4.705 0 8.532 3.828 8.532 8.532v16.032c0 4.142 3.358 7.5 7.5 7.5s7.5-3.358 7.5-7.5v-16.032c0-12.975-10.556-23.532-23.532-23.532z"/><path d="m287.555 433.663-48.097-24.048c-2.326-1.163-5.087-1.038-7.297.328-2.211 1.367-3.557 3.781-3.557 6.38v48.097c0 2.599 1.346 5.013 3.557 6.38 2.214 1.369 4.976 1.489 7.297.328l48.097-24.048c2.541-1.27 4.146-3.867 4.146-6.708s-1.605-5.439-4.146-6.709zm-43.951 18.621v-23.826l23.826 11.913z"/><path d="m198.111 420.179c-2.297-3.447-6.954-4.377-10.4-2.08l-24.048 16.032c-2.086 1.391-3.34 3.732-3.34 6.24s1.253 4.85 3.34 6.24l24.048 16.032c3.401 2.28 8.089 1.393 10.4-2.08 2.298-3.446 1.367-8.103-2.08-10.4l-14.688-9.792 14.688-9.792c3.447-2.297 4.378-6.954 2.08-10.4z"/><path d="m348.337 434.131-24.048-16.032c-3.447-2.298-8.103-1.367-10.4 2.08-2.298 3.446-1.367 8.103 2.08 10.4l14.688 9.792-14.688 9.792c-3.447 2.297-4.378 6.954-2.08 10.4 2.312 3.473 7 4.36 10.4 2.08l24.048-16.032c2.086-1.391 3.34-3.732 3.34-6.24s-1.253-4.85-3.34-6.24z"/></g></svg>