<svg id="Capa_1" enable-background="new 0 0 512 512" height="512" viewBox="0 0 512 512" width="512" xmlns="http://www.w3.org/2000/svg"><g><path d="m408.307 48.097h-57.862c-3.139-9.308-11.946-16.032-22.3-16.032h-27.493c-3.223 0-6.125-2.288-7.391-5.829-5.614-15.693-20.588-26.236-37.261-26.236s-31.647 10.543-37.261 26.236c-1.266 3.541-4.167 5.829-7.391 5.829h-27.493c-10.353 0-19.16 6.724-22.3 16.032h-57.862c-21.816 0-39.564 17.749-39.564 39.564v384.774c0 21.816 17.749 39.564 39.564 39.564h304.613c21.816 0 39.564-17.749 39.564-39.564v-384.774c.001-21.816-17.747-39.564-39.563-39.564zm-224.452-1.033h27.493c9.642 0 18.086-6.193 21.514-15.776 3.486-9.743 12.784-16.288 23.138-16.288s19.652 6.545 23.137 16.288c3.428 9.584 11.873 15.777 21.515 15.777h27.493c4.705 0 8.532 3.828 8.532 8.532v24.564h-120.758c-4.142 0-7.5 3.358-7.5 7.5s3.358 7.5 7.5 7.5h184.887v369.774h-289.613v-369.774h72.662c4.142 0 7.5-3.358 7.5-7.5s-3.358-7.5-7.5-7.5h-8.532v-24.564c0-4.705 3.827-8.533 8.532-8.533zm249.016 425.372c0 13.545-11.02 24.564-24.564 24.564h-304.614c-13.545 0-24.564-11.02-24.564-24.564v-384.775c0-13.545 11.02-24.564 24.564-24.564h56.629v17.064h-56.629c-4.142 0-7.5 3.358-7.5 7.5v384.774c0 4.142 3.358 7.5 7.5 7.5h304.613c4.142 0 7.5-3.358 7.5-7.5v-384.774c0-4.142-3.358-7.5-7.5-7.5h-56.629v-17.064h56.629c13.545 0 24.564 11.02 24.564 24.564v384.775z"/><path d="m256 55.081c4.142 0 7.5-3.358 7.5-7.5v-8.016c0-4.142-3.358-7.5-7.5-7.5s-7.5 3.358-7.5 7.5v8.016c0 4.142 3.358 7.5 7.5 7.5z"/><path d="m168.339 167.823v8.016c0 12.976 10.557 23.532 23.532 23.532h24.048c3.009 0 5.885-.574 8.532-1.608v18.156c0 4.705-3.828 8.532-8.532 8.532h-40.081c-9.125 0-16.548-7.423-16.548-16.548v-32.064c0-4.142-3.358-7.5-7.5-7.5s-7.5 3.358-7.5 7.5v32.064c0 14.812 10.262 27.265 24.048 30.64v17.457c0 8.556 6.96 15.516 15.516 15.516h32.064c8.556 0 15.516-6.96 15.516-15.516v-22.411c4.909-4.316 8.016-10.635 8.016-17.67v-48.097c0-12.976-10.557-23.532-23.532-23.532h-24.048c-12.974.001-23.531 10.557-23.531 23.533zm48.097 88.177c0 .285-.231.516-.516.516h-32.064c-.285 0-.516-.231-.516-.516v-16.548h32.581c.173 0 .344-.009.516-.013v16.561zm-33.097-88.177c0-4.705 3.828-8.532 8.532-8.532h24.048c4.705 0 8.532 3.828 8.532 8.532v8.016c0 4.705-3.828 8.532-8.532 8.532h-24.048c-4.705 0-8.532-3.828-8.532-8.532z"/><path d="m215.919 296.597h-24.048c-12.976 0-23.532 10.557-23.532 23.532v8.016c0 12.976 10.557 23.532 23.532 23.532h24.048c3.009 0 5.885-.574 8.532-1.608v18.156c0 4.705-3.828 8.533-8.532 8.533h-40.081c-9.125 0-16.548-7.424-16.548-16.549v-32.064c0-4.142-3.358-7.5-7.5-7.5s-7.5 3.358-7.5 7.5v32.064c0 14.812 10.262 27.265 24.048 30.641v17.457c0 8.556 6.96 15.516 15.516 15.516h32.064c8.556 0 15.516-6.96 15.516-15.516v-22.411c4.909-4.316 8.016-10.635 8.016-17.67v-48.097c.002-12.976-10.555-23.532-23.531-23.532zm0 40.08h-24.048c-4.705 0-8.532-3.828-8.532-8.532v-8.016c0-4.705 3.828-8.532 8.532-8.532h24.048c4.705 0 8.532 3.828 8.532 8.532v8.016c.001 4.705-3.827 8.532-8.532 8.532zm.517 71.63c0 .285-.231.516-.516.516h-32.064c-.285 0-.516-.231-.516-.516v-16.548h32.581c.173 0 .344-.009.516-.013v16.561z"/><path d="m272.032 183.339h56.113c4.142 0 7.5-3.358 7.5-7.5s-3.358-7.5-7.5-7.5h-56.113c-4.142 0-7.5 3.358-7.5 7.5s3.358 7.5 7.5 7.5z"/><path d="m272.032 223.419h88.177c4.142 0 7.5-3.358 7.5-7.5s-3.358-7.5-7.5-7.5h-88.177c-4.142 0-7.5 3.358-7.5 7.5s3.358 7.5 7.5 7.5z"/><path d="m272.032 335.645h56.113c4.142 0 7.5-3.358 7.5-7.5s-3.358-7.5-7.5-7.5h-56.113c-4.142 0-7.5 3.358-7.5 7.5s3.358 7.5 7.5 7.5z"/><path d="m272.032 375.726h88.177c4.142 0 7.5-3.358 7.5-7.5s-3.358-7.5-7.5-7.5h-88.177c-4.142 0-7.5 3.358-7.5 7.5s3.358 7.5 7.5 7.5z"/></g></svg>