<svg id="Capa_1" enable-background="new 0 0 512 512" height="512" viewBox="0 0 512 512" width="512" xmlns="http://www.w3.org/2000/svg"><g><path d="m493.771 90.374-64.129-64.129c-1.147-1.147-2.636-1.892-4.243-2.122l-168.338-24.048c-.703-.101-1.418-.101-2.121 0l-168.339 24.049c-1.606.229-3.095.974-4.243 2.122l-64.129 64.128c-1.462 1.462-2.256 3.463-2.193 5.53.083 2.749 2.386 68.285 32.498 152.598 17.688 49.527 41.359 95.155 70.356 135.616 36.292 50.64 81.058 93.265 133.054 126.691 1.236.794 2.646 1.191 4.056 1.191s2.82-.397 4.056-1.191c51.997-33.426 96.762-76.051 133.054-126.691 28.997-40.461 52.668-86.088 70.356-135.616 30.112-84.313 32.415-149.849 32.498-152.598.063-2.066-.73-4.067-2.193-5.53zm-362.5 285.269c-28.172-39.256-51.197-83.564-68.436-131.694-25.767-71.944-30.78-131.238-31.643-145.325l60.005-60.004 157.303-22.472v17.241l-146.783 20.968c-1.606.229-3.095.974-4.243 2.121l-46.152 46.147c-1.593 1.593-2.386 3.819-2.159 6.061 5.586 55.065 36.464 242.953 199.336 360.931v20.884c-45.403-31.099-84.802-69.675-117.228-114.858zm317.894-131.694c-17.238 48.13-40.263 92.438-68.436 131.694-32.426 45.183-71.824 83.76-117.229 114.858v-20.869c112.617-81.574 162.287-196.77 184.126-279.414 1.059-4.004-1.33-8.109-5.335-9.167-4.003-1.06-8.109 1.33-9.167 5.335-21.129 79.958-68.993 191.238-177.124 270.167-66.695-48.675-117.935-114.946-152.34-197.051-27.358-65.287-36.387-123.567-39.196-148.804l41.85-41.846 149.686-21.383 149.687 21.383 41.847 41.846c-1.087 9.792-3.045 24.104-6.499 41.499-.807 4.062 1.833 8.01 5.896 8.817 4.06.804 8.01-1.833 8.817-5.896 4.009-20.194 6.066-36.396 7.084-46.432.228-2.242-.565-4.468-2.158-6.061l-46.148-46.147c-1.147-1.147-2.636-1.892-4.243-2.122l-146.783-20.968v-17.24l157.303 22.472 60.004 60.004c-.863 14.094-5.877 73.386-31.642 145.325z"/><path d="m296.081 104.21h-72.145c-21.816 0-39.564 17.749-39.564 39.565v12.625c-9.763 5.526-16.032 15.969-16.032 27.456v72.144c0 19.251 13.824 35.327 32.064 38.842v57.351c0 12.976 10.557 23.532 23.532 23.532h64.129c12.976 0 23.532-10.557 23.532-23.532v-57.537c13.786-3.375 24.048-15.829 24.048-30.64v-120.241c0-21.817-17.748-39.565-39.564-39.565zm-96.71 39.565c0-13.545 11.02-24.565 24.564-24.565h72.145c13.545 0 24.564 11.02 24.564 24.565v24.048c0 13.545-11.02 24.564-24.564 24.564h-72.145c-13.545 0-24.564-11.02-24.564-24.564zm88.694 216.951h-64.129c-4.705 0-8.532-3.828-8.532-8.532v-8.532h40.596c12.976 0 23.532-10.557 23.532-23.532v-24.564h17.064v56.629c.001 4.703-3.827 8.531-8.531 8.531zm16.032-80.161h-47.897c-4.142 0-7.5 3.358-7.5 7.5s3.358 7.5 7.5 7.5h8.332v24.564c0 4.705-3.828 8.532-8.532 8.532h-40.597v-33.097h8.732c4.142 0 7.5-3.358 7.5-7.5s-3.358-7.5-7.5-7.5h-16.232c-13.545 0-24.564-11.02-24.564-24.564v-72.145c0-2.749.691-5.381 1.92-7.711 2.721 12.656 11.507 23.082 23.16 28.07v19.722c0 12.976 10.557 23.532 23.532 23.532 4.142 0 7.5-3.358 7.5-7.5s-3.358-7.5-7.5-7.5c-4.705 0-8.532-3.828-8.532-8.532v-16.561c.173.002.343.013.516.013h72.145c9.276 0 17.811-3.217 24.564-8.584v65.213c.001 9.124-7.422 16.548-16.547 16.548z"/></g></svg>