<svg id="Capa_1" enable-background="new 0 0 512 512" height="512" viewBox="0 0 512 512" width="512" xmlns="http://www.w3.org/2000/svg"><g><path d="m508.244 249.501-56.394-32.489 39.724-51.563c1.639-2.127 2.015-4.968.987-7.449-1.028-2.48-3.304-4.222-5.967-4.566l-64.553-8.346 16.921-62.85c.697-2.59-.042-5.356-1.939-7.253-1.896-1.897-4.663-2.636-7.252-1.939l-62.852 16.917-8.347-64.556c-.344-2.663-2.086-4.938-4.566-5.967-2.48-1.028-5.321-.652-7.448.987l-51.569 39.723-32.49-56.395c-1.339-2.323-3.817-3.755-6.499-3.755s-5.16 1.432-6.499 3.756l-32.489 56.394-51.563-39.724c-2.127-1.639-4.967-2.015-7.449-.987-2.48 1.028-4.222 3.304-4.566 5.967l-8.346 64.553-62.85-16.921c-2.592-.698-5.356.042-7.253 1.939s-2.636 4.662-1.939 7.253l16.917 62.852-64.556 8.347c-2.663.344-4.938 2.086-5.966 4.566-1.028 2.481-.652 5.322.987 7.449l39.722 51.568-56.395 32.49c-2.323 1.338-3.755 3.816-3.755 6.498s1.432 5.16 3.756 6.499l56.394 32.489-39.724 51.563c-1.639 2.127-2.015 4.968-.987 7.449 1.028 2.48 3.304 4.222 5.967 4.566l64.553 8.346-16.921 62.85c-.697 2.59.042 5.356 1.939 7.253 1.896 1.897 4.663 2.636 7.252 1.939l62.852-16.917 8.347 64.556c.344 2.663 2.086 4.938 4.566 5.966 2.48 1.029 5.321.651 7.448-.987l51.569-39.722 32.49 56.395c1.339 2.323 3.817 3.755 6.499 3.755s5.16-1.432 6.499-3.756l32.489-56.394 51.563 39.724c2.127 1.639 4.968 2.016 7.449.987 2.48-1.028 4.222-3.304 4.566-5.967l8.346-64.553 62.85 16.921c2.591.696 5.355-.042 7.253-1.939 1.897-1.896 2.636-4.662 1.939-7.252l-16.917-62.852 64.556-8.347c2.663-.344 4.938-2.086 5.966-4.566 1.028-2.481.652-5.322-.987-7.449l-39.722-51.568 56.395-32.49c2.323-1.339 3.755-3.817 3.755-6.499s-1.432-5.16-3.756-6.499zm-71.314 36.771c-1.875 1.08-3.191 2.917-3.612 5.039s.095 4.323 1.415 6.036l36.99 48.022-60.121 7.774c-2.146.277-4.068 1.469-5.271 3.268-1.204 1.799-1.571 4.03-1.009 6.12l15.762 58.561-58.56-15.766c-2.091-.562-4.321-.195-6.12 1.009-1.799 1.203-2.99 3.125-3.268 5.272l-7.772 60.118-48.017-36.992c-1.714-1.321-3.917-1.837-6.037-1.415-2.122.421-3.959 1.738-5.039 3.612l-30.271 52.546-30.272-52.545c-1.08-1.875-2.917-3.191-5.039-3.612-.485-.096-.974-.144-1.46-.144-1.642 0-3.254.54-4.577 1.559l-48.022 36.99-7.774-60.121c-.277-2.146-1.469-4.068-3.268-5.272-1.798-1.204-4.031-1.572-6.12-1.009l-58.561 15.762 15.766-58.56c.562-2.09.195-4.321-1.009-6.12-1.203-1.799-3.125-2.99-5.272-3.268l-60.118-7.772 36.992-48.016c1.32-1.714 1.836-3.915 1.415-6.037s-1.738-3.959-3.612-5.039l-52.545-30.272 52.545-30.272c1.875-1.08 3.191-2.917 3.612-5.039s-.095-4.323-1.415-6.036l-36.99-48.022 60.121-7.774c2.146-.277 4.068-1.469 5.271-3.268 1.204-1.799 1.571-4.03 1.009-6.12l-15.761-58.561 58.56 15.766c2.091.563 4.322.195 6.12-1.009 1.799-1.203 2.99-3.125 3.268-5.272l7.772-60.118 48.017 36.992c1.714 1.32 3.916 1.836 6.037 1.415 2.122-.421 3.959-1.738 5.039-3.613l30.271-52.545 30.272 52.546c1.08 1.875 2.917 3.192 5.039 3.613 2.122.42 4.323-.095 6.037-1.415l48.022-36.991 7.774 60.121c.277 2.146 1.469 4.068 3.268 5.272 1.798 1.203 4.03 1.571 6.12 1.009l58.561-15.762-15.766 58.56c-.562 2.09-.195 4.321 1.009 6.12 1.203 1.799 3.125 2.99 5.272 3.268l60.118 7.772-36.992 48.016c-1.32 1.714-1.836 3.915-1.415 6.037s1.738 3.959 3.612 5.039l52.545 30.271z"/><path d="m159.99 369.411-23.76 6.358 19.628-73.35c.877-3.277-.555-6.735-3.493-8.433l-65.744-37.986 65.745-37.987c2.938-1.697 4.37-5.155 3.493-8.433l-19.628-73.35 73.35 19.628c3.279.877 6.736-.555 8.433-3.493l37.986-65.744 37.987 65.746c1.698 2.938 5.156 4.37 8.433 3.493l19.648-5.258c4.001-1.071 6.377-5.183 5.306-9.184-1.071-4.002-5.185-6.375-9.184-5.306l-14.092 3.771-41.604-72.005c-1.34-2.319-3.815-3.748-6.494-3.748s-5.154 1.428-6.494 3.748l-41.604 72.005-80.333-21.497c-2.587-.692-5.348.048-7.242 1.942s-2.634 4.655-1.942 7.242l21.497 80.334-72.005 41.604c-2.319 1.34-3.748 3.815-3.748 6.494s1.429 5.154 3.748 6.494l72.005 41.604-21.497 80.334c-.692 2.588.048 5.348 1.942 7.242 1.425 1.425 3.34 2.197 5.304 2.197.646 0 1.297-.084 1.938-.255l36.299-9.714c4.001-1.071 6.377-5.183 5.306-9.184-1.07-4.004-5.184-6.38-9.184-5.309z"/><path d="m393.615 127.569c.692-2.588-.048-5.348-1.942-7.242s-4.653-2.634-7.242-1.942l-34.177 9.146c-4.001 1.071-6.377 5.183-5.306 9.184 1.071 4.002 5.185 6.377 9.184 5.306l21.637-5.79-19.628 73.35c-.877 3.277.555 6.735 3.493 8.433l65.745 37.986-65.745 37.987c-2.938 1.697-4.37 5.155-3.493 8.433l19.628 73.35-73.35-19.628c-3.278-.876-6.735.556-8.433 3.493l-37.986 65.744-37.987-65.746c-1.697-2.938-5.154-4.369-8.433-3.493l-18.085 4.84c-4.001 1.071-6.377 5.183-5.306 9.184 1.071 4.002 5.185 6.376 9.184 5.306l12.53-3.353 41.604 72.005c1.34 2.319 3.815 3.748 6.494 3.748s5.154-1.429 6.494-3.748l41.604-72.005 80.333 21.497c2.59.693 5.349-.048 7.242-1.942 1.894-1.894 2.634-4.655 1.942-7.242l-21.497-80.334 72.005-41.604c2.319-1.34 3.748-3.815 3.748-6.494s-1.429-5.154-3.748-6.494l-72.005-41.604z"/><path d="m195.66 293.969v-24.354l30.838 29.751c1.456 1.404 3.332 2.103 5.207 2.103 1.964 0 3.927-.767 5.398-2.293 2.876-2.981 2.791-7.729-.19-10.605l-35.384-34.137 32.556-29.925c3.049-2.803 3.249-7.548.446-10.597s-7.547-3.249-10.598-.446l-28.274 25.989v-21.425c0-4.142-3.358-7.5-7.5-7.5s-7.5 3.358-7.5 7.5v75.939c0 4.142 3.358 7.5 7.5 7.5s7.501-3.357 7.501-7.5z"/><path d="m294.766 210.531c-25.072 0-45.469 20.397-45.469 45.469s20.397 45.469 45.469 45.469 45.47-20.397 45.47-45.469-20.398-45.469-45.47-45.469zm0 75.938c-16.801 0-30.469-13.668-30.469-30.469s13.668-30.469 30.469-30.469 30.47 13.668 30.47 30.469-13.669 30.469-30.47 30.469z"/></g></svg>