<svg id="Capa_1" enable-background="new 0 0 512 512" height="512" viewBox="0 0 512 512" width="512" xmlns="http://www.w3.org/2000/svg"><g><path d="m446.383 448.903h-.517v-329.177c0-66.017-53.708-119.726-119.725-119.726h-144.291c-8.556 0-15.516 6.96-15.516 15.516v16.032c0 8.556 6.96 15.516 15.516 15.516h10.141c-1.034 2.647-1.608 5.523-1.608 8.532 0 3.529.786 6.876 2.184 9.884-82.495 10.52-146.474 81.165-146.474 166.472 0 36.332 11.932 71.927 33.689 100.856l-30.802 30.801c-4.446 4.444-6.895 10.354-6.895 16.641s2.449 12.196 6.89 16.635c4.442 4.448 10.352 6.897 16.642 6.897s12.2-2.449 16.639-6.894l30.8-30.8c29.233 22.051 63.996 33.686 100.86 33.686 92.538 0 167.822-75.285 167.822-167.823 0-85.307-63.979-155.952-146.474-166.471 1.398-3.007 2.184-6.354 2.184-9.884 0-3.009-.574-5.885-1.608-8.532h90.301c40.065 0 72.661 32.596 72.661 72.661v280.565c0 4.143 3.358 7.5 7.5 7.5s7.5-3.357 7.5-7.5v-280.564c0-48.336-39.325-87.661-87.661-87.661h-144.291c-.285 0-.516-.231-.516-.516v-16.033c0-.285.231-.516.516-.516h144.291c57.746 0 104.726 46.979 104.726 104.726v329.178h-17.064v-16.549c0-4.142-3.358-7.5-7.5-7.5s-7.5 3.358-7.5 7.5v16.549h-224.969c-12.976 0-23.532 10.556-23.532 23.532v32.064c0 4.142 3.358 7.5 7.5 7.5h304.613c4.142 0 7.5-3.358 7.5-7.5v-32.064c0-12.976-10.556-23.533-23.532-23.533zm-374.738-62.618c-1.608 1.61-3.75 2.497-6.029 2.497s-4.42-.887-6.033-2.502c-1.611-1.61-2.499-3.752-2.499-6.03s.887-4.42 2.5-6.032l109.473-109.473c3.381 4.612 7.452 8.683 12.064 12.064zm101.673-154.333c0-22.385 18.212-40.597 40.597-40.597s40.597 18.212 40.597 40.597-18.211 40.597-40.597 40.597-40.597-18.212-40.597-40.597zm193.42 0c0 84.267-68.556 152.823-152.822 152.823-32.859 0-63.886-10.143-90.146-29.4l71.165-71.166c5.926 2.159 12.317 3.34 18.98 3.34 30.656 0 55.597-24.941 55.597-55.597s-24.94-55.597-55.597-55.597-55.597 24.941-55.597 55.597c0 6.663 1.181 13.055 3.34 18.98l-48.129 48.129c-13.336-19.871-20.372-42.923-20.372-67.109 0-66.586 54.172-120.758 120.758-120.758s120.758 54.172 120.758 120.758-54.172 120.758-120.758 120.758c-15.663 0-30.898-2.953-45.284-8.775-3.839-1.554-8.212.298-9.766 4.138s.298 8.212 4.138 9.767c16.182 6.55 33.311 9.871 50.912 9.871 74.857 0 135.758-60.901 135.758-135.758s-60.901-135.76-135.758-135.76-135.758 60.901-135.758 135.758c0 28.187 8.49 55.014 24.578 77.903l-12.24 12.24c-19.259-26.255-29.403-57.27-29.403-90.143 0-84.267 68.556-152.823 152.823-152.823s152.823 68.557 152.823 152.824zm-144.29-176.355c0 4.705-3.828 8.532-8.532 8.532s-8.532-3.827-8.532-8.532 3.828-8.532 8.532-8.532 8.532 3.827 8.532 8.532zm232.467 441.403h-289.613v-24.564c0-4.705 3.828-8.532 8.532-8.532h272.549c4.705 0 8.532 3.828 8.532 8.532z"/></g></svg>