<svg id="Capa_1" enable-background="new 0 0 512 512" height="512" viewBox="0 0 512 512" width="512" xmlns="http://www.w3.org/2000/svg"><g><path d="m479.936 64.851v-9.254c0-12.976-10.557-23.532-23.532-23.532s-23.532 10.557-23.532 23.532v8.532h-33.097v-8.532c0-12.976-10.557-23.532-23.533-23.532s-23.532 10.557-23.532 23.532v8.532h-33.097v-8.532c0-12.976-10.557-23.532-23.532-23.532s-23.532 10.557-23.532 23.532v8.532h-33.097v-8.532c0-12.976-10.557-23.532-23.532-23.532s-23.532 10.557-23.532 23.532v8.532h-33.097v-8.532c0-12.976-10.557-23.532-23.533-23.532s-23.532 10.557-23.532 23.532v8.532h-33.097v-8.532c0-12.976-10.557-23.532-23.532-23.532s-23.533 10.556-23.533 23.532v9.254c-18.24 3.516-32.064 19.591-32.064 38.842v336.678c0 21.816 17.749 39.564 39.564 39.564h432.871c21.816 0 39.564-17.749 39.564-39.564v-336.678c.001-19.251-13.823-35.326-32.063-38.842zm-32.065-9.254c0-4.705 3.828-8.532 8.532-8.532s8.532 3.828 8.532 8.532v8.532h-17.064zm-80.162 0c0-4.705 3.828-8.532 8.533-8.532s8.532 3.828 8.532 8.532v8.532h-17.065zm-80.161 0c0-4.705 3.828-8.532 8.532-8.532s8.532 3.828 8.532 8.532v8.532h-17.064zm-80.161 0c0-4.705 3.828-8.532 8.532-8.532s8.532 3.828 8.532 8.532v8.532h-17.064zm-80.161 0c0-4.705 3.828-8.532 8.533-8.532s8.532 3.828 8.532 8.532v8.532h-17.065zm-71.629-8.533c4.705 0 8.532 3.828 8.532 8.532v8.532h-17.065v-8.532c0-4.704 3.828-8.532 8.533-8.532zm416.839 417.872h-432.872c-13.544 0-24.564-11.02-24.564-24.565v-313.145h425.371c4.142 0 7.5-3.358 7.5-7.5s-3.358-7.5-7.5-7.5h-425.371v-8.532c0-13.545 11.02-24.564 24.564-24.564h432.871c13.545 0 24.564 11.02 24.564 24.564v8.532h-24.564c-4.142 0-7.5 3.358-7.5 7.5s3.358 7.5 7.5 7.5h24.565v313.146c0 13.544-11.02 24.564-24.564 24.564z"/><path d="m298.04 160.323h-72.146c-21.816 0-39.564 17.749-39.564 39.564v12.625c-9.763 5.526-16.032 15.969-16.032 27.456v72.145c0 19.251 13.824 35.327 32.064 38.842v57.352c0 12.976 10.557 23.532 23.532 23.532h64.129c12.976 0 23.532-10.557 23.532-23.532v-57.538c13.786-3.375 24.048-15.829 24.048-30.64v-120.242c.001-21.816-17.748-39.564-39.563-39.564zm-96.71 39.564c0-13.545 11.02-24.564 24.564-24.564h72.146c13.545 0 24.564 11.02 24.564 24.564v24.048c0 13.545-11.02 24.564-24.564 24.564h-72.146c-13.545 0-24.564-11.02-24.564-24.564zm88.693 216.952h-64.129c-4.705 0-8.532-3.828-8.532-8.532v-8.532h40.597c12.976 0 23.532-10.557 23.532-23.533v-24.564h17.065v56.629c0 4.704-3.828 8.532-8.533 8.532zm16.033-80.162h-47.897c-4.142 0-7.5 3.358-7.5 7.5s3.358 7.5 7.5 7.5h8.332v24.564c0 4.705-3.828 8.533-8.532 8.533h-40.597v-33.097h8.732c4.142 0 7.5-3.358 7.5-7.5s-3.358-7.5-7.5-7.5h-16.232c-13.545 0-24.564-11.02-24.564-24.564v-72.145c0-2.749.691-5.381 1.92-7.711 2.721 12.656 11.507 23.082 23.16 28.07v19.722c0 12.976 10.557 23.532 23.532 23.532 4.142 0 7.5-3.358 7.5-7.5s-3.358-7.5-7.5-7.5c-4.705 0-8.532-3.828-8.532-8.532v-16.562c.173.002.343.013.516.013h72.146c9.276 0 17.811-3.218 24.564-8.584v65.213c0 9.125-7.423 16.548-16.548 16.548z"/><path d="m136.837 268.865-23.793-3.458-10.641-21.56c-1.264-2.56-3.871-4.181-6.726-4.181s-5.462 1.621-6.726 4.181l-10.64 21.56-23.793 3.458c-2.825.41-5.172 2.389-6.054 5.104s-.146 5.695 1.898 7.688l17.217 16.782-4.064 23.697c-.482 2.814.674 5.658 2.984 7.335 1.307.95 2.854 1.433 4.409 1.433 1.193 0 2.392-.285 3.489-.861l21.281-11.188 21.281 11.188c2.529 1.328 5.59 1.107 7.898-.571 2.31-1.678 3.466-4.521 2.984-7.335l-4.064-23.697 17.217-16.782c2.044-1.993 2.78-4.973 1.898-7.688-.883-2.716-3.23-4.695-6.055-5.105zm-26.354 21.586c-1.768 1.723-2.575 4.206-2.157 6.639l2.162 12.605-11.32-5.952c-1.093-.574-2.292-.861-3.49-.861s-2.397.287-3.49.861l-11.32 5.952 2.162-12.605c.417-2.433-.389-4.916-2.157-6.639l-9.158-8.927 12.657-1.839c2.443-.355 4.555-1.889 5.647-4.103l5.66-11.468 5.66 11.468c1.093 2.213 3.204 3.748 5.647 4.103l12.657 1.839z"/><path d="m457.482 268.865-23.793-3.458-10.64-21.56c-1.264-2.56-3.871-4.181-6.726-4.181-2.854 0-5.462 1.621-6.726 4.181l-10.641 21.56-23.793 3.458c-2.825.41-5.172 2.389-6.054 5.104s-.146 5.695 1.898 7.688l17.217 16.782-4.064 23.697c-.482 2.814.674 5.658 2.984 7.335 2.309 1.678 5.371 1.9 7.898.571l21.281-11.188 21.281 11.188c1.098.577 2.296.861 3.489.861 1.555 0 3.103-.483 4.409-1.433 2.31-1.678 3.466-4.521 2.984-7.335l-4.064-23.697 17.217-16.782c2.044-1.993 2.78-4.973 1.898-7.688-.883-2.714-3.23-4.693-6.055-5.103zm-26.354 21.586c-1.768 1.723-2.575 4.206-2.157 6.639l2.162 12.605-11.32-5.952c-2.186-1.148-4.795-1.148-6.98 0l-11.32 5.952 2.162-12.605c.417-2.433-.389-4.916-2.157-6.639l-9.158-8.927 12.657-1.839c2.443-.355 4.554-1.889 5.647-4.103l5.66-11.468 5.66 11.468c1.092 2.213 3.204 3.748 5.647 4.103l12.657 1.839z"/></g></svg>