<svg id="Capa_1" enable-background="new 0 0 512 512" height="512" viewBox="0 0 512 512" width="512" xmlns="http://www.w3.org/2000/svg"><g><path d="m207.903 160.322c-4.142 0-7.5 3.358-7.5 7.5v8.017c0 4.142 3.358 7.5 7.5 7.5s7.5-3.358 7.5-7.5v-8.017c0-4.141-3.358-7.5-7.5-7.5z"/><path d="m304.097 160.322c-4.142 0-7.5 3.358-7.5 7.5v8.017c0 4.142 3.358 7.5 7.5 7.5s7.5-3.358 7.5-7.5v-8.017c0-4.141-3.358-7.5-7.5-7.5z"/><path d="m285.316 229.274c2.948-2.909 2.98-7.658.071-10.606s-7.658-2.98-10.606-.071c-2.737 2.701-9.299 5.855-18.781 5.855s-16.043-3.154-18.781-5.855c-2.949-2.91-7.698-2.877-10.606.071-2.909 2.949-2.877 7.697.071 10.606 6.459 6.373 17.418 10.177 29.316 10.177s22.857-3.804 29.316-10.177z"/><path d="m215.919 136.274h-16.032c-4.142 0-7.5 3.357-7.5 7.5 0 4.142 3.358 7.5 7.5 7.5h16.032c4.142 0 7.5-3.358 7.5-7.5s-3.357-7.5-7.5-7.5z"/><path d="m296.081 151.274h16.032c4.142 0 7.5-3.358 7.5-7.5 0-4.143-3.358-7.5-7.5-7.5h-16.032c-4.142 0-7.5 3.357-7.5 7.5 0 4.142 3.357 7.5 7.5 7.5z"/><path d="m415.281 359.184-63.182-17.69-22.158-22.158c-2.851-2.851-6.549-4.391-10.329-4.545v-31.154c25.011-17.396 42.609-44.738 47.01-76.249h5.612c15.186 0 27.541-12.355 27.541-27.541 0-11.079-6.579-20.645-16.033-25.011v-75.19c0-43.917-35.729-79.646-79.645-79.646h-96.193c-43.917 0-79.645 35.729-79.645 79.646v75.19c-9.454 4.367-16.033 13.932-16.033 25.011 0 15.186 12.354 27.541 27.541 27.541h5.607c4.399 31.519 21.997 58.864 47.014 76.258v31.145c-3.78.155-7.478 1.694-10.329 4.545l-22.158 22.158-63.182 17.69c-23.909 6.694-40.606 28.71-40.606 53.538v91.778c0 4.142 3.358 7.5 7.5 7.5s7.5-3.358 7.5-7.5v-91.778c0-18.13 12.193-34.205 29.651-39.094l54.667-15.307 20.924 17.935v19.706c0 7.055 3.516 13.586 9.406 17.47 3.479 2.294 7.48 3.463 11.51 3.463 2.792 0 5.599-.562 8.253-1.699l30.486-13.065c2.848 3.454 7.158 5.66 11.974 5.66h.516v96.71c0 4.142 3.358 7.5 7.5 7.5s7.5-3.358 7.5-7.5v-96.71h.516c4.816 0 9.126-2.206 11.974-5.66l30.486 13.065c2.655 1.138 5.46 1.699 8.253 1.699 4.029 0 8.031-1.169 11.51-3.463 5.89-3.884 9.406-10.415 9.406-17.47v-19.706l20.924-17.935 54.668 15.307c17.458 4.889 29.651 20.964 29.651 39.094v91.778c0 4.142 3.358 7.5 7.5 7.5s7.5-3.358 7.5-7.5v-91.778c-.001-24.828-16.699-46.844-40.607-53.538zm-255.99-167.313c0-4.143-3.358-7.5-7.5-7.5s-7.5 3.357-7.5 7.5c0 .172.006.344.007.516h-4.531c-6.915 0-12.541-5.625-12.541-12.541s5.625-12.54 12.541-12.54h12.024c12.976 0 23.532-10.557 23.532-23.532v-32.064c0-17.965 14.616-32.581 32.581-32.581h64.129c4.142 0 7.5-3.357 7.5-7.5 0-4.142-3.358-7.5-7.5-7.5h-64.129c-26.236 0-47.581 21.345-47.581 47.581v32.064c0 4.704-3.828 8.532-8.532 8.532h-8.532v-72.66c0-35.646 29-64.646 64.645-64.646h96.193c35.646 0 64.645 29 64.645 64.646v72.661h-8.532c-4.705 0-8.532-3.828-8.532-8.532v-32.065c0-26.236-21.345-47.581-47.581-47.581-4.142 0-7.5 3.358-7.5 7.5 0 4.143 3.358 7.5 7.5 7.5 17.965 0 32.581 14.616 32.581 32.581v32.064c0 12.976 10.557 23.532 23.532 23.532h12.024c6.915 0 12.541 5.625 12.541 12.54s-5.625 12.541-12.541 12.541h-4.534c.001-.145.006-.289.006-.434.003-4.142-3.353-7.502-7.495-7.505-.002 0-.003 0-.005 0-4.14 0-7.497 3.354-7.5 7.495-.039 53.286-43.421 96.638-96.706 96.638-53.326 0-96.709-43.384-96.709-96.71zm96.709 111.71c17.412 0 33.906-4.01 48.613-11.151v28.552l-48.613 30.383-48.613-30.383v-28.546c14.705 7.137 31.199 11.145 48.613 11.145zm-63.335 26.36c.171-.171.434-.2.639-.073l50.367 31.479c-3.038.881-5.699 2.658-7.661 5.038l-30.486-13.065c-6.484-2.778-13.872-2.12-19.763 1.764-2.063 1.36-3.828 3.051-5.259 4.97l-9.665-8.285zm6.95 71.467c-2.645 1.134-4.795.029-5.596-.499s-2.664-2.067-2.664-4.947v-23.408c0-2.879 1.863-4.419 2.664-4.947s2.95-1.634 5.596-.5l32.853 14.08v6.141zm64.401-8.618h-16.032c-.284 0-.516-.231-.516-.515 0-.025 0-.05 0-.075v-15.884c0-.025 0-.05 0-.075 0-.284.232-.516.516-.516h16.032c.284 0 .516.231.516.516v.075 15.884.075c0 .284-.231.515-.516.515zm56.629 3.172c0 2.88-1.863 4.419-2.664 4.947-.801.527-2.951 1.633-5.596.499l-32.853-14.08v-6.141l32.853-14.08c2.646-1.133 4.795-.028 5.596.5s2.664 2.067 2.664 4.947zm10.853-35.907c-1.432-1.919-3.196-3.61-5.259-4.97-5.89-3.884-13.279-4.542-19.763-1.764l-30.486 13.065c-1.962-2.38-4.623-4.156-7.661-5.038l50.366-31.479c.207-.129.469-.098.639.072l21.828 21.829z"/><path d="m384.258 448.903c-4.142 0-7.5 3.358-7.5 7.5v48.097c0 4.142 3.358 7.5 7.5 7.5s7.5-3.358 7.5-7.5v-48.097c0-4.142-3.358-7.5-7.5-7.5z"/><path d="m127.742 448.903c-4.142 0-7.5 3.358-7.5 7.5v48.097c0 4.142 3.358 7.5 7.5 7.5s7.5-3.358 7.5-7.5v-48.097c0-4.142-3.358-7.5-7.5-7.5z"/></g></svg>