<svg id="Capa_1" enable-background="new 0 0 512 512" height="512" viewBox="0 0 512 512" width="512" xmlns="http://www.w3.org/2000/svg"><g><path d="m488.468 72.144h-464.936c-12.975 0-23.532 10.556-23.532 23.532v64.841c0 12.314 9.333 22.378 21.709 23.409.782.065 1.56.146 2.339.222v39.786c0 57.177 46.517 103.693 103.693 103.693h46.825c1.18 8.079 1.789 16.284 1.789 24.564v5.546c0 43.251 32.662 79.246 74.359 81.945 1.793.116 3.58.174 5.357.174 20.319 0 39.46-7.539 54.386-21.529 16.007-15.004 25.188-36.188 25.188-58.119v-8.017c0-8.28.608-16.485 1.789-24.564h46.825c57.177 0 103.693-46.517 103.693-103.693v-39.786c.78-.076 1.558-.157 2.34-.222 12.375-1.03 21.708-11.094 21.708-23.409v-64.841c0-12.976-10.557-23.532-23.532-23.532zm-297.113 15h129.29v40.597c0 13.545-11.02 24.565-24.564 24.565h-80.161c-13.545 0-24.564-11.02-24.564-24.565v-40.597zm-63.613 225.484c-48.906 0-88.693-39.788-88.693-88.693v-37.644c5.774 1.091 11.47 2.471 17.064 4.149v33.495c0 39.496 32.133 71.629 71.629 71.629h38.865c1.987 5.588 3.685 11.281 5.074 17.064zm-56.629-116.904c22.728 9.241 43.358 23.437 60.395 41.863 11.926 12.897 21.635 27.4 28.936 42.976h-32.702c-31.225 0-56.629-25.404-56.629-56.629zm401.839 28.21c0 48.906-39.788 88.693-88.693 88.693h-43.939c1.389-5.783 3.086-11.477 5.074-17.064h38.865c39.496 0 71.629-32.133 71.629-71.629v-33.494c5.594-1.677 11.29-3.058 17.064-4.149zm-121.396 56.629c7.301-15.576 17.01-30.079 28.936-42.976 17.037-18.425 37.667-32.622 60.395-41.863v28.21c0 31.225-25.404 56.629-56.629 56.629zm137.491-111.585c-45.793 3.813-88.256 24.562-119.568 58.425-31.491 34.057-48.833 78.375-48.833 124.788v8.017c0 18.062-7.261 34.816-20.446 47.175-13.173 12.349-30.399 18.501-48.517 17.331-33.829-2.19-60.328-31.609-60.328-66.976v-5.546c0-46.414-17.343-90.731-48.833-124.788-31.312-33.863-73.775-54.612-119.568-58.425-4.534-.377-7.954-4.015-7.954-8.461v-41.309h136.791c4.142 0 7.5-3.358 7.5-7.5s-3.358-7.5-7.5-7.5h-136.791v-8.532c0-4.705 3.828-8.532 8.532-8.532h152.823v40.597c0 21.816 17.749 39.565 39.564 39.565h80.161c21.816 0 39.564-17.749 39.564-39.565v-40.598h152.823c4.705 0 8.532 3.828 8.532 8.532v8.532h-136.79c-4.142 0-7.5 3.358-7.5 7.5s3.358 7.5 7.5 7.5h136.791v41.309c0 4.446-3.419 8.084-7.953 8.461z"/></g></svg>