<svg id="Capa_1" enable-background="new 0 0 512.002 512.002" height="512" viewBox="0 0 512.002 512.002" width="512" xmlns="http://www.w3.org/2000/svg"><g><path d="m9.954 251.246c16.886-5.842 34.939-8.804 53.661-8.804 71.006 0 128.774 43.384 128.774 96.709 0 4.142 3.358 7.5 7.5 7.5s7.5-3.358 7.5-7.5c0-9.031-1.369-17.887-4.012-26.432 15.932-9.276 34.049-14.165 52.625-14.165 20.194 0 39.794 5.757 56.682 16.649 16.457 10.614 29.587 25.552 37.97 43.198 1.022 2.153 3.008 3.691 5.348 4.145 2.216.429 4.43.636 6.62.636 15.509 0 29.747-10.394 34.019-25.801l28.166-101.563c1.107-3.992-1.231-8.125-5.223-9.231-3.991-1.106-8.125 1.231-9.231 5.223l-28.166 101.562c-2.484 8.956-10.834 14.981-19.863 14.81-9.611-18.522-23.892-34.222-41.51-45.585-19.316-12.458-41.728-19.043-64.812-19.043-20.494 0-40.499 5.224-58.252 15.125-7.25-14.567-18.463-27.89-33.218-39.173-27.04-20.677-62.879-32.064-100.917-32.064-20.394 0-40.098 3.239-58.565 9.628-3.915 1.354-5.99 5.626-4.636 9.54 1.355 3.915 5.626 5.989 9.54 4.636z"/><path d="m236.812 372.391c-3.15-2.679-7.876-2.303-10.562.844-2.69 3.15-2.316 7.884.833 10.574 1.222 1.043 29.936 25.117 74.387 25.117.815 0 1.64-.008 2.465-.024 4.142-.083 7.432-3.507 7.349-7.648-.083-4.142-3.48-7.425-7.648-7.349-39.84.79-66.407-21.164-66.824-21.514z"/><path d="m494.586 54.242-20.254-30.382c-8.76-13.141-24.46-19.804-39.997-16.98l-38.492 6.999c-9.355 1.701-17.361 7.449-21.963 15.77s-5.216 18.157-1.685 26.986l6.287 15.683c-.315.782-.597 1.583-.844 2.403-4.137 13.79 2.792 28.299 16.116 33.75l32.015 13.096c7.759 3.174 11.921 11.66 9.681 19.739l-16.207 58.441c-1.107 3.991 1.231 8.125 5.223 9.231.671.186 1.345.274 2.009.274 3.286 0 6.302-2.177 7.223-5.497l2.627-9.472 60.677 13.484v210.721c0 17.228-10.886 32.615-27.089 38.289-67.135 23.51-233.711 67.992-365.981-10.386 9.222-2.079 18.167-4.856 26.65-8.323 3.834-1.567 5.673-5.945 4.106-9.78-1.566-3.833-5.942-5.672-9.78-4.106-18.7 7.641-39.895 11.68-61.293 11.68-18.721 0-36.775-2.962-53.661-8.804-3.914-1.354-8.186.721-9.54 4.636s.721 8.186 4.636 9.54c18.467 6.389 38.171 9.628 58.565 9.628 5.999 0 11.985-.298 17.919-.875 62.52 42.109 133.388 55.777 199.066 55.777 81.295 0 154.631-20.948 194.271-34.83 22.209-7.778 37.131-28.854 37.131-52.447v-306.727c0-20.539-6.022-40.428-17.416-57.518zm-108.464-3.178c-1.852-4.632-1.53-9.791.884-14.156 2.415-4.365 6.613-7.379 11.521-8.272l38.492-6.999c6.581-1.197 13.207.354 18.482 4.048l-20.361 33.935-26.274-4.351c-6.973-1.162-13.854.408-19.472 3.973zm13.313 43.522c-6.142-2.513-9.335-9.2-7.429-15.556 1.852-6.171 8.038-10.026 14.394-8.966l20.43 3.405-15.572 25.954zm32.014 13.097-6.146-2.514 40.362-67.269 16.441 24.662c6.139 9.209 10.451 19.37 12.804 30.02l-54.283 20.874c-2.64-2.384-5.719-4.358-9.178-5.773zm65.553 84.717-21.102-4.689 2.235-20.396c.026-.237.209-.424.444-.456l18.422-2.49v28.031zm0-43.167-20.431 2.761c-7.079.957-12.567 6.584-13.346 13.687l-2.056 18.757-20.83-4.629 9.567-34.495c1.801-6.495 1.424-13.126-.716-19.08l47.719-18.349c.056 1.289.093 2.58.093 3.876z"/></g></svg>