<svg id="Capa_1" enable-background="new 0 0 512 512" height="512" viewBox="0 0 512 512" width="512" xmlns="http://www.w3.org/2000/svg"><g><path d="m171.422 388.31c23.905 17.417 52.203 26.916 81.834 27.471.88.017 1.753.025 2.631.025 36.888 0 71.988-14.553 99.085-41.148 28.472-27.943 44.801-66.65 44.801-106.196v-172.785c0-4.142-3.358-7.5-7.5-7.5s-7.5 3.358-7.5 7.5v172.784c0 35.545-14.692 70.35-40.308 95.491-24.845 24.384-57.133 37.466-90.929 36.832-26.538-.498-51.878-9.003-73.283-24.598-3.349-2.438-8.039-1.702-10.479 1.646-2.436 3.347-1.7 8.038 1.648 10.478z"/><path d="m456.404 0h-64.129c-21.816 0-39.565 17.749-39.565 39.564v232.468c0 53.326-43.384 96.71-96.709 96.71s-96.709-43.384-96.709-96.71v-232.468c-.001-21.815-17.75-39.564-39.566-39.564h-64.129c-21.816 0-39.565 17.749-39.565 39.564v227.632c0 63.5 23.983 123.858 67.533 169.957 43.911 46.48 102.756 73.029 165.697 74.754 2.276.062 4.537.093 6.804.093 62.89 0 122.064-23.987 167.261-67.962 22.738-22.123 40.61-48.047 53.12-77.053 12.953-30.033 19.521-61.98 19.521-94.953v-232.468c0-21.815-17.749-39.564-39.564-39.564zm-312.113 39.564v232.468c0 61.597 50.113 111.71 111.709 111.71s111.709-50.113 111.709-111.71v-232.468c0-10.93 7.177-20.211 17.065-23.389v47.438c0 4.142 3.358 7.5 7.5 7.5s7.5-3.358 7.5-7.5v-48.613h49.129v257.032c0 43.878-14.358 85.215-41.521 119.541-26.354 33.302-63.427 57.289-104.391 67.54-9.556 2.392-18.335 8.033-24.722 15.886-2.847 3.5-5.188 7.454-6.959 11.751-2.535 6.152-8.434 10.146-15.071 10.241-.126 0-.252.004-.379.003-6.678-.056-12.622-4.062-15.17-10.245-1.771-4.297-4.112-8.25-6.959-11.75-6.387-7.853-15.167-13.495-24.722-15.886-40.964-10.252-78.038-34.238-104.391-67.541-27.163-34.326-41.521-75.663-41.521-119.541v-257.031h49.129v257.032c0 33.884 12.014 66.788 33.83 92.65 1.483 1.758 3.603 2.664 5.737 2.664 1.708 0 3.424-.58 4.832-1.767 3.166-2.671 3.567-7.402.897-10.569-19.536-23.161-30.295-52.629-30.295-82.979v-255.856c9.886 3.178 17.064 12.46 17.064 23.389zm-49.822 387.288c-40.908-43.302-63.437-100.002-63.437-159.656v-227.632c0-10.93 7.177-20.211 17.064-23.389v255.857c0 47.292 15.477 91.847 44.759 128.849 28.396 35.884 68.354 61.732 112.512 72.784 6.432 1.609 12.372 5.444 16.727 10.799 1.924 2.365 3.514 5.057 4.727 8 .398.965.844 1.898 1.327 2.804-50.735-6.37-97.579-30.204-133.679-68.416zm386.499-154.82c0 61.259-24.186 118.528-68.101 161.255-35.652 34.688-80.566 56.102-129.048 62.027.493-.922.954-1.867 1.359-2.85 1.213-2.944 2.804-5.636 4.728-8 4.355-5.355 10.295-9.19 16.727-10.8 44.158-11.051 84.116-36.899 112.512-72.783 29.282-37.002 44.759-81.558 44.759-128.849v-255.857c9.887 3.178 17.064 12.46 17.064 23.389z"/></g></svg>