<svg id="Capa_1" enable-background="new 0 0 512 512" height="512" viewBox="0 0 512 512" width="512" xmlns="http://www.w3.org/2000/svg"><g><path d="m509.803 474.866-103.566-103.567c.124-.118.257-.22.379-.342l28.318-28.318c.138-.138.254-.289.388-.43 12.486 12.031 22.248 19.792 32.508 27.946 9.147 7.27 18.605 14.787 31.463 26.325 1.432 1.285 3.222 1.917 5.006 1.917 2.056 0 4.104-.84 5.585-2.491 2.766-3.083 2.509-7.825-.574-10.591-13.192-11.836-23.263-19.84-32.148-26.902-11.508-9.146-21.5-17.096-35.422-30.911.411-6.511-1.842-13.16-6.807-18.124l-29.321-29.321c7.354-12.127 5.805-28.177-4.661-38.643l-39.646-39.645c-4.84-4.841-11.486-7.296-18.224-6.837-15.492-14.227-39.67-13.841-54.683 1.172l-28.318 28.318c-1.51 1.51-2.867 3.115-4.081 4.792-1.214-1.677-2.571-3.282-4.081-4.792l-28.318-28.318c-15.013-15.013-39.191-15.398-54.683-1.172-6.737-.458-13.384 1.995-18.224 6.836l-39.646 39.646c-10.466 10.466-12.015 26.516-4.661 38.643l-29.321 29.321c-4.965 4.964-7.217 11.613-6.807 18.124-13.922 13.814-23.914 21.764-35.421 30.91-8.886 7.062-18.957 15.066-32.149 26.904-3.083 2.766-3.34 7.508-.573 10.591 1.481 1.651 3.528 2.491 5.584 2.491 1.784 0 3.574-.633 5.006-1.918 12.859-11.538 22.317-19.055 31.464-26.325 10.259-8.154 20.021-15.915 32.507-27.945.134.141.25.292.388.43l28.318 28.318c.122.122.255.224.379.342l-103.564 103.566c-2.929 2.929-2.929 7.677 0 10.607 1.464 1.464 3.384 2.196 5.303 2.196s3.839-.732 5.303-2.196l107.709-107.709c.501.032 1.002.072 1.504.072 6.022 0 12.045-2.293 16.63-6.878l29.561-29.561c3.282 1.625 6.86 2.457 10.445 2.457 6.023 0 12.046-2.293 16.631-6.878l56.637-56.637c1.51-1.51 2.867-3.115 4.081-4.792 1.214 1.677 2.571 3.282 4.081 4.792l56.637 56.637c4.585 4.585 10.608 6.878 16.631 6.878 3.585 0 7.163-.832 10.445-2.457l29.561 29.561c4.585 4.585 10.608 6.878 16.63 6.878.502 0 1.003-.04 1.504-.072l107.709 107.709c1.464 1.464 3.384 2.196 5.303 2.196s3.839-.732 5.303-2.196c2.928-2.93 2.928-7.678-.002-10.607zm-239.116-239.837 28.318-28.318c4.784-4.784 11.067-7.175 17.352-7.175 6.283 0 12.568 2.392 17.352 7.175 9.567 9.568 9.567 25.136 0 34.703l-28.318 28.318c-9.568 9.567-25.136 9.567-34.703 0s-9.568-25.135-.001-34.703zm-57.692-28.318 28.318 28.318c9.567 9.568 9.567 25.136 0 34.703s-25.136 9.567-34.703 0l-28.318-28.318c-9.567-9.567-9.567-25.135 0-34.703 9.568-9.568 25.135-9.568 34.703 0zm-84.955 153.64c-3.322 3.321-8.726 3.322-12.048 0l-28.318-28.318c-3.322-3.322-3.322-8.727 0-12.048l6.024-6.024 17.351 17.352c3.023 3.024 6.995 4.536 10.967 4.536s7.944-1.512 10.967-4.536l11.688-11.688 12.048 12.048zm56.636-33.982c-3.322 3.321-8.726 3.322-12.048 0l-22.655-22.655c-2.563-2.563-6.519-2.883-9.43-.961-.416.275-.81.595-1.177.961l-16.991 16.991c-.199.198-.522.198-.721 0l-17.351-17.352 12.048-12.048.36.36c1.464 1.464 3.384 2.197 5.303 2.197s3.839-.732 5.303-2.197c2.929-2.929 2.929-7.678 0-10.606l-5.664-5.664c-6.444-6.445-6.444-16.931 0-23.375l35.125-35.125c-1.338 7.315-.614 14.935 2.181 21.915l-8.267 8.268c-9.17 9.17-9.17 24.091 0 33.261 1.464 1.464 3.384 2.197 5.303 2.197s3.839-.732 5.303-2.197c2.929-2.929 2.929-7.678 0-10.606-3.322-3.322-3.322-8.727 0-12.048l6.033-6.033c.119.122.23.249.351.37l28.318 28.318c6.552 6.552 14.852 10.309 23.412 11.291zm142.648 0-34.739-34.739c8.56-.983 16.861-4.74 23.412-11.291l28.318-28.318c.121-.121.232-.248.351-.37l6.033 6.033c3.322 3.322 3.322 8.727 0 12.048-2.929 2.929-2.929 7.678 0 10.606 1.464 1.464 3.384 2.197 5.303 2.197s3.839-.732 5.303-2.197c9.17-9.17 9.17-24.091 0-33.261l-8.267-8.268c2.795-6.98 3.519-14.6 2.181-21.914l35.125 35.125c6.444 6.445 6.444 16.931 0 23.375l-5.664 5.664c-2.929 2.929-2.929 7.678 0 10.606 1.464 1.464 3.384 2.197 5.303 2.197s3.839-.732 5.303-2.197l.36-.36 12.048 12.048-17.351 17.352c-.199.198-.522.198-.721 0l-16.991-16.991c-2.929-2.929-7.678-2.929-10.606 0l-22.655 22.655c-3.321 3.322-8.724 3.321-12.046 0zm27.958 5.303 12.048-12.048 11.688 11.688c3.023 3.024 6.995 4.536 10.967 4.536s7.944-1.512 10.967-4.536l17.351-17.352 6.024 6.024c3.322 3.322 3.322 8.727 0 12.048l-28.318 28.318c-3.323 3.322-8.727 3.321-12.048 0z"/><path d="m63.764 295.823c.696 0 1.404-.098 2.106-.303 3.976-1.162 6.257-5.326 5.096-9.302-4.419-15.127-6.951-30.785-7.559-46.646h24.391c4.142 0 7.5-3.358 7.5-7.5s-3.358-7.5-7.5-7.5h-24.379c1.246-32.377 10.507-62.73 25.865-89.125h53.615c-4.413 13.704-7.896 28.207-10.321 43.211-.661 4.089 2.118 7.94 6.207 8.601.405.065.808.097 1.206.097 3.615 0 6.799-2.621 7.395-6.304 2.625-16.238 6.435-31.517 11.233-45.604h89.881v56.577c0 4.142 3.358 7.5 7.5 7.5s7.5-3.358 7.5-7.5v-56.577h89.881c4.799 14.088 8.609 29.367 11.233 45.604.595 3.684 3.779 6.304 7.395 6.304.397 0 .801-.032 1.206-.097 4.089-.661 6.868-4.511 6.207-8.601-2.425-15.004-5.909-29.507-10.321-43.211h53.615c15.357 26.395 24.619 56.749 25.865 89.125h-24.379c-4.142 0-7.5 3.358-7.5 7.5s3.358 7.5 7.5 7.5h24.391c-.608 15.861-3.14 31.518-7.559 46.646-1.161 3.976 1.12 8.141 5.096 9.302.703.205 1.41.303 2.106.303 3.247 0 6.239-2.125 7.196-5.399 5.513-18.874 8.309-38.506 8.309-58.352 0-114.549-93.192-207.741-207.741-207.741s-207.741 93.192-207.741 207.741c0 19.845 2.795 39.478 8.309 58.352.957 3.274 3.949 5.399 7.196 5.399zm184.736-256.055v80.679h-84.219c19.346-46.335 50.129-76.76 84.219-80.679zm15 80.679v-80.679c34.09 3.919 64.873 34.344 84.219 80.679zm149.543 0h-49.271c-7.569-19.414-17.092-36.807-28.176-51.163-5.892-7.631-12.111-14.32-18.599-20.055 39.06 13.064 72.589 38.312 96.046 71.218zm-218.039-71.218c-6.489 5.735-12.708 12.424-18.599 20.055-11.084 14.356-20.607 31.749-28.176 51.163h-49.272c23.457-32.906 56.987-58.154 96.047-71.218z"/><path d="m363.935 391.781c-14.638 9.912-30.417 17.674-46.943 23.181 11.659-10.279 22.367-23.602 31.761-39.754 2.083-3.581.869-8.171-2.712-10.254-3.58-2.083-8.171-.868-10.254 2.712-19.641 33.766-45.076 53.62-72.288 56.71v-80.678h16.529c4.142 0 7.5-3.358 7.5-7.5s-3.358-7.5-7.5-7.5h-16.528v-16.529c0-4.142-3.358-7.5-7.5-7.5s-7.5 3.358-7.5 7.5v16.529h-16.529c-4.142 0-7.5 3.358-7.5 7.5s3.358 7.5 7.5 7.5h16.529v80.678c-27.212-3.09-52.647-22.943-72.288-56.71-2.083-3.581-6.675-4.794-10.254-2.712-3.581 2.083-4.795 6.673-2.712 10.254 9.395 16.151 20.103 29.475 31.761 39.754-16.526-5.506-32.305-13.268-46.943-23.181-3.432-2.323-8.094-1.426-10.416 2.004-2.323 3.43-1.425 8.093 2.004 10.416 34.403 23.297 74.635 35.612 116.346 35.612s81.942-12.314 116.346-35.612c3.43-2.322 4.327-6.986 2.004-10.416-2.321-3.429-6.983-4.326-10.413-2.004z"/></g></svg>