<svg id="Capa_1" enable-background="new 0 0 512 512" height="512" viewBox="0 0 512 512" width="512" xmlns="http://www.w3.org/2000/svg"><g><path d="m440.371 252.503h-41.505c-3.375-13.786-15.829-24.048-30.64-24.048h-72.145c-7.004 0-13.571 3.109-18.02 8.411-1.976-.251-3.985-.395-6.028-.395-26.236 0-47.581 21.345-47.581 47.581v40.081c0 26.236 21.345 47.581 47.581 47.581h104.209c10.353 0 19.16-6.724 22.3-16.032h41.829c12.976 0 23.532-10.557 23.532-23.533v-56.113c0-12.976-10.557-23.533-23.532-23.533zm-200.919 71.63v-40.081c0-17.965 14.616-32.581 32.581-32.581s32.581 14.616 32.581 32.581v40.081c0 17.965-14.616 32.581-32.581 32.581s-32.581-14.617-32.581-32.581zm136.79 32.58h-69.582c8.022-8.521 12.952-19.982 12.952-32.581v-40.081c0-2.914-.277-5.762-.781-8.532h9.314c4.705 0 8.532 3.828 8.532 8.532 0 4.142 3.358 7.5 7.5 7.5s7.5-3.358 7.5-7.5c0-12.976-10.557-23.532-23.532-23.532h-14.785c-3.992-6.983-9.693-12.868-16.541-17.064h71.406c9.125 0 16.548 7.423 16.548 16.548v8.016c0 4.142 3.358 7.5 7.5 7.5s7.5-3.358 7.5-7.5v-.516h17.064v40.597c0 .285-.231.516-.516.516h-16.548v-8.532c0-4.142-3.358-7.5-7.5-7.5s-7.5 3.358-7.5 7.5v48.097c.001 4.704-3.827 8.532-8.531 8.532zm72.661-24.565c0 4.705-3.828 8.533-8.532 8.533h-40.597v-17.065h16.548c8.556 0 15.516-6.96 15.516-15.516v-40.597h8.532c4.705 0 8.532 3.828 8.532 8.532v56.113z"/><path d="m151.79 244.487h-32.064c-1.989 0-3.897.79-5.303 2.197l-51.326 51.326v-46.023c0-4.142-3.358-7.5-7.5-7.5-22.386 0-40.597-18.211-40.597-40.597v-112.225c0-22.385 18.211-40.597 40.597-40.597h208.419c22.385 0 40.597 18.211 40.597 40.597v64.129c0 4.142 3.358 7.5 7.5 7.5s7.5-3.358 7.5-7.5v-64.129c0-30.656-24.94-55.597-55.597-55.597h-208.419c-30.657 0-55.597 24.941-55.597 55.597v112.225c0 28.113 20.974 51.42 48.097 55.093v43.453c0 5.344 3.19 10.119 8.127 12.164 1.639.679 3.354 1.009 5.052 1.009 3.419 0 6.772-1.338 9.297-3.863l52.259-52.259h28.958c4.142 0 7.5-3.358 7.5-7.5s-3.358-7.5-7.5-7.5z"/><path d="m456.403 180.358h-224.451c-30.656 0-55.597 24.94-55.597 55.597v128.258c0 30.656 24.941 55.597 55.597 55.597h157.216l52.259 52.259c2.525 2.525 5.877 3.863 9.296 3.863 1.699 0 3.414-.331 5.052-1.009 4.938-2.045 8.128-6.82 8.128-12.165v-43.453c27.123-3.672 48.097-26.979 48.097-55.092v-128.258c0-30.656-24.94-55.597-55.597-55.597zm40.597 183.855c0 22.385-18.211 40.597-40.597 40.597-4.142 0-7.5 3.358-7.5 7.5v46.022l-51.326-51.326c-1.406-1.407-3.314-2.197-5.303-2.197h-160.322c-22.385 0-40.597-18.211-40.597-40.597v-128.257c0-22.385 18.212-40.597 40.597-40.597h224.452c22.385 0 40.597 18.211 40.597 40.597v128.258z"/><path d="m256 140.278h-176.355c-4.142 0-7.5 3.358-7.5 7.5s3.358 7.5 7.5 7.5h176.355c4.142 0 7.5-3.358 7.5-7.5s-3.358-7.5-7.5-7.5z"/><path d="m256 100.197h-176.355c-4.142 0-7.5 3.358-7.5 7.5s3.358 7.5 7.5 7.5h176.355c4.142 0 7.5-3.358 7.5-7.5s-3.358-7.5-7.5-7.5z"/><path d="m167.822 180.358h-88.177c-4.142 0-7.5 3.358-7.5 7.5s3.358 7.5 7.5 7.5h88.177c4.142 0 7.5-3.358 7.5-7.5s-3.358-7.5-7.5-7.5z"/></g></svg>