<svg id="Capa_1" enable-background="new 0 0 512 512" height="512" viewBox="0 0 512 512" width="512" xmlns="http://www.w3.org/2000/svg"><g><path d="m305.521 208.42h-41.505c-10.745 0-19.825 7.242-22.631 17.1-45.976 8.783-69.34 27.888-70.347 28.727-2.04 1.7-3.029 4.351-2.601 6.971s2.209 4.819 4.684 5.781l67.99 26.44c2.438 10.393 11.78 18.158 22.906 18.158h41.829c3.139 9.308 11.946 16.032 22.3 16.032h104.21c26.236 0 47.581-21.345 47.581-47.581v-40.081c0-26.236-21.345-47.581-47.581-47.581-2.043 0-4.052.144-6.028.395-4.449-5.303-11.017-8.411-18.02-8.411h-72.146c-14.812.001-27.266 10.263-30.641 24.05zm-65.037 32.583v36.097l-48.231-18.756c9.869-5.445 25.999-12.663 48.231-17.341zm15 47.062v-56.113c0-4.705 3.828-8.532 8.532-8.532h8.532v40.597c0 8.556 6.96 15.516 15.516 15.516h16.548v17.064h-40.597c-4.703 0-8.531-3.828-8.531-8.532zm209.452-48.097v40.081c0 17.965-14.616 32.581-32.581 32.581s-32.581-14.616-32.581-32.581v-40.081c0-17.965 14.616-32.581 32.581-32.581s32.581 14.616 32.581 32.581zm-73.909-23.532h-14.785c-12.976 0-23.532 10.557-23.532 23.532 0 4.142 3.358 7.5 7.5 7.5s7.5-3.358 7.5-7.5c0-4.705 3.828-8.532 8.532-8.532h9.314c-.504 2.77-.781 5.619-.781 8.532v40.081c0 12.598 4.931 24.06 12.952 32.581h-69.582c-4.705 0-8.532-3.828-8.532-8.532v-48.098c0-4.142-3.358-7.5-7.5-7.5s-7.5 3.358-7.5 7.5v8.532h-16.548c-.285 0-.516-.231-.516-.516v-40.596h17.064v.516c0 4.142 3.358 7.5 7.5 7.5s7.5-3.358 7.5-7.5v-8.016c0-9.125 7.423-16.548 16.548-16.548h71.407c-6.848 4.196-12.549 10.081-16.541 17.064z"/><path d="m489.593 184.635c-13.926-14.401-32.416-22.931-52.263-24.158-8.734-5.352-18.723-8.17-29.024-8.17h-32.065c-4.142 0-7.5 3.358-7.5 7.5s3.358 7.5 7.5 7.5h32.065c8.046 0 15.829 2.353 22.507 6.804 1.156.771 2.503 1.205 3.891 1.254 16.739.6 32.403 7.595 44.105 19.697 11.73 12.13 18.19 28.079 18.19 44.906v40.081c0 35.646-29 64.645-64.645 64.645h-112.225c-107.787 0-165.733-22.874-186.752-33.444l22.914-17.185c2.287-1.715 3.399-4.58 2.87-7.389s-2.609-5.072-5.363-5.837l-128.182-35.607c10.442-5.973 27.154-14.313 50.785-22.598 40.705-14.269 110.824-31.278 213.722-31.279h.006c2.367 0 4.697-1.118 6.155-3.206 9.117-13.051 24.024-20.843 39.877-20.843h8.016c4.142 0 7.5-3.358 7.5-7.5s-3.358-7.5-7.5-7.5h-8.016c-19.424 0-37.755 8.928-49.797 24.068-103.591.417-174.548 17.828-215.974 32.474-46.016 16.268-66.717 32.592-67.575 33.279-2.199 1.759-3.227 4.602-2.663 7.36s2.627 4.969 5.34 5.723l129.603 36.001-19.87 14.902c-1.913 1.435-3.027 3.696-3 6.087.028 2.391 1.194 4.625 3.14 6.016 2.371 1.693 59.737 41.478 204.763 41.478h112.226c43.917 0 79.645-35.729 79.645-79.645v-40.081c.001-20.739-7.956-40.39-22.406-55.333z"/></g></svg>