<svg id="Capa_1" enable-background="new 0 0 512 512" height="512" viewBox="0 0 512 512" width="512" xmlns="http://www.w3.org/2000/svg"><g><path d="m383.742 257.238v-73.383c0-12.996-10.536-23.532-23.532-23.532h-50.533l-46.41-154.702c-.865-2.882-3.262-5.15-6.244-5.552-3.719-.501-7.158 1.78-8.207 5.276l-46.493 154.978h-50.533c-12.996 0-23.532 10.536-23.532 23.532v73.383c-18.241 3.516-32.065 19.591-32.065 38.842v104.21c0 12.577 6.047 24.396 16.032 31.806v24.307c0 30.705 24.891 55.597 55.597 55.597h80.162c30.705 0 55.597-24.891 55.597-55.597v-168.339c0-14.812-10.262-27.265-24.048-30.64v-73.569c0-12.996-10.536-23.532-23.532-23.532h-38.017l38.016-126.722 39.945 133.17c1.523 5.076 6.195 8.552 11.494 8.552h52.77c4.712 0 8.532 3.82 8.532 8.532v8.532h-64.33c-4.107 0-7.688 3.164-7.811 7.269-.128 4.247 3.278 7.731 7.497 7.731h64.645v49.129h-40.282c-4.107 0-7.688 3.164-7.811 7.269-.128 4.247 3.278 7.731 7.497 7.731h48.097c13.567 0 24.565 10.998 24.565 24.565v104.209c0 6.135-2.326 11.975-6.327 16.431-5.532-11.718-15.037-21.2-26.77-26.705v-21.791c0-17.267-13.944-31.339-31.163-31.546-3.899-.047-7.355 2.683-7.827 6.553-.557 4.564 2.989 8.444 7.442 8.444 9.125 0 16.548 7.423 16.548 16.548v17.204c-2.782-.43-5.631-.656-8.532-.656h-15.718c-4.107 0-7.688 3.164-7.811 7.269-.128 4.247 3.278 7.731 7.497 7.731h16.033c22.421 0 40.597 18.176 40.597 40.597v16.032c0 22.421-18.176 40.597-40.597 40.597h-31.75c-4.107 0-7.688 3.164-7.811 7.269-.128 4.247 3.278 7.731 7.497 7.731h32.064c30.705 0 55.597-24.892 55.597-55.597v-16.032c0-2.678-.201-5.309-.569-7.887 10.316-7.379 16.602-19.385 16.602-32.194v-104.21c-.003-19.249-13.827-35.324-32.068-38.84zm-240.484-49.851h72.661c4.705 0 8.532 3.828 8.532 8.532v40.597h-81.193zm145.323 80.677v168.339c0 22.385-18.211 40.597-40.597 40.597h-80.161c-22.385 0-40.597-18.211-40.597-40.597 0 0 0-31.421 0-32.064 0-37.062 14.639-59.765 14.773-59.969 2.298-3.446 1.367-8.103-2.08-10.4-3.446-2.297-8.103-1.367-10.4 2.08-.617.926-13.374 20.431-16.571 53.305-1.135-2.847-1.754-5.915-1.754-9.063v-104.21c0-13.545 11.02-24.564 24.565-24.564h136.274c9.124-.002 16.548 7.421 16.548 16.546zm-32.581-112.741c4.705 0 8.532 3.828 8.532 8.532v72.661h-25.081v-40.597c0-12.976-10.557-23.532-23.532-23.532h-72.661v-8.532c0-4.705 3.828-8.532 8.532-8.532z"/></g></svg>