<svg id="Capa_1" enable-background="new 0 0 512 512" height="512" viewBox="0 0 512 512" width="512" xmlns="http://www.w3.org/2000/svg"><g><path d="m394.001 207.604 30.742-92.224c8.882-26.661 4.376-56.186-12.054-78.98-16.431-22.793-43.015-36.4-71.113-36.4h-171.15c-28.098 0-54.683 13.607-71.113 36.4-16.43 22.794-20.936 52.319-12.053 78.981l30.74 92.219c-.721.688-1.443 1.374-2.154 2.073-31.909 31.359-52.534 72.715-58.076 116.451-8.081 63.768 13.633 125.724 59.574 169.981 10.64 10.25 24.484 15.896 38.983 15.896h199.427c14.222 0 27.465-5.099 37.29-14.356 19.632-18.497 35.083-40.327 45.923-64.884 11.229-25.438 16.922-52.544 16.922-80.566-.001-54.627-22.484-106.954-61.888-144.591zm6.52-162.433c13.619 18.894 17.354 43.368 9.991 65.467l-28.732 86.195c-13.206-10.722-27.566-19.615-42.921-26.601l25.043-75.128c2.42-7.263 1.242-14.992-3.239-21.212-4.481-6.205-11.438-9.763-19.086-9.763h-5.93v-49.129h5.93c23.289 0 45.325 11.279 58.944 30.171zm-167.236 108.392c-15.81 1.745-31.338 5.463-46.233 10.96l-24.72-74.16c-.917-2.752-.522-5.342 1.168-7.689 1.699-2.353 4.029-3.545 6.926-3.545h109.623c4.142 0 7.5-3.358 7.5-7.5s-3.358-7.5-7.5-7.5h-88.693v-49.129h129.29v49.129h-8.532c-4.142 0-7.5 3.358-7.5 7.5s3.358 7.5 7.5 7.5h29.462c2.897 0 5.227 1.193 6.921 3.538 1.696 2.355 2.091 4.944 1.174 7.696l-24.723 74.168c-2.102-.771-4.214-1.521-6.349-2.224-27.397-9.028-56.101-11.97-85.314-8.744zm-131.795-42.924c-7.363-22.1-3.628-46.574 9.991-65.467s35.655-30.172 58.945-30.172h5.93v49.129h-5.93c-7.648 0-14.605 3.559-19.092 9.771-4.475 6.212-5.654 13.941-3.233 21.206l25.049 75.148c-15.291 6.992-29.738 15.928-42.922 26.599zm323.753 316.063c-10.027 22.714-24.321 42.909-42.486 60.025-7.031 6.625-16.622 10.273-27.004 10.273h-199.427c-10.597 0-20.746-4.154-28.576-11.698-42.497-40.938-62.58-98.27-55.1-157.292 5.121-40.405 24.195-78.632 53.709-107.638 29.504-28.996 68.063-47.427 108.571-51.899 7.098-.783 14.159-1.174 21.175-1.174 19.737 0 39.104 3.095 57.799 9.255 24.265 7.995 46.27 20.738 65.403 37.875 39.135 35.052 61.58 85.266 61.58 137.765.001 25.922-5.262 50.991-15.644 74.508z"/><path d="m256.001 264.532c-18.398 0-36.01 5.638-50.93 16.305-3.37 2.409-4.148 7.093-1.739 10.463 2.409 3.369 7.093 4.149 10.463 1.739 12.36-8.836 26.955-13.507 42.206-13.507 40.065 0 72.661 32.596 72.661 72.661 0 40.066-32.596 72.662-72.661 72.662s-72.661-32.596-72.661-72.662c0-12.776 3.36-25.337 9.717-36.326 2.074-3.585.849-8.173-2.737-10.248-3.584-2.074-8.173-.85-10.248 2.737-7.675 13.269-11.732 28.427-11.732 43.837 0 48.337 39.325 87.662 87.661 87.662s87.661-39.325 87.661-87.662c0-48.336-39.324-87.661-87.661-87.661z"/></g></svg>