<svg id="Capa_1" enable-background="new 0 0 512 512" height="512" viewBox="0 0 512 512" width="512" xmlns="http://www.w3.org/2000/svg"><g><path d="m488.468 96.193h-416.839c-39.496 0-71.629 32.133-71.629 71.63v176.354c0 39.497 32.133 71.629 71.629 71.629h160.323c39.496 0 71.629-32.133 71.629-71.629v-176.354c0-23.015-10.923-43.516-27.844-56.629h189.199v161.355h-136.791c-4.142 0-7.5 3.358-7.5 7.5s3.358 7.5 7.5 7.5h160.323c12.976 0 23.532-10.557 23.532-23.532v-144.291c0-12.976-10.557-23.533-23.532-23.533zm-199.887 247.984c0 31.226-25.404 56.629-56.629 56.629h-160.323c-31.225.001-56.629-25.403-56.629-56.629v-132.57c13.114 16.921 33.614 27.844 56.629 27.844h160.323c23.015 0 43.515-10.923 56.629-27.844zm0-176.354c0 31.225-25.404 56.629-56.629 56.629h-160.323c-31.225 0-56.629-25.404-56.629-56.629 0-31.226 25.404-56.629 56.629-56.629h160.323c31.225-.001 56.629 25.403 56.629 56.629zm208.419 96.193c0 4.705-3.828 8.532-8.532 8.532h-8.532v-161.355h8.532c4.705 0 8.532 3.828 8.532 8.532z"/><path d="m32.064 167.823c0 21.816 17.749 39.564 39.564 39.564 4.142 0 7.5-3.358 7.5-7.5s-3.358-7.5-7.5-7.5c-13.545 0-24.564-11.02-24.564-24.564s11.02-24.564 24.564-24.564h160.323c13.545 0 24.564 11.02 24.564 24.564s-11.02 24.564-24.564 24.564h-128.258c-4.142 0-7.5 3.358-7.5 7.5s3.358 7.5 7.5 7.5h128.258c21.816 0 39.564-17.749 39.564-39.564s-17.749-39.564-39.564-39.564h-160.322c-21.816-.001-39.565 17.748-39.565 39.564z"/><path d="m239.452 167.823c0-4.142-3.358-7.5-7.5-7.5h-160.323c-4.142 0-7.5 3.358-7.5 7.5s3.358 7.5 7.5 7.5h160.323c4.142 0 7.5-3.358 7.5-7.5z"/></g></svg>