<svg id="Capa_1" enable-background="new 0 0 512 512" height="512" viewBox="0 0 512 512" width="512" xmlns="http://www.w3.org/2000/svg"><g><path d="m392.274 0h-32.065c-5.836 0-10.925 3.242-13.574 8.016h-106.667c-30.656 0-55.597 24.94-55.597 55.597v26.507c-4.774 2.649-8.016 7.738-8.016 13.574v16.548h-24.564c-12.976 0-23.532 10.557-23.532 23.533v32.064c0 10.354 6.724 19.16 16.032 22.3v18.297h-.516c-21.816 0-39.565 17.749-39.565 39.564v232.468c0 12.976 10.557 23.532 23.532 23.532h160.323c12.976 0 23.532-10.557 23.532-23.532v-232.468c0-21.816-17.749-39.564-39.564-39.564h-.516v-18.297c9.308-3.139 16.032-11.946 16.032-22.3v-32.064c0-12.976-10.557-23.533-23.532-23.533h-24.564v-16.548c0-5.836-3.242-10.925-8.016-13.574v-26.507c0-4.705 3.828-8.532 8.532-8.532h32.064c4.142 0 7.5-3.358 7.5-7.5s-3.358-7.5-7.5-7.5h-32.064c-12.976 0-23.532 10.557-23.532 23.532v24.564h-17.064v-24.564c0-22.385 18.211-40.597 40.597-40.597h72.661v17.064h-8.532c-4.142 0-7.5 3.358-7.5 7.5s3.358 7.5 7.5 7.5h42.539c2.649 4.774 7.738 8.016 13.574 8.016h32.065c8.556 0 15.516-6.96 15.516-15.516v-32.064c-.002-8.556-6.963-15.516-15.519-15.516zm-104.21 497h-160.322c-4.705 0-8.532-3.828-8.532-8.532v-207.957c1.821.565 3.377 1.34 5.168 2.236 4.275 2.139 9.596 4.801 19.38 4.801 9.781 0 15.101-2.662 19.375-4.801 3.73-1.867 6.425-3.215 12.663-3.215 6.239 0 8.935 1.349 12.666 3.215 4.275 2.139 9.595 4.801 19.377 4.801 9.784 0 15.105-2.662 19.381-4.8 3.732-1.867 6.428-3.216 12.67-3.216 6.257 0 8.96 1.35 12.701 3.218 4.281 2.138 9.608 4.798 19.402 4.798s15.122-2.661 19.403-4.798c1.802-.9 3.366-1.677 5.2-2.244v207.962c.001 4.704-3.827 8.532-8.532 8.532zm8.533-241v9.136c-5.301.907-8.869 2.68-11.902 4.195-3.741 1.868-6.443 3.218-12.701 3.218-6.257 0-8.959-1.35-12.7-3.218-4.281-2.138-9.608-4.798-19.403-4.798-9.784 0-15.105 2.662-19.38 4.8-3.732 1.867-6.429 3.216-12.671 3.216-6.239 0-8.935-1.349-12.666-3.215-4.275-2.139-9.595-4.801-19.377-4.801s-15.102 2.662-19.376 4.801c-3.73 1.867-6.425 3.215-12.663 3.215-6.241 0-8.937-1.349-12.669-3.216-3.028-1.515-6.589-3.287-11.879-4.195v-9.138c0-13.545 11.02-24.564 24.565-24.564h128.258c13.544 0 24.564 11.019 24.564 24.564zm-137.306-39.564v-17.064h97.226v17.064zm113.257-72.662v8.532h-88.693c-4.142 0-7.5 3.358-7.5 7.5s3.358 7.5 7.5 7.5h88.693v8.532c0 4.705-3.828 8.532-8.532 8.532h-112.225c-4.705 0-8.532-3.828-8.532-8.532v-8.532h8.532c4.142 0 7.5-3.358 7.5-7.5s-3.358-7.5-7.5-7.5h-8.532v-8.532c0-4.705 3.828-8.533 8.532-8.533h112.226c4.704.001 8.531 3.828 8.531 8.533zm-81.193-23.532v-16.548c0-.285.231-.516.516-.516h32.064c.285 0 .516.231.516.516v16.548zm136.274-97.226h17.064v17.064h-17.064zm65.162 24.565c0 .285-.231.516-.516.516h-32.065c-.285 0-.516-.231-.516-.516v-32.065c0-.285.231-.516.516-.516h32.065c.285 0 .516.231.516.516z"/></g></svg>