<svg id="Capa_1" enable-background="new 0 0 512 512" height="512" viewBox="0 0 512 512" width="512" xmlns="http://www.w3.org/2000/svg"><g><path d="m440.371 0h-368.742c-17.396 0-31.548 14.152-31.548 31.548v400.806c0 4.143 3.358 7.5 7.5 7.5s7.5-3.357 7.5-7.5v-400.806c0-9.124 7.423-16.548 16.548-16.548h368.742c9.125 0 16.548 7.424 16.548 16.548v448.903c0 9.125-7.423 16.548-16.548 16.548h-368.742c-9.125 0-16.548-7.424-16.548-16.548v-16.032c0-4.142-3.358-7.5-7.5-7.5s-7.5 3.358-7.5 7.5v16.032c0 17.396 14.152 31.548 31.548 31.548h368.742c17.396 0 31.548-14.153 31.548-31.548v-448.903c0-17.396-14.152-31.548-31.548-31.548z"/><path d="m306.014 81.668c-3.134.977-5.268 3.878-5.268 7.16v64.321c0 4.143 3.358 7.5 7.5 7.5s7.5-3.357 7.5-7.5v-40.263l29.821 43.183c2.226 3.216 5.931 4.587 9.437 3.491 3.584-1.119 5.9-4.488 5.899-8.655l-.603-62.271c-.04-4.117-3.39-7.427-7.498-7.427-.024 0-.049 0-.074 0-4.142.04-7.467 3.43-7.427 7.572l.397 41.084-31.282-45.298c-1.863-2.699-5.267-3.876-8.402-2.897z"/><path d="m235.592 81.208c-4.142 0-7.5 3.358-7.5 7.5v44.343c0 9.657 4.439 17.188 13.572 23.021 4.741 3.029 10.093 4.569 15.906 4.577h.048c5.012 0 9.716-1.089 13.981-3.237 13.449-6.772 16.271-17.011 16.271-24.408v-44.296c0-4.142-3.358-7.5-7.5-7.5s-7.5 3.358-7.5 7.5v44.296c0 3.247-.912 7.433-8.019 11.012-2.19 1.104-4.571 1.641-7.261 1.634-2.954-.004-5.521-.729-7.851-2.217-5.518-3.525-6.648-6.699-6.648-10.381v-44.344c.001-4.143-3.357-7.5-7.499-7.5z"/><path d="m80.161 88.708v64.442c0 4.143 3.358 7.5 7.5 7.5s7.5-3.357 7.5-7.5v-19.713l21.711 24.668c1.482 1.685 3.552 2.545 5.633 2.545 1.76 0 3.527-.616 4.952-1.87 3.109-2.736 3.412-7.476.675-10.585l-16.965-19.275c10.824-2.719 18.835-12.207 18.835-23.464 0-13.37-11.303-24.248-25.196-24.248h-17.124v.001c-.007 0-.014-.001-.021-.001-4.142 0-7.5 3.357-7.5 7.5zm34.841 16.747c0 5.013-4.669 9.248-10.196 9.248-1.649 0-6.059.009-9.646.021v-18.516h9.646c5.527 0 10.196 4.234 10.196 9.247z"/><path d="m256.62 400.799c-18.242.379-33.848-12.93-36.359-30.928-.231-1.653-.348-3.344-.348-5.025 0-4.143-3.358-7.5-7.5-7.5s-7.5 3.357-7.5 7.5c0 2.373.166 4.761.491 7.098 3.514 25.177 25.114 43.865 50.476 43.863.345 0 .695-.004 1.042-.011 26.573-.535 48.467-21.729 49.843-48.25.733-14.126-4.216-27.543-13.936-37.78-9.724-10.242-22.848-15.882-36.956-15.882-8.464 0-14.577.779-20.04 2.266l7.395-44.634h47.03c4.142 0 7.5-3.358 7.5-7.5s-3.358-7.5-7.5-7.5h-53.39c-3.669 0-6.799 2.655-7.399 6.274l-10.577 63.838c-.463 2.794.694 5.608 2.982 7.279 2.287 1.671 5.328 1.907 7.849.616.081-.042.606-.306 1.49-.704 6.42-2.89 11.947-4.935 24.66-4.935 9.953 0 19.214 3.981 26.078 11.21 6.859 7.224 10.352 16.697 9.834 26.674-.97 18.706-16.417 33.653-35.165 34.031z"/><path d="m178.335 160.649c21.902 0 39.721-17.818 39.721-39.721s-17.819-39.721-39.721-39.721-39.721 17.819-39.721 39.721 17.819 39.721 39.721 39.721zm0-64.441c13.631 0 24.721 11.09 24.721 24.721s-11.09 24.721-24.721 24.721-24.721-11.09-24.721-24.721c0-13.632 11.09-24.721 24.721-24.721z"/><path d="m128.258 416.322c0 21.816 17.749 39.565 39.564 39.565h176.354c21.816 0 39.564-17.749 39.564-39.565v-160.322c0-21.816-17.749-39.564-39.564-39.564h-16.032c-4.142 0-7.5 3.358-7.5 7.5s3.358 7.5 7.5 7.5h16.032c13.545 0 24.564 11.02 24.564 24.564v160.322c0 13.545-11.02 24.565-24.564 24.565h-176.353c-13.545 0-24.564-11.02-24.564-24.565v-160.322c0-13.545 11.02-24.564 24.564-24.564h128.258c4.142 0 7.5-3.358 7.5-7.5s-3.358-7.5-7.5-7.5h-128.258c-21.816 0-39.564 17.749-39.564 39.564v160.322z"/><path d="m376.235 157.52c1.405 1.395 3.304 2.177 5.284 2.177h.028c.535-.002 13.162-.051 18.206-.139 18.603-.325 32.104-16.571 32.104-38.629 0-23.188-13.163-38.768-32.754-38.768h-17.711c-1.992 0-3.901.792-5.308 2.202s-2.196 3.321-2.192 5.312c0 .001.045 24.055.045 31.185 0 8.693.082 31.364.082 31.364.007 1.989.804 3.894 2.216 5.296zm22.868-60.359c13.09 0 17.754 12.278 17.754 23.768 0 16.115-8.722 23.48-17.366 23.632-2.406.042-6.704.075-10.498.098-.024-7.395-.056-18.349-.056-23.799 0-4.554-.019-16.007-.032-23.699z"/></g></svg>