<svg id="Capa_1" enable-background="new 0 0 512 512" height="512" viewBox="0 0 512 512" width="512" xmlns="http://www.w3.org/2000/svg"><g><path d="m488.468 268.541h-8.532v-40.597c0-17.396-14.152-31.548-31.548-31.548h-88.694v-48.613c0-30.656-24.94-55.597-55.597-55.597h-96.193c-30.656 0-55.597 24.94-55.597 55.597v48.613h-88.694c-17.396 0-31.548 14.152-31.548 31.548v40.597h-8.532c-12.976 0-23.533 10.556-23.533 23.532v80.161c0 12.976 10.557 23.532 23.532 23.532h9.44c3.375 13.786 15.829 24.048 30.64 24.048h384.774c14.812 0 27.265-10.262 30.64-24.048h9.44c12.976 0 23.532-10.557 23.532-23.532v-80.161c.002-12.976-10.555-23.532-23.53-23.532zm-143.775-8.017h-17.064v-17.065h17.064zm-17.064 15h17.064v129.29h-17.064zm17.064-127.742v80.677h-17.064v-104.725c0-3.547-.597-6.954-1.681-10.139 11.261 7.223 18.745 19.843 18.745 34.187zm-48.612-40.596c9.125 0 16.548 7.423 16.548 16.548v281.081h-113.258v-193.42h88.693c4.142 0 7.5-3.358 7.5-7.5s-3.358-7.5-7.5-7.5h-88.693v-72.661c0-9.125 7.423-16.548 16.548-16.548zm-128.774 136.273h17.064v17.065h-17.064zm0-95.677c0-14.344 7.484-26.964 18.745-34.187-1.084 3.184-1.681 6.592-1.681 10.139v104.726h-17.064zm-152.307 224.452v-80.161c0-4.705 3.828-8.532 8.532-8.532h8.532v97.226h-8.532c-4.704-.001-8.532-3.829-8.532-8.533zm32.064 16.032v-160.323c0-9.125 7.423-16.548 16.548-16.548h88.694v72.662c0 4.142 3.358 7.5 7.5 7.5s7.5-3.358 7.5-7.5v-8.532h17.064v129.29h-17.064v-88.693c0-4.142-3.358-7.5-7.5-7.5s-7.5 3.358-7.5 7.5v88.693h-88.693c-9.125-.001-16.549-7.424-16.549-16.549zm401.323 16.548h-88.694v-193.419h88.694c9.125 0 16.548 7.423 16.548 16.548v160.323c.001 9.125-7.423 16.548-16.548 16.548zm48.613-32.58c0 4.705-3.828 8.532-8.532 8.532h-8.532v-97.226h8.532c4.705 0 8.532 3.828 8.532 8.532z"/></g></svg>