<svg id="Capa_1" enable-background="new 0 0 512 512" height="512" viewBox="0 0 512 512" width="512" xmlns="http://www.w3.org/2000/svg"><g><path d="m280.048 120.242h-40.081c-26.236 0-47.581 21.345-47.581 47.581 0 2.043.144 4.052.395 6.028-5.302 4.449-8.411 11.017-8.411 18.02v72.145c0 14.812 10.262 27.265 24.048 30.64v41.505c0 12.976 10.557 23.532 23.532 23.532h56.113c12.976 0 23.532-10.557 23.532-23.532v-41.829c9.308-3.139 16.032-11.946 16.032-22.3v-104.209c.002-26.237-21.343-47.581-47.579-47.581zm-40.08 15h40.081c17.965 0 32.581 14.616 32.581 32.581s-14.616 32.581-32.581 32.581h-40.081c-17.965 0-32.581-14.616-32.581-32.581 0-17.966 14.616-32.581 32.581-32.581zm48.096 209.451h-56.113c-4.705 0-8.532-3.828-8.532-8.532v-8.532h40.597c8.556 0 15.516-6.96 15.516-15.516v-16.548h17.064v40.597c.001 4.704-3.827 8.531-8.532 8.531zm16.033-64.129h-48.097c-4.142 0-7.5 3.358-7.5 7.5s3.358 7.5 7.5 7.5h8.532v16.548c0 .285-.231.516-.516.516h-40.597v-17.064h.516c4.142 0 7.5-3.358 7.5-7.5s-3.358-7.5-7.5-7.5h-8.016c-9.125 0-16.548-7.423-16.548-16.548v-71.406c4.197 6.848 10.081 12.549 17.064 16.541v14.785c0 12.976 10.557 23.532 23.532 23.532 4.142 0 7.5-3.358 7.5-7.5s-3.358-7.5-7.5-7.5c-4.705 0-8.532-3.828-8.532-8.532v-9.313c2.77.504 5.619.781 8.532.781h40.081c12.598 0 24.06-4.931 32.581-12.952v69.581c0 4.704-3.828 8.531-8.532 8.531z"/><path d="m488.468 24.048c-12.976 0-23.532 10.557-23.532 23.532v.516h-17.064v-.516c0-12.976-10.557-23.532-23.532-23.532h-336.679c-12.976 0-23.532 10.557-23.532 23.532v.516h-17.065v-.516c0-12.976-10.557-23.532-23.532-23.532s-23.532 10.557-23.532 23.533v16.032c0 12.976 10.557 23.532 23.532 23.532s23.532-10.557 23.532-23.532v-.516h17.064v.516c0 10.354 6.724 19.16 16.032 22.3v394.539c0 2.354 1.104 4.57 2.983 5.988 1.878 1.417 4.314 1.869 6.577 1.224l166.28-47.509 166.278 47.508c2.246.644 4.695.198 6.577-1.224 1.879-1.417 2.983-3.634 2.983-5.988v-394.539c9.308-3.139 16.032-11.946 16.032-22.3v-.516h17.064v.516c0 12.976 10.557 23.532 23.532 23.532s23.534-10.556 23.534-23.531v-16.032c0-12.976-10.557-23.533-23.532-23.533zm-456.404 39.565c0 4.705-3.828 8.532-8.532 8.532s-8.532-3.828-8.532-8.532v-16.032c0-4.705 3.828-8.532 8.532-8.532s8.532 3.828 8.532 8.532zm400.807 0c0 4.705-3.828 8.532-8.532 8.532h-56.113c-4.142 0-7.5 3.358-7.5 7.5s3.358 7.5 7.5 7.5h16.549v342.138l-126.714-36.204c-1.347-.385-2.774-.385-4.121 0l-126.714 36.204v-20.976c0-4.142-3.358-7.5-7.5-7.5s-7.5 3.358-7.5 7.5v30.919c0 2.354 1.104 4.57 2.983 5.988 1.878 1.417 4.313 1.871 6.577 1.224l134.214-38.347 134.214 38.346c2.246.644 4.695.198 6.577-1.224 1.879-1.417 2.983-3.634 2.983-5.988v-352.08h17.064v383.364l-158.778-45.365c-1.347-.385-2.774-.385-4.121 0l-158.778 45.365v-383.364h17.064v289.097c0 4.142 3.358 7.5 7.5 7.5s7.5-3.358 7.5-7.5v-289.097h208.936c4.142 0 7.5-3.358 7.5-7.5s-3.358-7.5-7.5-7.5h-248.5c-4.705 0-8.532-3.828-8.532-8.532v-16.032c0-4.705 3.828-8.532 8.532-8.532h336.678c4.705 0 8.532 3.828 8.532 8.532zm64.129 0c0 4.705-3.828 8.532-8.532 8.532s-8.532-3.828-8.532-8.532v-16.032c0-4.705 3.828-8.532 8.532-8.532s8.532 3.827 8.532 8.532z"/></g></svg>