<svg id="Capa_1" enable-background="new 0 0 512 512" height="512" viewBox="0 0 512 512" width="512" xmlns="http://www.w3.org/2000/svg"><g><path d="m256 0c-105.798 0-191.871 86.073-191.871 191.871 0 43.134 9.919 86.785 29.482 129.739 15.572 34.19 37.256 68.012 64.45 100.527 46.206 55.247 91.74 87.188 93.655 88.521 1.288.896 2.785 1.343 4.283 1.343s2.996-.448 4.283-1.343c1.916-1.333 47.449-33.274 93.655-88.521 27.194-32.515 48.878-66.337 64.45-100.527 19.563-42.954 29.482-86.604 29.482-129.739.002-105.798-86.071-191.871-191.869-191.871zm148.833 315.182c-14.97 32.927-35.878 65.57-62.144 97.024-36.92 44.214-74.289 73.717-86.689 83.004-12.4-9.288-49.769-38.791-86.689-83.005-26.266-31.454-47.174-64.097-62.144-97.024-18.605-40.919-28.038-82.407-28.038-123.311 0-97.526 79.344-176.87 176.871-176.87s176.871 79.344 176.871 176.871c0 40.904-9.433 82.392-28.038 123.311z"/><path d="m127.226 191.871c0-71.006 57.768-128.774 128.774-128.774 29.125 0 56.662 9.582 79.634 27.709 3.251 2.566 7.968 2.01 10.534-1.242s2.01-7.968-1.242-10.534c-25.646-20.237-56.396-30.933-88.926-30.933-79.277 0-143.774 64.497-143.774 143.774 0 32.53 10.697 63.28 30.934 88.926 1.48 1.876 3.675 2.854 5.893 2.854 1.626 0 3.265-.527 4.641-1.613 3.251-2.566 3.808-7.282 1.242-10.534-18.129-22.972-27.71-50.509-27.71-79.633z"/><path d="m358.307 101.703c-3.251 2.566-3.808 7.282-1.242 10.534 18.127 22.972 27.709 50.509 27.709 79.634 0 51.107-29.928 95.355-73.178 116.142v-37.729c9.308-3.139 16.032-11.946 16.032-22.3v-104.21c0-26.236-21.345-47.581-47.581-47.581h-40.081c-26.236 0-47.581 21.344-47.581 47.581 0 2.043.144 4.052.395 6.028-5.302 4.449-8.411 11.017-8.411 18.02v72.145c0 14.812 10.262 27.265 24.048 30.64v40.929c-11.374-4.557-22.14-10.778-32.053-18.601-3.25-2.565-7.967-2.01-10.534 1.242-2.566 3.252-2.01 7.968 1.242 10.534 25.646 20.237 56.396 30.934 88.926 30.934 79.277 0 143.774-64.497 143.774-143.774 0-32.531-10.697-63.281-30.934-88.926-2.563-3.252-7.278-3.808-10.531-1.242zm-118.339 9.491h40.081c17.965 0 32.581 14.615 32.581 32.581s-14.616 32.581-32.581 32.581h-40.081c-17.965 0-32.581-14.615-32.581-32.581s14.616-32.581 32.581-32.581zm-40.597 128.774v-71.406c4.197 6.848 10.081 12.549 17.064 16.541v14.785c0 12.976 10.557 23.532 23.532 23.532 4.142 0 7.5-3.358 7.5-7.5s-3.358-7.5-7.5-7.5c-4.705 0-8.532-3.828-8.532-8.532v-9.314c2.77.504 5.619.781 8.532.781h40.081c12.598 0 24.06-4.931 32.581-12.952v69.582c0 4.705-3.828 8.532-8.532 8.532h-48.097c-4.142 0-7.5 3.358-7.5 7.5s3.358 7.5 7.5 7.5h8.532v16.548c0 .285-.231.516-.516.516h-40.597v-17.064h.516c4.142 0 7.5-3.358 7.5-7.5s-3.358-7.5-7.5-7.5h-8.016c-9.125-.001-16.548-7.424-16.548-16.549zm24.048 76.511v-12.898h40.597c8.556 0 15.516-6.96 15.516-15.516v-16.548h17.064v42.567c-12.769 4.252-26.417 6.562-40.597 6.562-11.149-.001-22.062-1.417-32.58-4.167z"/></g></svg>