<svg id="Capa_1" enable-background="new 0 0 512 512" height="512" viewBox="0 0 512 512" width="512" xmlns="http://www.w3.org/2000/svg"><g><path d="m224.452 238.544v41.505c0 12.976 10.557 23.532 23.532 23.532h56.113c12.976 0 23.532-10.557 23.532-23.532v-41.829c9.308-3.139 16.032-11.946 16.032-22.3v-104.21c0-26.236-21.345-47.581-47.581-47.581h-40.08c-26.236 0-47.581 21.345-47.581 47.581 0 2.043.144 4.052.395 6.028-5.302 4.449-8.411 11.017-8.411 18.02v72.146c0 14.811 10.263 27.264 24.049 30.64zm79.645 50.037h-56.113c-4.705 0-8.532-3.828-8.532-8.532v-8.532h40.597c8.556 0 15.516-6.96 15.516-15.516v-16.548h17.064v40.597c0 4.703-3.828 8.531-8.532 8.531zm-48.097-209.452h40.081c17.965 0 32.581 14.616 32.581 32.581s-14.616 32.581-32.581 32.581h-40.081c-17.965 0-32.581-14.616-32.581-32.581s14.616-32.581 32.581-32.581zm-23.532 73.909v14.785c0 12.976 10.557 23.532 23.532 23.532 4.142 0 7.5-3.358 7.5-7.5s-3.358-7.5-7.5-7.5c-4.705 0-8.532-3.828-8.532-8.532v-9.314c2.77.504 5.619.781 8.532.781h40.081c12.598 0 24.06-4.931 32.581-12.952v69.581c0 4.705-3.828 8.532-8.532 8.532h-48.097c-4.142 0-7.5 3.358-7.5 7.5s3.358 7.5 7.5 7.5h8.532v16.549c0 .285-.231.516-.516.516h-40.597v-17.064h.516c4.142 0 7.5-3.358 7.5-7.5s-3.358-7.5-7.5-7.5h-8.016c-9.125 0-16.548-7.423-16.548-16.548v-71.406c4.196 6.847 10.081 12.548 17.064 16.54z"/><path d="m207.903 367.709h128.258c12.976 0 23.532-10.557 23.532-23.532s-10.557-23.532-23.532-23.532h-128.258c-12.976 0-23.532 10.557-23.532 23.532s10.557 23.532 23.532 23.532zm0-32.064h128.258c4.705 0 8.532 3.828 8.532 8.532s-3.828 8.532-8.532 8.532h-128.258c-4.705 0-8.532-3.828-8.532-8.532s3.828-8.532 8.532-8.532z"/><path d="m328.145 384.774h-112.226c-4.142 0-7.5 3.358-7.5 7.5s3.358 7.5 7.5 7.5h112.226c4.142 0 7.5-3.358 7.5-7.5s-3.358-7.5-7.5-7.5z"/><path d="m432.355 0h-336.678c-17.396 0-31.548 14.152-31.548 31.548v448.903c0 17.396 14.152 31.548 31.548 31.548h336.678c8.556 0 15.516-6.96 15.516-15.516v-480.967c0-8.556-6.96-15.516-15.516-15.516zm-336.678 15h.516v369.258c0 4.142 3.358 7.5 7.5 7.5s7.5-3.358 7.5-7.5v-369.258h321.162c.285 0 .516.231.516.516v417.355h-321.678v-16.548c0-4.142-3.358-7.5-7.5-7.5s-7.5 3.358-7.5 7.5v16.548h-.516c-6.065 0-11.734 1.725-16.548 4.703v-406.026c0-9.125 7.423-16.548 16.548-16.548zm336.678 482h-336.678c-9.125 0-16.548-7.424-16.548-16.548v-16.032c0-9.125 7.423-16.548 16.548-16.548h337.194v17.064h-329.178c-4.142 0-7.5 3.358-7.5 7.5s3.358 7.5 7.5 7.5h329.178v16.548c0 .285-.231.516-.516.516z"/></g></svg>