<svg id="Capa_1" enable-background="new 0 0 512 512" height="512" viewBox="0 0 512 512" width="512" xmlns="http://www.w3.org/2000/svg"><g><path d="m510.214 225.968c-.859-7.271-6.824-12.992-14.183-13.604l-37.423-3.119c-5.166-22.499-13.995-43.787-26.304-63.424l24.279-28.693c4.771-5.639 4.942-13.902.409-19.648-6.258-7.934-12.978-15.504-19.973-22.499s-14.564-13.715-22.498-19.972c-5.747-4.534-14.01-4.362-19.65.408l-28.693 24.279c-19.638-12.309-40.926-21.138-63.424-26.304l-3.119-37.423c-.613-7.359-6.334-13.324-13.604-14.183-10.032-1.185-20.136-1.786-30.031-1.786s-19.999.601-30.032 1.786c-7.27.859-12.991 6.823-13.604 14.183l-3.119 37.423c-22.498 5.166-43.786 13.995-63.424 26.304l-28.693-24.279c-5.639-4.77-13.902-4.94-19.648-.408-7.934 6.258-15.503 12.978-22.499 19.973s-13.715 14.565-19.973 22.498c-4.534 5.748-4.362 14.011.408 19.649l24.279 28.693c-12.309 19.637-21.138 40.925-26.304 63.424l-37.422 3.119c-7.36.612-13.325 6.333-14.184 13.604-1.184 10.031-1.785 20.135-1.785 30.031 0 9.895.601 20 1.786 30.032.859 7.27 6.824 12.991 14.183 13.604l37.423 3.119c5.166 22.498 13.995 43.786 26.304 63.424l-24.279 28.693c-4.77 5.638-4.941 13.902-.408 19.648 6.257 7.933 12.977 15.502 19.973 22.499 6.992 6.992 14.562 13.712 22.499 19.973 5.748 4.533 14.011 4.362 19.649-.409l28.692-24.278c19.637 12.309 40.925 21.138 63.424 26.304l3.119 37.423c.613 7.361 6.335 13.326 13.604 14.183 10.03 1.184 20.135 1.785 30.031 1.785s20.001-.601 30.03-1.786c7.271-.856 12.993-6.821 13.606-14.183l3.119-37.423c22.499-5.166 43.787-13.995 63.424-26.304l28.692 24.278c5.639 4.772 13.902 4.943 19.649.41 7.937-6.261 15.506-12.981 22.498-19.973 6.997-6.997 13.716-14.566 19.973-22.498 4.533-5.747 4.361-14.011-.409-19.649l-24.279-28.693c12.309-19.638 21.138-40.926 26.304-63.424l37.423-3.119c7.359-.613 13.324-6.335 14.183-13.604 1.186-10.032 1.787-20.137 1.787-30.032 0-9.896-.601-20-1.786-30.032zm-14.896 58.304c-.021.178-.245.392-.533.416l-42.961 3.58c-3.327.277-6.071 2.721-6.729 5.995-4.925 24.472-14.463 47.473-28.352 68.366-1.848 2.78-1.636 6.448.521 8.997l27.869 32.935c.187.22.193.53.083.671-5.894 7.472-12.22 14.599-18.803 21.181-6.578 6.579-13.704 12.904-21.181 18.802-.14.111-.45.104-.67-.083l-32.935-27.868c-2.549-2.156-6.216-2.367-8.997-.521-20.892 13.888-43.894 23.427-68.367 28.352-3.273.659-5.717 3.402-5.995 6.729l-3.58 42.961c-.024.288-.237.512-.416.532-9.449 1.117-18.961 1.683-28.272 1.683s-18.823-.566-28.274-1.683c-.176-.021-.39-.244-.414-.532l-3.58-42.961c-.277-3.327-2.721-6.071-5.995-6.729-24.473-4.925-47.475-14.464-68.367-28.352-1.263-.839-2.709-1.254-4.151-1.254-1.731 0-3.455.598-4.846 1.774l-32.935 27.869c-.219.186-.53.194-.67.083-7.477-5.898-14.604-12.224-21.182-18.802-6.583-6.583-12.908-13.709-18.802-21.182-.111-.14-.104-.45.083-.67l27.869-32.936c2.156-2.549 2.369-6.216.521-8.997-13.888-20.893-23.427-43.895-28.352-68.366-.659-3.273-3.402-5.717-6.729-5.995l-42.961-3.58c-.288-.024-.512-.238-.533-.416-1.116-9.449-1.682-18.961-1.682-28.271s.566-18.822 1.682-28.272c.021-.177.244-.392.533-.416l42.961-3.58c3.327-.277 6.071-2.721 6.729-5.995 4.925-24.473 14.464-47.474 28.352-68.366 1.848-2.78 1.636-6.448-.521-8.997l-27.869-32.936c-.187-.22-.193-.529-.083-.67 5.895-7.474 12.221-14.601 18.802-21.182s13.709-12.906 21.184-18.801c.139-.111.449-.104.669.083l32.936 27.869c2.55 2.157 6.217 2.368 8.997.521 20.893-13.888 43.895-23.427 68.366-28.352 3.273-.659 5.717-3.402 5.995-6.729l3.58-42.961c.024-.288.238-.511.416-.532 9.449-1.118 18.961-1.684 28.271-1.684s18.822.566 28.272 1.682c.177.021.392.245.416.532l3.58 42.961c.277 3.327 2.721 6.071 5.995 6.729 24.472 4.925 47.473 14.463 68.366 28.352 2.78 1.848 6.448 1.637 8.997-.521l32.935-27.869c.22-.187.53-.193.671-.083 7.474 5.895 14.6 12.221 21.181 18.802s12.907 13.708 18.803 21.183c.11.14.104.449-.083.669l-27.869 32.936c-2.156 2.549-2.369 6.216-.521 8.997 13.888 20.892 23.427 43.894 28.352 68.366.659 3.273 3.402 5.717 6.729 5.995l42.962 3.58c.288.024.511.238.532.416 1.116 9.451 1.682 18.963 1.682 28.273s-.566 18.822-1.682 28.272z"/><path d="m356.402 142.157c-3.106-2.741-7.845-2.445-10.586.66s-2.445 7.845.66 10.586c29.434 25.977 46.315 63.372 46.315 102.597 0 58.702-37.171 108.881-89.209 128.25v-54.467c4.909-4.316 8.016-10.635 8.016-17.67v-41.829c9.308-3.139 16.032-11.946 16.032-22.3v-104.21c0-26.236-21.345-47.581-47.581-47.581h-40.081c-26.236 0-47.581 21.345-47.581 47.581 0 2.043.144 4.052.395 6.028-5.302 4.449-8.411 11.017-8.411 18.02v72.145c0 14.812 10.262 27.265 24.048 30.64v41.505c0 7.035 3.107 13.354 8.017 17.67v57.166c-56.196-17.01-97.227-69.274-97.227-130.948 0-41.346 18.416-80.042 50.527-106.167 3.213-2.614 3.698-7.338 1.084-10.551-2.614-3.212-7.338-3.698-10.551-1.084-35.627 28.986-56.06 71.923-56.06 117.803 0 83.698 68.093 151.791 151.791 151.791s151.791-68.094 151.791-151.792c0-43.525-18.731-85.02-51.389-113.843zm-132.983 169.956v-8.532h40.597c8.556 0 15.516-6.96 15.516-15.516v-16.548h17.064v40.597c0 4.705-3.828 8.532-8.532 8.532h-56.113c-4.704-.001-8.532-3.829-8.532-8.533zm16.549-200.92h40.081c17.965 0 32.581 14.616 32.581 32.581s-14.616 32.581-32.581 32.581h-40.081c-17.965 0-32.581-14.616-32.581-32.581s14.616-32.581 32.581-32.581zm-40.597 128.775v-71.406c4.197 6.848 10.081 12.549 17.064 16.541v14.785c0 12.976 10.557 23.532 23.532 23.532 4.142 0 7.5-3.358 7.5-7.5s-3.358-7.5-7.5-7.5c-4.705 0-8.532-3.828-8.532-8.532v-9.314c2.77.504 5.619.781 8.532.781h40.081c12.598 0 24.06-4.931 32.581-12.952v69.581c0 4.705-3.828 8.532-8.532 8.532h-48.097c-4.142 0-7.5 3.358-7.5 7.5s3.358 7.5 7.5 7.5h8.532v16.548c0 .285-.231.516-.516.516h-40.597v-17.064h.516c4.142 0 7.5-3.358 7.5-7.5s-3.358-7.5-7.5-7.5h-8.016c-9.125 0-16.548-7.423-16.548-16.548zm32.065 150.609v-54.945c.172.004.343.013.516.013h56.113c.173 0 .344-.009.517-.013v53.227c-10.446 2.562-21.356 3.931-32.581 3.931-8.385.001-16.594-.762-24.565-2.213z"/></g></svg>