<svg id="Capa_1" enable-background="new 0 0 511.993 511.993" height="512" viewBox="0 0 511.993 511.993" width="512" xmlns="http://www.w3.org/2000/svg"><g><path d="m511.803 422.21-36.315-283.262c-1.319-10.288-8.636-18.548-18.147-21.447v-58.237c0-13.043-10.611-23.654-23.654-23.654h-355.38c-13.043 0-23.654 10.611-23.654 23.654v58.236c-9.51 2.899-16.828 11.158-18.147 21.447l-36.316 283.263c-1.626 12.686 7.343 24.531 19.995 26.406l185.649 27.503c6.458.955 12.854-.727 18.006-4.741 5.151-4.015 8.346-9.805 8.996-16.303l12.861-128.608c.531-5.313 4.958-9.32 10.298-9.32s9.767 4.007 10.298 9.32l12.861 128.609c.65 6.499 3.845 12.289 8.996 16.303 5.147 4.028 11.631 5.7 18.006 4.741l185.649-27.503c12.655-1.876 21.624-13.722 19.998-26.407zm-433.496-371.599h355.38c4.771 0 8.654 3.882 8.654 8.654v9.412c-7.769 1.638-12.631 5.662-16.706 9.054-4.423 3.681-7.619 6.341-14.611 6.341-6.991 0-10.187-2.66-14.61-6.341-5.252-4.372-11.79-9.812-24.207-9.812-12.412 0-18.945 5.441-24.195 9.813-4.419 3.681-7.612 6.34-14.595 6.34-6.973 0-10.162-2.658-14.576-6.338-5.247-4.373-11.775-9.815-24.181-9.815-12.404 0-18.933 5.443-24.178 9.816-4.413 3.679-7.602 6.337-14.573 6.337-6.975 0-10.165-2.659-14.58-6.338-5.247-4.373-11.776-9.815-24.183-9.815s-18.936 5.442-24.183 9.815c-4.415 3.679-7.604 6.338-14.579 6.338s-10.165-2.659-14.579-6.338c-5.247-4.373-11.776-9.815-24.183-9.815-12.403 0-18.93 5.443-24.175 9.816-4.412 3.679-7.6 6.337-14.569 6.337-6.964 0-10.149-2.658-14.558-6.336-4.066-3.392-8.917-7.416-16.667-9.057v-9.414c0-4.773 3.882-8.654 8.654-8.654zm136.314 408.936c-1.884 1.468-4.223 2.083-6.587 1.734l-185.65-27.503c-4.628-.686-7.91-5.02-7.315-9.661l1.078-8.407 202.552 30.008-.786 7.865c-.239 2.377-1.408 4.495-3.292 5.964zm16.152-134.574-10.58 105.802-202.139-29.946 33.33-259.973c.693-5.402 5.323-9.477 10.769-9.477h24.23c4.142 0 7.5-3.358 7.5-7.5s-3.358-7.5-7.5-7.5h-16.73v-32.02c2.544 1.133 4.614 2.856 7.058 4.895 5.243 4.374 11.769 9.817 24.167 9.817 12.403 0 18.931-5.443 24.176-9.816 4.412-3.679 7.6-6.337 14.569-6.337 6.975 0 10.165 2.659 14.579 6.338 5.247 4.373 11.776 9.815 24.183 9.815s18.936-5.442 24.183-9.815c4.415-3.679 7.604-6.338 14.579-6.338s10.165 2.659 14.579 6.338c5.247 4.373 11.777 9.815 24.183 9.815 12.404 0 18.933-5.443 24.178-9.816 4.413-3.679 7.601-6.337 14.573-6.337 6.973 0 10.162 2.658 14.576 6.338 5.247 4.373 11.775 9.815 24.181 9.815 12.412 0 18.945-5.441 24.195-9.813 4.419-3.681 7.612-6.34 14.595-6.34 6.992 0 10.188 2.66 14.611 6.341 5.252 4.372 11.789 9.812 24.206 9.812s18.954-5.44 24.207-9.812c2.461-2.049 4.544-3.779 7.11-4.912v32.032h-323.651c-4.142 0-7.5 3.358-7.5 7.5s3.358 7.5 7.5 7.5h129.711v171.921c-9.475 2.951-16.59 11.29-17.628 21.673zm258.836 108.805-185.649 27.503c-2.364.348-4.703-.267-6.587-1.734-1.885-1.469-3.053-3.587-3.291-5.964l-.787-7.865 149.568-22.158c4.097-.607 6.927-4.42 6.32-8.518-.607-4.097-4.416-6.93-8.518-6.32l-148.864 22.054-10.58-105.802c-1.045-10.453-8.249-18.835-17.819-21.732v-171.863h186.438c5.446 0 10.076 4.074 10.769 9.476l33.33 259.974-20.968 3.106c-4.098.607-6.927 4.421-6.32 8.518.552 3.725 3.753 6.402 7.41 6.402.365 0 .736-.027 1.108-.082l20.677-3.063 1.078 8.407c.596 4.641-2.686 8.975-7.315 9.661z"/></g></svg>