<svg id="Capa_1" enable-background="new 0 0 512 512" height="512" viewBox="0 0 512 512" width="512" xmlns="http://www.w3.org/2000/svg"><g><path d="m159.291 466.168v-97.943c0-8.556-6.96-15.516-15.516-15.516h-.516v-104.725c0-21.816-17.749-39.564-39.565-39.564s-39.564 17.749-39.564 39.564v168.339c0 13.545-11.02 24.564-24.564 24.564s-24.566-11.019-24.566-24.564v-320.646c0-44.486 36.192-80.677 80.678-80.677 44.485 0 80.677 36.191 80.677 80.677v56.113c0 4.142 3.358 7.5 7.5 7.5s7.5-3.358 7.5-7.5v-56.113c0-52.757-42.921-95.677-95.678-95.677-52.756 0-95.677 42.92-95.677 95.677v320.646c0 21.816 17.749 39.564 39.564 39.564s39.564-17.749 39.564-39.564v-168.339c0-13.545 11.02-24.564 24.564-24.564s24.565 11.02 24.565 24.564v104.726h-.517c-8.556 0-15.516 6.96-15.516 15.516v97.943c-9.308 3.139-16.032 11.946-16.032 22.3 0 12.976 10.557 23.532 23.532 23.532h32.065c12.976 0 23.532-10.557 23.532-23.532.002-10.355-6.722-19.161-16.03-22.301zm-31.549-98.459h16.033c.285 0 .516.231.516.516v96.71h-17.065v-96.71c0-.284.231-.516.516-.516zm24.049 129.291h-32.065c-4.705 0-8.532-3.828-8.532-8.532s3.828-8.532 8.532-8.532h32.065c4.705 0 8.532 3.828 8.532 8.532s-3.828 8.532-8.532 8.532z"/><path d="m416.322 0c-52.757 0-95.677 42.92-95.677 95.677v152.307c0 35.646-29 64.645-64.645 64.645s-64.645-29-64.645-64.645v-64.129c0-4.142-3.358-7.5-7.5-7.5s-7.5 3.358-7.5 7.5v64.129c0 43.917 35.729 79.645 79.645 79.645s79.645-35.729 79.645-79.645v-152.307c0-44.486 36.192-80.677 80.678-80.677 44.485 0 80.677 36.191 80.677 80.677v320.646c0 13.545-11.02 24.564-24.564 24.564s-24.564-11.02-24.564-24.564v-168.339c0-21.816-17.749-39.564-39.564-39.564-21.816 0-39.565 17.749-39.565 39.564v104.726h-.516c-8.556 0-15.516 6.96-15.516 15.516v56.113c0 4.142 3.358 7.5 7.5 7.5s7.5-3.358 7.5-7.5v-56.113c0-.285.231-.516.516-.516h16.033c.285 0 .516.231.516.516v96.71h-17.065v-8.532c0-4.142-3.358-7.5-7.5-7.5s-7.5 3.358-7.5 7.5v9.765c-9.308 3.139-16.032 11.946-16.032 22.3 0 12.976 10.557 23.532 23.532 23.532h32.065c12.976 0 23.532-10.557 23.532-23.532 0-10.354-6.724-19.16-16.032-22.3v-97.943c0-8.556-6.96-15.516-15.516-15.516h-.517v-104.726c0-13.545 11.02-24.564 24.565-24.564s24.564 11.02 24.564 24.564v168.339c0 21.816 17.749 39.564 39.564 39.564s39.564-17.748 39.564-39.564v-320.646c0-52.757-42.921-95.677-95.678-95.677zm-24.048 497h-32.065c-4.705 0-8.532-3.828-8.532-8.532s3.828-8.532 8.532-8.532h32.065c4.705 0 8.532 3.828 8.532 8.532s-3.827 8.532-8.532 8.532z"/></g></svg>