<svg id="Capa_1" enable-background="new 0 0 512 512" height="512" viewBox="0 0 512 512" width="512" xmlns="http://www.w3.org/2000/svg"><g><path d="m512 183.862c0-.002 0-.004 0-.007 0-2.876-1.645-5.499-4.233-6.751l-248.5-120.242c-2.063-.999-4.47-.999-6.533 0l-248.5 120.242c-2.589 1.253-4.233 3.875-4.233 6.751v144.29h.008c.002 2.784 1.552 5.458 4.226 6.752l248.5 120.242c1.032.499 2.149.749 3.267.749s2.235-.25 3.267-.749l248.5-120.242c2.674-1.294 4.224-3.968 4.226-6.752h.005zm-497 52.034 33.265 16.096-33.265 16.096zm91.9 4.388 141.6 68.516v23.417l-141.514-68.474c-3.729-1.804-8.214-.244-10.018 3.484-1.804 3.729-.244 8.214 3.484 10.018l148.048 71.635v39.45l-223.78-108.282zm156.6 108.596 183.017-88.556 40.764 19.725-223.781 108.281zm200.236-96.888 33.264-16.095v32.191zm-.653-39.765 24.197 11.708-40.764 19.725-24.198-11.708zm17.22-8.332 16.697-8.079v16.159zm-51.006 48.097-165.797 80.224v-23.417l141.6-68.516zm-173.297 43.773-131.881-63.813 131.881-63.813 131.881 63.813zm-7.5-140.661-141.6 68.516-40.764-19.724 182.364-88.242zm-158.819 76.848-24.197 11.708-40.764-19.724 24.197-11.708zm-74.681-19.977v-16.16l16.698 8.08zm0 80.034 233.5 112.984v31.433l-233.5-112.984zm248.5 112.984 233.5-112.984v31.433l-233.5 112.984zm141.6-181.373-141.6-68.516v-39.45l155.278 75.135c3.727 1.803 8.213.244 10.018-3.485 1.804-3.729.244-8.213-3.484-10.018l-161.812-78.295v-23.417l223.781 108.281zm-156.6-148.046v23.417l-199.583 96.573-24.197-11.709z"/></g></svg>