<svg id="Capa_1" enable-background="new 0 0 512 512" height="512" viewBox="0 0 512 512" width="512" xmlns="http://www.w3.org/2000/svg"><g><path d="m246.547 320.918h32.064c8.556 0 15.517-6.96 15.517-15.516v-22.411c4.909-4.316 8.016-10.635 8.016-17.67v-48.097c0-12.976-10.557-23.532-23.533-23.532h-24.048c-12.976 0-23.532 10.557-23.532 23.532v8.016c0 12.976 10.557 23.532 23.532 23.532h24.048c3.009 0 5.885-.574 8.533-1.608v18.156c0 4.705-3.828 8.532-8.533 8.532h-40.081c-9.125 0-16.548-7.423-16.548-16.548v-32.064c0-4.142-3.358-7.5-7.5-7.5s-7.5 3.358-7.5 7.5v32.064c0 14.812 10.262 27.265 24.048 30.64v17.457c.001 8.557 6.961 15.517 15.517 15.517zm32.064-87.145h-24.048c-4.705 0-8.532-3.828-8.532-8.532v-8.016c0-4.705 3.828-8.532 8.532-8.532h24.048c4.705 0 8.533 3.828 8.533 8.532v8.016c0 4.705-3.828 8.532-8.533 8.532zm.517 55.068v16.562c0 .285-.232.516-.517.516h-32.064c-.285 0-.516-.231-.516-.516v-16.548h32.581c.173-.001.344-.01.516-.014z"/><path d="m488.468 176.355h-16.032c-4.142 0-7.5 3.358-7.5 7.5s3.358 7.5 7.5 7.5h16.032c4.705 0 8.532 3.828 8.532 8.532v112.226c0 4.705-3.828 8.532-8.532 8.532h-83.886c-25.816 0-49.855 8.875-67.69 24.989-22.213 20.071-50.941 31.124-80.892 31.124s-58.679-11.053-80.892-31.124c-17.835-16.115-41.874-24.989-67.69-24.989h-83.886c-4.705 0-8.532-3.828-8.532-8.532v-112.226c0-4.705 3.828-8.532 8.532-8.532h83.886c25.816 0 49.855-8.875 67.69-24.989 22.213-20.071 50.941-31.124 80.892-31.124s58.679 11.053 80.892 31.124c17.835 16.115 41.874 24.989 67.69 24.989h35.79c4.142 0 7.5-3.358 7.5-7.5s-3.358-7.5-7.5-7.5h-35.79c-22.093 0-42.561-7.5-57.633-21.119-24.975-22.566-57.274-34.994-90.948-34.994s-65.973 12.428-90.948 34.994c-15.072 13.619-35.54 21.119-57.633 21.119h-83.888c-12.975 0-23.532 10.557-23.532 23.532v112.226c0 12.976 10.557 23.532 23.532 23.532h83.886c22.093 0 42.561 7.5 57.633 21.119 24.975 22.566 57.274 34.994 90.948 34.994s65.973-12.428 90.948-34.994c15.072-13.619 35.54-21.119 57.633-21.119h83.886c12.976 0 23.532-10.557 23.532-23.532v-112.226c.002-12.975-10.555-23.532-23.53-23.532z"/><path d="m40.081 256c0 26.236 21.345 47.581 47.581 47.581s47.581-21.345 47.581-47.581-21.345-47.581-47.581-47.581-47.581 21.345-47.581 47.581zm80.161 0c0 17.965-14.616 32.581-32.581 32.581s-32.58-14.616-32.58-32.581 14.616-32.581 32.581-32.581 32.58 14.616 32.58 32.581z"/><path d="m376.758 256c0 26.236 21.345 47.581 47.581 47.581s47.581-21.345 47.581-47.581-21.345-47.581-47.581-47.581-47.581 21.345-47.581 47.581zm80.161 0c0 17.965-14.616 32.581-32.581 32.581s-32.58-14.616-32.58-32.581 14.616-32.581 32.581-32.581 32.58 14.616 32.58 32.581z"/><path d="m322.104 185.784c2.598-3.226 2.089-7.947-1.137-10.545-18.362-14.788-41.434-22.932-64.967-22.932-57.177 0-103.693 46.517-103.693 103.693s46.516 103.693 103.693 103.693 103.693-46.516 103.693-103.693c0-19.345-5.46-38.305-15.789-54.831-2.195-3.512-6.822-4.58-10.335-2.385s-4.58 6.823-2.385 10.335c8.837 14.139 13.509 30.35 13.509 46.88 0 48.906-39.788 88.693-88.693 88.693s-88.693-39.786-88.693-88.692 39.788-88.693 88.693-88.693c20.414 0 39.625 6.783 55.559 19.615 3.227 2.598 7.947 2.088 10.545-1.138z"/></g></svg>