<svg id="Capa_1" enable-background="new 0 0 512 512" height="512" viewBox="0 0 512 512" width="512" xmlns="http://www.w3.org/2000/svg"><g><path d="m440.371 32.064h-1.238c-3.516-18.24-19.591-32.064-38.842-32.064h-288.582c-19.251 0-35.326 13.824-38.842 32.064h-1.238c-21.816 0-39.564 17.749-39.564 39.564v288.581c-.001 83.698 68.092 151.791 151.79 151.791h144.29c83.698 0 151.791-68.093 151.791-151.791v-288.58c0-21.816-17.749-39.565-39.565-39.565zm-64.129 168.339h-16.032c-4.142 0-7.5 3.358-7.5 7.5s3.358 7.5 7.5 7.5h16.032c15.064 0 29.05-4.685 40.597-12.66v29.208c0 10.926-7.172 20.205-17.054 23.386-18.609-14.752-41.803-22.87-65.627-22.87h-156.315c-23.834 0-47.016 8.114-65.629 22.869-9.881-3.182-17.053-12.46-17.053-23.385v-29.208c11.548 7.975 25.533 12.66 40.597 12.66h192.387c4.142 0 7.5-3.358 7.5-7.5s-3.358-7.5-7.5-7.5h-192.387c-31.226 0-56.629-25.404-56.629-56.629v-96.71h353.742v96.71c0 31.226-25.404 56.629-56.629 56.629zm-264.533-185.403h288.581c10.93 0 20.211 7.177 23.389 17.064h-335.359c3.178-9.887 12.46-17.064 23.389-17.064zm-64.645 345.209v-288.58c0-10.93 7.177-20.211 17.064-23.389v95.535c0 17.08 6.017 32.775 16.032 45.098v43.079c0 21.816 17.749 39.564 39.564 39.564h8.016c17.965 0 32.581 14.616 32.581 32.581v24.048c0 17.965-14.616 32.581-32.581 32.581h-8.455c-11.016 0-21.104 5.603-26.984 14.987-5.691 9.082-6.335 20.184-1.724 29.7 8.368 17.266 21.343 31.866 37.523 42.22 16.634 10.645 35.913 16.271 55.753 16.271h16.032c4.142 0 7.5-3.358 7.5-7.5s-3.358-7.5-7.5-7.5h-16.032c-34.252 0-64.822-19.171-79.778-50.033-2.379-4.91-2.038-10.447.937-15.193 3.12-4.979 8.456-7.952 14.273-7.952h8.455c26.236 0 47.581-21.345 47.581-47.581v-24.048c0-23.185-16.673-42.539-38.657-46.729 12.669-6.45 26.784-9.9 41.177-9.9h156.314c14.388 0 28.51 3.449 41.181 9.899-21.985 4.189-38.661 23.543-38.661 46.73v24.048c0 26.236 21.345 47.581 47.581 47.581h8.455c5.817 0 11.153 2.973 14.273 7.952 2.974 4.746 3.315 10.284.937 15.193-14.957 30.862-45.526 50.033-79.778 50.033h-96.193c-4.142 0-7.5 3.358-7.5 7.5s3.358 7.5 7.5 7.5h16.55v33.096h-64.645c-75.427 0-136.791-61.364-136.791-136.791zm417.872 0c0 75.427-61.364 136.791-136.791 136.791h-64.645v-33.097h64.645c19.84 0 39.119-5.626 55.753-16.271 16.18-10.354 29.156-24.954 37.523-42.221 4.611-9.515 3.967-20.618-1.724-29.699-5.88-9.384-15.968-14.987-26.984-14.987h-8.455c-17.965 0-32.581-14.616-32.581-32.581v-24.048c0-17.965 14.616-32.581 32.581-32.581h8.016c21.816 0 39.564-17.749 39.564-39.564v-43.079c10.015-12.323 16.032-28.018 16.032-45.098v-95.534c9.887 3.178 17.064 12.46 17.064 23.389v288.58z"/></g></svg>