<svg id="Capa_1" enable-background="new 0 0 512 512" height="512" viewBox="0 0 512 512" width="512" xmlns="http://www.w3.org/2000/svg"><g><path d="m344.177 0h-144.29c-35.076 0-63.613 28.537-63.613 63.613v45.82c-19.377 9.059-32.065 28.667-32.065 50.374v144.29c0 31.254 20.129 57.879 48.097 67.639v116.733c0 12.976 10.557 23.532 23.532 23.532h176.354c12.976 0 23.532-10.557 23.532-23.532v-124.7c19.309-12.845 32.065-34.793 32.065-59.672v-240.484c.002-35.076-28.535-63.613-63.612-63.613zm16.549 488.468c0 4.705-3.828 8.532-8.532 8.532h-176.355c-4.705 0-8.532-3.828-8.532-8.532v-8.532h152.822c12.976 0 23.532-10.557 23.532-23.532v-81.072c5.931-.62 11.65-1.963 17.064-3.946v117.082zm32.065-184.371c0 31.225-25.404 56.629-56.629 56.629h-16.032c-4.142 0-7.5 3.358-7.5 7.5s3.358 7.5 7.5 7.5h8.532v80.678c0 4.705-3.828 8.532-8.532 8.532h-152.823v-89.736c2.8.334 5.644.526 8.532.526h112.226c4.142 0 7.5-3.358 7.5-7.5s-3.358-7.5-7.5-7.5h-64.645v-.516c0-17.396-14.152-31.548-31.548-31.548h-16.032c-13.545 0-24.564-11.02-24.564-24.564v-96.193c0-4.142-3.358-7.5-7.5-7.5s-7.5 3.358-7.5 7.5v96.193c0 21.816 17.749 39.564 39.564 39.564h16.032c9.125 0 16.548 7.423 16.548 16.548v.516h-32.581c-31.226 0-56.629-25.404-56.629-56.629v-144.29c0-13.987 7.21-26.784 18.625-34.146 1.417 6.304 3.77 12.254 6.909 17.701-5.489 6.939-8.469 15.446-8.469 24.461v8.016c0 4.142 3.358 7.5 7.5 7.5s7.5-3.358 7.5-7.5v-8.016c0-4.212 1.045-8.247 3.014-11.823 8.103 8.34 18.458 14.476 30.083 17.401v34.503c0 21.816 17.749 39.564 39.564 39.564 4.142 0 7.5-3.358 7.5-7.5s-3.358-7.5-7.5-7.5c-13.545 0-24.564-11.02-24.564-24.564v-32.594c.173.001.343.013.516.013h112.226c35.076 0 63.613-28.537 63.613-63.613v-16.033c0-4.705 3.828-8.532 8.533-8.532s8.532 3.828 8.532 8.532v208.42zm0-230.351c-2.646-1.033-5.525-1.601-8.533-1.601-12.976 0-23.532 10.557-23.532 23.532v16.032c0 26.806-21.808 48.613-48.613 48.613h-112.226c-26.805 0-48.613-21.808-48.613-48.613v-48.096c0-26.805 21.808-48.613 48.613-48.613h144.29c26.806 0 48.613 21.808 48.613 48.613v10.133z"/></g></svg>