<svg id="Capa_1" enable-background="new 0 0 512 512" height="512" viewBox="0 0 512 512" width="512" xmlns="http://www.w3.org/2000/svg"><g><path d="m320.129 272.549c-2.043 0-4.052.144-6.028.395-4.449-5.302-11.017-8.411-18.02-8.411h-72.145c-14.812 0-27.265 10.262-30.64 24.048h-41.505c-7.035 0-13.354 3.107-17.67 8.016h-126.621c-4.142 0-7.5 3.358-7.5 7.5s3.358 7.5 7.5 7.5h120.771c-.004.172-.013.343-.013.516v56.113c0 .325.011.647.025.969l-121.251 7.578c-4.134.258-7.276 3.819-7.018 7.953.249 3.975 3.55 7.032 7.478 7.032.158 0 .316-.005.475-.015l126.249-7.891c4.313 4.846 10.592 7.906 17.574 7.906h41.829c3.139 9.308 11.946 16.032 22.3 16.032h104.209c26.236 0 47.581-21.345 47.581-47.581v-40.081c.001-26.235-21.344-47.579-47.58-47.579zm-176.871 95.677v-56.113c0-4.705 3.828-8.532 8.532-8.532h8.532v40.597c0 8.556 6.96 15.516 15.516 15.516h16.548v17.065h-40.597c-4.703 0-8.531-3.828-8.531-8.533zm64.129 16.033v-48.097c0-4.142-3.358-7.5-7.5-7.5s-7.5 3.358-7.5 7.5v8.532h-16.548c-.285 0-.516-.231-.516-.516v-40.597h17.064v.516c0 4.142 3.358 7.5 7.5 7.5s7.5-3.358 7.5-7.5v-8.016c0-9.125 7.423-16.548 16.548-16.548h71.406c-6.848 4.197-12.549 10.081-16.541 17.064h-14.785c-12.976 0-23.532 10.557-23.532 23.532 0 4.142 3.358 7.5 7.5 7.5s7.5-3.358 7.5-7.5c0-4.705 3.828-8.532 8.532-8.532h9.314c-.504 2.77-.781 5.619-.781 8.532v40.081c0 12.598 4.931 24.06 12.952 32.581h-69.58c-4.705 0-8.533-3.828-8.533-8.532zm145.323-24.049c0 17.965-14.616 32.581-32.581 32.581s-32.581-14.616-32.581-32.581v-40.081c0-17.965 14.616-32.581 32.581-32.581s32.581 14.616 32.581 32.581z"/><path d="m504.968 216.45-121.251-7.578c.013-.322.025-.644.025-.969v-56.113c0-.173-.009-.344-.013-.516h120.771c4.142 0 7.5-3.358 7.5-7.5s-3.358-7.5-7.5-7.5h-126.62c-4.316-4.909-10.635-8.016-17.67-8.016h-41.505c-3.375-13.786-15.829-24.049-30.64-24.049h-72.145c-7.003 0-13.571 3.109-18.02 8.411-1.976-.251-3.985-.395-6.028-.395-26.236 0-47.581 21.345-47.581 47.581v40.081c0 26.236 21.345 47.581 47.581 47.581h104.209c10.353 0 19.16-6.724 22.3-16.032h41.829c6.982 0 13.26-3.06 17.574-7.905l126.249 7.891c.159.01.317.015.475.015 3.928 0 7.229-3.058 7.478-7.033.258-4.134-2.884-7.695-7.018-7.954zm-345.677-16.563v-40.081c0-17.965 14.616-32.581 32.581-32.581s32.581 14.616 32.581 32.581v40.081c0 17.965-14.616 32.581-32.581 32.581s-32.581-14.616-32.581-32.581zm136.79 32.581h-69.581c8.022-8.521 12.952-19.982 12.952-32.581v-40.081c0-2.914-.277-5.762-.781-8.532h9.313c4.705 0 8.532 3.828 8.532 8.532 0 4.142 3.358 7.5 7.5 7.5s7.5-3.358 7.5-7.5c0-12.976-10.557-23.532-23.532-23.532h-14.785c-3.992-6.983-9.693-12.868-16.541-17.065h71.406c9.125 0 16.548 7.424 16.548 16.549v8.016c0 4.142 3.358 7.5 7.5 7.5s7.5-3.358 7.5-7.5v-.516h17.064v40.597c0 .285-.231.516-.516.516h-16.548v-8.532c0-4.142-3.358-7.5-7.5-7.5s-7.5 3.358-7.5 7.5v48.097c.001 4.704-3.827 8.532-8.531 8.532zm72.661-24.564c0 4.705-3.828 8.532-8.532 8.532h-40.597v-17.064h16.548c8.556 0 15.516-6.96 15.516-15.516v-40.597h8.532c4.705 0 8.532 3.828 8.532 8.532v56.113z"/><path d="m408.307 248.5h-40.081c-4.142 0-7.5 3.358-7.5 7.5s3.358 7.5 7.5 7.5h40.081c4.142 0 7.5-3.358 7.5-7.5s-3.358-7.5-7.5-7.5z"/><path d="m403.645 289.373-16.032-8.016c-3.705-1.853-8.209-.351-10.062 3.354s-.351 8.21 3.354 10.062l16.032 8.016c1.077.539 2.221.793 3.348.793 2.751 0 5.4-1.52 6.714-4.147 1.852-3.705.351-8.21-3.354-10.062z"/><path d="m103.694 271.516h40.081c4.142 0 7.5-3.358 7.5-7.5s-3.358-7.5-7.5-7.5h-40.081c-4.142 0-7.5 3.358-7.5 7.5s3.357 7.5 7.5 7.5z"/><path d="m108.356 230.644 16.032 8.016c1.077.539 2.221.793 3.348.793 2.751 0 5.4-1.52 6.714-4.147 1.853-3.705.351-8.21-3.354-10.062l-16.032-8.016c-3.705-1.854-8.21-.351-10.062 3.354-1.853 3.704-.351 8.21 3.354 10.062z"/></g></svg>